<mxfile host="65bd71144e">
    <diagram id="BmFTb9Dm4fifbC2YWuJk" name="ページ1">
        <mxGraphModel dx="771" dy="750" grid="1" gridSize="10" guides="1" tooltips="1" connect="1" arrows="1" fold="1" page="1" pageScale="1" pageWidth="827" pageHeight="1169" math="0" shadow="0">
            <root>
                <mxCell id="0"/>
                <mxCell id="1" parent="0"/>
                <mxCell id="7" value="" style="html=1;outlineConnect=0;whiteSpace=wrap;fillColor=#AFFFAF;shape=mxgraph.archimate3.tech;techType=sysSw;" vertex="1" parent="1">
                    <mxGeometry x="40" y="177.6" width="320" height="230" as="geometry"/>
                </mxCell>
                <mxCell id="5" value="" style="aspect=fixed;perimeter=ellipsePerimeter;html=1;align=center;fontSize=12;verticalAlign=top;fontColor=#364149;shadow=0;dashed=0;image;image=img/lib/cumulus/container.svg;" vertex="1" parent="1">
                    <mxGeometry x="62.099999999999994" y="195.38" width="77.9" height="69.24" as="geometry"/>
                </mxCell>
                <mxCell id="2" value="Apache" style="dashed=0;outlineConnect=0;html=1;align=center;labelPosition=center;verticalLabelPosition=bottom;verticalAlign=top;shape=mxgraph.weblogos.apache" vertex="1" parent="1">
                    <mxGeometry x="167.4" y="195.38" width="42.6" height="74.62" as="geometry"/>
                </mxCell>
                <mxCell id="10" value="" style="html=1;outlineConnect=0;whiteSpace=wrap;fillColor=#AFFFAF;shape=mxgraph.archimate3.application;appType=func;archiType=rounded;" vertex="1" parent="1">
                    <mxGeometry x="60" y="300" width="280" height="97.6" as="geometry"/>
                </mxCell>
                <mxCell id="17" style="edgeStyle=none;html=1;entryX=0.5;entryY=1;entryDx=0;entryDy=0;dashed=1;strokeWidth=4;" edge="1" parent="1" source="11" target="27">
                    <mxGeometry relative="1" as="geometry">
                        <mxPoint x="540" y="487.5" as="targetPoint"/>
                        <Array as="points">
                            <mxPoint x="280" y="520"/>
                            <mxPoint x="540" y="520"/>
                        </Array>
                    </mxGeometry>
                </mxCell>
                <mxCell id="11" value="" style="html=1;outlineConnect=0;whiteSpace=wrap;fillColor=#AFFFAF;shape=mxgraph.archimate3.function;direction=east;" vertex="1" parent="1">
                    <mxGeometry x="220" y="340" width="110" height="85" as="geometry"/>
                </mxCell>
                <mxCell id="12" value="" style="html=1;outlineConnect=0;whiteSpace=wrap;fillColor=#AFFFAF;shape=mxgraph.archimate3.tech;techType=sysSw;" vertex="1" parent="1">
                    <mxGeometry x="400" y="177.6" width="280" height="202.4" as="geometry"/>
                </mxCell>
                <mxCell id="13" value="" style="verticalLabelPosition=bottom;html=1;verticalAlign=top;align=center;strokeColor=none;fillColor=#00BEF2;shape=mxgraph.azure.visual_studio_online;" vertex="1" parent="1">
                    <mxGeometry x="414" y="195.38" width="50" height="37.5" as="geometry"/>
                </mxCell>
                <mxCell id="15" value="" style="html=1;outlineConnect=0;whiteSpace=wrap;fillColor=#AFFFAF;shape=mxgraph.archimate3.application;appType=func;archiType=rounded;" vertex="1" parent="1">
                    <mxGeometry x="420" y="300" width="240" height="97.6" as="geometry"/>
                </mxCell>
                <mxCell id="16" value="" style="shape=image;verticalLabelPosition=bottom;labelBackgroundColor=#ffffff;verticalAlign=top;aspect=fixed;imageAspect=0;image=data:image/png,iVBORw0KGgoAAAANSUhEUgAAAOoAAABQCAYAAAAXxeldAAAAAXNSR0IArs4c6QAAAARnQU1BAACxjwv8YQUAAAAJcEhZcwAADsMAAA7DAcdvqGQAABmBSURBVHhe7Z0JVFRXmsf/VVAU+6JWUISAaFBpgXEbJbhEg1Fb22WSNk3I2KMm3VkdE+d0J9PRyXS27mSc45hktBOXRKUxaloxLqCliBsQCQ5ISgWDsghCibJIUUUtzL2vXlW92tixKby/cx685da7b7n/+33ffe/eJ2pqamoDg8Ho14j5/wwGox/DhMpguACiyqoG5voyGP0cZlEZDBeACZXBcAGYUBkMF4AJlcFwAZhQGQwXgAmVwXABmFAZDBeACZXBcAGYUBkMF4AJlcFwAdgrhP0UReoapBaRGdkCrF4zBzLjasZDiusJVXkCmzYegZJfFBKdvBFJ0fyCIJ3Veo5CpP5hOxRkTpb4NlbPCubWmsVhS0diaeeYuis0JlSGkAHl+ipS1mBTZg2/1Isoj2ATL+wuw/22j46L8dDg0kKllvK9D+i0EmZDWlDo2LJ1BWrFuP1uxOpEo7WlVrigE0q1HBOZkmP5teS45NuR1eMDYzysDBCLGou4cfyssqLnQhUgGzfJ7HYqa7poFaNXCsRag4Ii4e+p+70G68zTR86FTF1rQdpUQYVBXWRu/cYT5vNWZn7Ep7X2Asxp+fQKJ+kY/Y8BIlRi7UyxpSzMLp6jLrG5gHaxYCqL8swCkAWbrGsXiJ5ksfa3eaFywrM9hhrINzoSax5SbeJfRUo7onaCXfxNXPJUOXPHXYUuCZW2Ohna2qDVG6DSaHG3SYXSW3eRfbkC3529hl1HC7Hl2zxsTMnGx1+dxYfbMvHBVjk27T6FfcdycLHwOpR19VC1qKHT64077QEWAVoKffRTvdDwwseVdN+bTIWZuMOJVg1S3Uch54UncLGTOI/A1uoSlDWQmdzpNQv4c3OQrj1IxSDnRUobz4yuuSVcYPR/OiVUvcGA5pZWVCmboCi9g3OXKnHw9E9EmNeQevw6TuRWobDkHsoqalGnvAdVqxhqnQd0bd7Qww93VV4ovKHGPvlV/Nf2DGz75jhOn8/HjbIKtKjVfC49JRZJtMA7KH1WcWM3CilXuHut5bWGas+IoEIwWTuz1TUhrCBkxMXnD8IuXXuYw4FgEiKYvIJYJJrjb0Z/p12hthHr2aTS4NrNOzidX45j52/g6PkynP2/alyvaEBDUyv0euPTHQ+RBj/9cBiVRenw9hBx60yIxWJIPLzg6y+Dd2A4lC0BkF+sxJ7D2Th64gwqKithIJVBV7EWYC9aCIGlo5Pp8U13UGYesVj7OBqv1pAKz7jsEBIHd9Gr7ZAux9aMfodToVKR1tQ1ISvvJk4SURUU38XdRg28JAYE+Yi4KZBMPlIxxCIRtKq7uJz/Pe7V1cLP241sE8PH0w1uYhG8PY3p6TTIV4zBAV4YJAtFizgY+SXN+OvfMqC4ouiWWPsztFHH7DrTBi+uJglGiMk021QI3GRruZV5UJiUqzgCOT8vG2pTeZitZg0UBdbCtMTWQpe5EHIWo7oMTl94uFN/H99lXUPVXS2xmkYL6a6uQMb+L9B8v5FbFovdEProCEyc8Qs0N9zBoT1fQKfVwC9gEGdFwyMfw8TpC3HrZgnyLxyHWq3ifieReGDMuPGInrIAavhDrWpAq/IHvLoqCRERI7g0Tmn3RQYB7abr4IUHKqCuuLqCvBwTjMQ1b2OmaYeK7ViXUsgvCKHuu9EzsGv8scKSzroysMWUrgZZGz8yi9wey/4Y/ROnFlWeU4IKpcYiUjcRam+VovpWBaY+Pg2Ln12FSfEzcOP6FRScS0N1aQFJZcDPF/8SC/4pGWOif4YfCy6i9McLUFZdh6blPuYsfBq/WLYCo6LGIOfsCRTlpsPDzQCpdyDEgeOwe883XF4DCWPjjUCkFPrYxtww1AGk0kiyiiWtRSWb9TbfEMUzbqXg2a+JYMxcYy1EroJiMarL4NSi/udfThEZe0NE3FqKpwQoOJ2CgtxMrHzjAzSLgmHQ3MOlUzvRcKeKWEkJVCo1Fvz6D9C5BUKjLMCxvV9iSsIMVJSXQavV4Ymn16AVZJ+qShze9THCo+Iw8cnnoTFIOVe76upx/GXDei4/Rl8jsLJd9SAYDxynFlWt0ZtFSmnTtaC+rgZBg4Ig8R4ETw8xDC11qKu9DX9/P+LWquEXOAhuUl+IiGVtulsNsbs73MjU1NiAkLAIiNwkJG4Vo772Blq1WgQNGUqqClIDEGheIndfbp7R+yhSrZ/bKjO3W+LduFgm0n6OU6G6ifSclTOhb72Phnt1aG5WQZF7hFjXncg6shMeHhKMGhMDQ5sIw0Ij0KoTQyoRobqiFH5+/nAjsWr9vXuoqSpD8fdpyDn6Bc4dP0Di19GIGDsFWoMbt3+aV5vuPjfP6Aus34QSPh9O6kGrNuPB4FSo4UO9ode1cvNisQj362vR0tyEoKBA6Frq4emmw6Sp07AgaTWGj5qA8RMnY2zcFLSRXXpKxRg5cgSmxCdQU4k2gx4eEneIdOT3fh6Yu3gZpi/6LXSSIdwLFBRVYy0elUm5ecaDoXefDzP6EqcxapXyHnalXYRK5wVvLyluFp7AuYx9WPr8y/AMnsAJzGAw/pR6yFTMdNlkhN3dxRDrVSg8uw8VP/2IuctWQ+IfSiyuwZyG0tZmQGtLA7S01feF5xAe3kGrL4PxEOLUog4bEoin58RiWBBg0DZDKpVibOxEePgNg05vMIuUQoVHX3wQClBHBKnT6RAQOBijYyYDEj8bkbZB26pCS305fHWlWP7sIoSFhfPbGAyGkHY7jlMx1tY1oLC4EmVVdWi4r4XG4AUdiSuFDU3OoI90vD2M8yriRes4MROBapqhbqyGv1SDMRGDMXXyeISGhnLPZRkMhj2dGuFB06olgm3Ejco7uHqjBmXV9USsEnhIveDm7tGBwNqItdUR9/Y+WppqYdDcxaND/TFu9Ag8FvkoQkKGwcvLm0/LYDAc0SmhmtATl7dVq0Nzixrlt5S4XlaNyuo61NUTC9mq4ywmTdPWpoeoTUcmLTzEeq4BKXTYEIweFYnIEeHw9fHmXGl3d3d+zwwGoz26JFQGg/H3wWljEoPB6D8woXKjLXR9xARGz3E0jAzDMS7o+lp6vlhj00Ols3A9X/IQ153fMroN1+unYFLfvWPssEeTTRlp997TcnYEIYJtDns0jVuJ95Isg9j1FS5rUe1GbUgOhnwjqZ1THXUfYzwY6Iv+nRsalRuhIji4j9+KosK0lJHViXAyLlUXoMI0l7uViC7a/kDK3MBxfU1dx8iFE47Sx2CYkM1aiURZF8ebapdYJNFRJovyHHh4vYvbm2vffpefdxFqUHTqErlG8xBjWx37jIRfbToya0IwO8byojl1s/609VtkniLbyFQzTPBbVSlyc6owdGoUyr58B9u+M6bJrBXug1qKd5Dtb50nt980NWKmjoQPv45zpz78FIf5vIrEIVCnfYRDLeMxZYSz3kHG/ZvzJufnFjsdET6dzJd2RN94CUOfdIOcxNt7zXkL8zTuix5H5M1PBdeDnPuT420sG3X7LPuxHA+/mUDdwE1FIRhaRFzYPSSvlhbkfr0bRSp6Sc85yN+Ecd+ZtWS29pJNOtvrYHOvCHb5OsyDYL6vwuP2hepGOnLvRxnvrcM0Jmg5K4GfYJuyiOSH8VZlC7iDohySzub69DYDrjGJG6JEMO6QORYyuSvE6ipTSKxhVQXSoTq3A2Z3upsuDR8XmUcNJFPibUt3MmcoUj+CPNjiUnWvQzcVAIm3+H3Q84ScnLuNG6ok61JhyStpnE3MT8+BLCu5Du/8vviwws5TIdeoIM6YZvXCpeQav00sFv+yP13nsFcO7fjOj7rIu5HGdEYBC6+D6V7ZudLCfLvU88c4sJzdMDY9gRsCh7jw1jVdrzPwhGo19i4dFwhITBY0WMjmIJEUEkWBtQijk4UNCt1zabhhQEnhEw77Ep1kLLzOsS881EXresMWjccEoziQ86QjQ9h9OYCOACEo3NFJ9DeWrwCYzsFKACSsoMKyvWa0i1xvDaHKDQJHO7ALG2acnUM38+UqRGUsEq3ETStpS/c/y+SowdIGWqmlFJKKaUGfD2Mz4IRqNeIeUYDSwY2wH4tIMOCYCW4gb/L7Tjc8GAVnHGmwKwRj5lOxnKXr2Yj19rU6V2nZfDnA3poYz9143ZyfA7fOdoTEXmwMoo1Ljjqwc18qsP36Qafztb73qTV0MDnrIWno+QsbnCyTbToe6mmZyhLvPXXNqnePgSdUuxtudLXsbsQDaFLvNLQhjBzT6sQa4v7RQtATwTIs2IiwNx4FWbX6tjO4Xi8zsISq2E6spcC1kdGat3Mfd7KF+5SFbBKiBXfWdnxcR4Ng27mHpFZvdxxfAXSgMmNNbn3MncnXEdyxEIvUbllSkryUpoG5yfUi/+zPgV/Xh49TqKV39IEv432w/0zJw8aAESr3lktKjXWcRqwp/XiUIsXaQtHxgqyfpRkbk8xpSOxBv8tisczBxPUjBYnEb+Y0XKXAz3MYXVjqGll/xKkj61iDrFRnb+Z0Jl8ThUgVvuHDp7N1Y7nGJPPOSN4pJCYVVEjRJN6ij7isGnC4fRHrlNiRF2IUemcrEiGyWSTOo18OEDbg8fehVz5T8veCXDurD4DZLNPGzs54UC7bfYX77gw/z8G5JPYFKTqJuCf0jRLiUpqhaWfx8xykECaHQU7jGH6NcLxfCvcMroAUctN+aIMLcVU30VFSTXBfbyM3QnBstJEqseYjCJPZUUM/bXGEX6C/sbhUncqXg7j4T1Vwn8gw4WjcY1niSoQcp5WaaYXNCISyOWQZ2LSRFCA5v44LH95u3zLzcEInld66P9C8rK9h+9A8VpLzNP7WiNF17XrD2sCD9Z7pc+izQSLUuK4U2i5Ca2kivPYH0X4Ax8HoMwZcY1K/wyoGZDC6BxNqb0Ism/XDeRo30ueSC5j7xugRTKi9iSyMexvI/JyNNhLQeLg/PQpiuCQsRmUwXABmURkMF4AJlcFwAQae62toRMmVJgSOHg4ZG+SQYaJFimsKd+RVi3G+SQS4tSFmuB6zR7VidLCOT9T3qHI/x7q9l/mlGCS9+yom+fGL7TCwLKqhDsd25GPWgRI8teMKKh7c9Wf0V7RSZB71x5I9Uvz+ihh3PNswa4QO8wa1obXGHb8/6k22+SKjzPhVwd6nGWVFpVDpjUs3r2WhOXI+lifPxyiVHAWlxvXQN0OpbOYX7HFti6pTo1FtUmML8o5cwfISA78MrvfI3qQwmJ5gSj19IWVW9uHhnjc2H3VHhocB7zyhxiSZg5q71QN5Z6R4v0KESTFqvDPJ+GG03oGI9OB7+OP+a8CIxVj9xnwoP38JZYsOYFUcUPDFUux85FNsSCjFtg8/Q1Z9JJ5Zvw6LRtj3QHdhod7Hqd15WH6TX+wEsogwZD0/Ev78MmMA0+KFHX+T4NwQLTbOaYFfB75ja6kPfn/WDbHxKqyI6g1XjBdpWj1mrngOyPgM8ipAgkgkbfgTEgcBDfK38PqeUkj0gxCX9CoSVSnYkAYsdiBWF3Z9tWhs4mc7ibKpFRp+XkjzD1/ikz+vx6Y0Baxu0c2D2ORovRklcrauxydbs1DHr2mX4j1cPmnF/DKjj3DH5TMS7PXU4b1OiJTiEdmMP08wYG+2F8438Ct7hBZVJUSE8S8iacYMLP/jDryXFI/HJv0ccUSklIC4JZgfTyzthi1Y/VQMouPjEa69hhNnS8mvrRlYMWo38Rm/BFMHA5qrJ5FnVhwRoTwfGnEUZs2Ldt3eCw8j1VJsr2rDmpkqhNiVcE/sS/XHK1me/LIFjxgN3gkQYcsP9tu6TiDif/MaHsv+DPuvk0U3H4Q/9QbeenWGoAPEVCStSuaFWwP5Fym4Pmgx/jU5hlhea1xXqAY16m2rHQfMHu6Jifw8tDrUOzKNYhmmJ06AlIjz+3NG66krPonviWgfmT4XMez7yi5F1U9uOC/TY9YQfoUVekz+By1WjuRbd6zQIiHagDsV7iBRZY/RSkZjZrwWx7amgXi9ZpTX5Th0SI7rgr6NqtyvkHrNB/NX/RKjHHxzzQVHISQY6nBwmwL/dpdfdkJCzAjs+FUkQm7cwoFGskLTgqMlLVgQJ0OAbRUVGAF/5UVcuVYGfWQoytMzUO6ZgCWLYuFn+sKkphinv9mGA8cycC73Im5Lh8LrtgKVJO4YPyEC9Jt0unuFOJ76Fxw4fhIXcrNxvT4AI0YGw5Puo64IF64qMfixcWg5/Tn2HOb3g0cxMiyAs9rFaeuxPa0GsmnjQIw8h9265mLISR5pGSf441CjZNdX+O6qGGP443h4kaAwn9ijkFbMCXEkRhG8vdoQ6GOAVOKgecbPHXWFYriHtmJUd0cVvJaC19/6D+w9cBj5dwdhTMw0TJoQCh9SESh2voD1KZehvH0Z8m/T0BA1B3GPeEAidScVBCkfR3dh7/6/IeNsK8bMiwXvJbuiRb2PU3su47UO+iZTke5cHIySI/lYW8GvJNDREhbt+QlUt9Z4Ymzik8RVuofC/btwscETMfPmWlwngxJnd+3GRVI1hkxZgoXzEyD94SBy7vHbKXVZSNm6H8VeU7B4xRtIToyC5sf9+Pq4qQ3eSJl8D4pliZj3C2KtA9QoPfslDv/YyQYMehypu3Gp1l1wHFlgYa8JEe4TTyvS31nrrQdS9nnhyTP8h3tt8WiDv1iEKuF97SraZjQEJ+O9rQewbfMWvLVqqtHdbcrGseO+eObdHdiwgcSsz/hCfuAMuJCYuMGr/n0Ltuwgv/lgGWTKZgjPwHVdXyFiD3z23Eis46sfi0jz8M+XdE5GT3CA30RMHuNODK+aRPpTQIyThesnkUNd4SdewbNPTMDY6AQs/PVCPGp5GoTS3POolUzAwmfnIuqRIITEPYPpo2jsW4hyPg3Fc9wS8z7mLV+CSHIXShWFThqsbCjNcnAcS4hNZgwYBGXKhAsK1RezfxWDz4TdOw06lGtl+O3Kx/BJfPsipc9WD/3KySMaZRbOKXQICAgCGnKRrSCC5am7Q/cUhMgIwWDP0jCEm/xTklNtFUmvyce3n6znWnfpdJiaOo0alj0BwaFh/BzBYxiGk+zQ0GSsWTugrraa/G3vOBgetOJrdGIxO6JVhEZDG0LoPekuEh/I7u7FuheWYtXLL+FP23KM5dAvHvPna5H27gqsXbsC69K0SFw6AwF0m1KODW88j1XPk9+sS0FVgA+x/RZc06KKB2PJqtF436w2Az7e9z02lQ1G0pPtWFL/wdi7YizCHDXhUpcyLQt10mg8sWIxYrzUKJano9yqdnOHxOaKaW1rv6AEPPva7/CK1USsJr/ZEXb76BDb4yAVQW8+p3dpWjGaVOIZt92tXMfO0loiRrrEgIie9B8enYwNm/di59e7sXqaBopzWbjOPUqUIDp5C/573ZtYnvwm1m/cguXj+ECYuMt0aNrHX+fd38+TQZwxM64pVIrYE4FWbdhUrDkIfT8H85y5uxJ3BDp5zlL3/X7OpQyZvhBR0kjMmhUFtORDft64pwA/WsUqUVYpsI1NxSg1xzIyDKI3914pagy+8PERTp5Wj3fqG+7zcwTTPmQyc+MRiBOsMZUyQwXKb/HzBMfHUY6yLj5THsiEjNQjQemGzDv8Civa4OsJTPJ09J6PBOeviTEkRI/R/JoeUX0MqceaMSr5XxAveJ83IDwGcRNiEM6ZUp6QxXhhgQQXjuej2YEqXVeovUlTLtLPEpcyIAGzxhtdSunPZmIyuZB1OQdxiYjAffQEImCg/PhmHL5YiCsFGfhm10nQT6iYiIqjj3iqcfrrr3C6oBTlNwtx+cIepOVaVxu1Z3YY96E4j8OpGWQfQZg82Tja0fBHqe0tRua3GbisyMfpfQehEJiGzhzHQ88wDVaGiLAxyxtVdt6KGr9MasT/zhQGIxQxqnI88XFTG16aaLutG+grcegz4sKOSsbL/BhVDQUp2JZyBjRC4qg8g80frkdqQT23OGrpa3i8Ygc2n7RvKXVhoUrg34leB0Jkfh5ESLaocTn9CLmhnoiaTVt9+dXiMEybHQ0psWjy9HxoPKKx4Lm5iPRpwpVT+5FOLG34ImJ9+eQcEUuw6ukEhLiX42L6V/jmm4PIJDFvcJh1wBOVOBeelw/i8HcZKFEPw/inX8QTIcZtPnGLMW9MELnP55F+TI66sCWYNcK4jaO94wjwM8Y7Dz06xMzQYpnaHevSvdHUYWghRtNVb6y7IsKy+BYk9MZFdAtF/OzRkJRlI/vKZcg/fQlvfpqGC8f+ijze0jdcPYrs0quQf/IbrCXbsg7twwWVDyKC7T96xV7KHwgoT2L79iyoJ7+IV2YLGqoedviX8g+RmPOd6RokDHPwhkyfvpQPVB17C+tSShE44zW8tSoS2b97HSVLd2PtNJLv58uQOvxTbPjHq9j0yRfIqx+ExLUbLHGrgIHVH5Xr5nYZLxIvlmvdddZw5NIokL41H55xsQim97O5FNln8lFnCEPiSy9ifBe9jAEP7eZ2Qor/od6kpA0JsjaE8G/+3GkUI5M2tXsZ8HK8BnPDO/GqW5dp5r7nI+NulrHHzOaaRDweDtzMlmP4S8aeNNDXo6pGgpAQx29ZsI7jLkc1LqbsR/ZtJTTUmRC7IyBkIqb/fC7GBg3IE+4dTB3H74hReFcEeBsQO4RMRJwxoX0hUMd0t+P4wBMqgzEAYa2+DIYLwITKYLgATKgMhgvAhMpguABMqAxGvwf4f2bOwnSD63puAAAAAElFTkSuQmCC;" vertex="1" parent="1">
                    <mxGeometry x="430" y="318.8" width="208.25" height="71.2" as="geometry"/>
                </mxCell>
                <mxCell id="18" value="LISTEN&lt;br&gt;(9003)" style="whiteSpace=wrap;html=1;rounded=1;arcSize=50;align=center;verticalAlign=middle;strokeWidth=1;autosize=1;spacing=4;treeFolding=1;treeMoving=1;newEdgeStyle={&quot;edgeStyle&quot;:&quot;entityRelationEdgeStyle&quot;,&quot;startArrow&quot;:&quot;none&quot;,&quot;endArrow&quot;:&quot;none&quot;,&quot;segment&quot;:10,&quot;curved&quot;:1};" vertex="1" parent="1">
                    <mxGeometry x="400" y="440" width="80" height="40" as="geometry"/>
                </mxCell>
                <mxCell id="19" value="" style="edgeStyle=entityRelationEdgeStyle;startArrow=none;endArrow=none;segment=10;curved=1;dashed=1;strokeWidth=1;exitX=0;exitY=0.5;exitDx=0;exitDy=0;" edge="1" target="18" parent="1" source="27">
                    <mxGeometry relative="1" as="geometry">
                        <mxPoint x="522.5" y="471.375" as="sourcePoint"/>
                    </mxGeometry>
                </mxCell>
                <mxCell id="28" style="edgeStyle=none;html=1;entryX=0.5;entryY=1;entryDx=0;entryDy=0;entryPerimeter=0;strokeWidth=1;endArrow=none;endFill=0;" edge="1" parent="1" source="27" target="15">
                    <mxGeometry relative="1" as="geometry"/>
                </mxCell>
                <mxCell id="27" value="" style="ellipse;whiteSpace=wrap;html=1;aspect=fixed;fillColor=#fff2cc;strokeColor=#d6b656;" vertex="1" parent="1">
                    <mxGeometry x="525" y="410" width="30" height="30" as="geometry"/>
                </mxCell>
                <mxCell id="30" style="edgeStyle=none;html=1;entryX=0.5;entryY=0.8;entryDx=0;entryDy=0;entryPerimeter=0;endArrow=none;endFill=0;strokeWidth=1;dashed=1;strokeColor=none;" edge="1" parent="1" target="11">
                    <mxGeometry relative="1" as="geometry">
                        <mxPoint x="195" y="451.21212121212125" as="sourcePoint"/>
                    </mxGeometry>
                </mxCell>
                <mxCell id="31" value="&lt;span&gt;設定により&lt;/span&gt;&lt;br&gt;&lt;span&gt;接続する&lt;/span&gt;" style="whiteSpace=wrap;html=1;rounded=1;arcSize=50;align=center;verticalAlign=middle;strokeWidth=1;autosize=1;spacing=4;treeFolding=1;treeMoving=1;newEdgeStyle={&quot;edgeStyle&quot;:&quot;entityRelationEdgeStyle&quot;,&quot;startArrow&quot;:&quot;none&quot;,&quot;endArrow&quot;:&quot;none&quot;,&quot;segment&quot;:10,&quot;curved&quot;:1};" vertex="1" parent="1">
                    <mxGeometry x="110" y="440" width="90" height="40" as="geometry"/>
                </mxCell>
                <mxCell id="32" value="" style="edgeStyle=entityRelationEdgeStyle;startArrow=none;endArrow=none;segment=10;curved=1;dashed=1;strokeWidth=1;exitX=0.5;exitY=0.8;exitDx=0;exitDy=0;exitPerimeter=0;" edge="1" target="31" parent="1" source="11">
                    <mxGeometry relative="1" as="geometry">
                        <mxPoint x="111" y="550" as="sourcePoint"/>
                    </mxGeometry>
                </mxCell>
                <mxCell id="33" value="Visual Studio Code" style="text;html=1;strokeColor=none;fillColor=none;align=center;verticalAlign=middle;whiteSpace=wrap;rounded=0;fontSize=16;" vertex="1" parent="1">
                    <mxGeometry x="458.25" y="130" width="180" height="40" as="geometry"/>
                </mxCell>
                <mxCell id="34" value="Web Container" style="text;html=1;strokeColor=none;fillColor=none;align=center;verticalAlign=middle;whiteSpace=wrap;rounded=0;fontSize=16;" vertex="1" parent="1">
                    <mxGeometry x="84.99999999999999" y="130" width="180" height="40" as="geometry"/>
                </mxCell>
                <mxCell id="37" value="" style="shape=image;verticalLabelPosition=bottom;labelBackgroundColor=#ffffff;verticalAlign=top;aspect=fixed;imageAspect=0;image=data:image/png,iVBORw0KGgoAAAANSUhEUgAAARsAAACOCAYAAAAB8axlAAAAAXNSR0IArs4c6QAAAARnQU1BAACxjwv8YQUAAAAJcEhZcwAADsMAAA7DAcdvqGQAAEPrSURBVHhe7Z1ncFxXducPA0AQOUcGBBIAQRDMYhBzkihpJM1IGqXZ8VTZU+UP63Jt1VR5y1WuGn+xP66/rF1l1+7anvEojTSiJAYxB1EMYgIYQJBgAEDkRGSQIKm9v9P9yGazG3gAukGE92e9Atjo9+7t1+/+7/mfc+65k3bs2PGjOHDgwEGQMem3v/2tQzYOHDgIOiZVV1c7ZOPAgYOgY9KPBu7fHThw4CBomOz+6cCBAwdBhUM2Dhw4GBE4ZOPAgYMRgUM2Dhw4GBE4ZOPAgYMRgUM2Dhw4GBH4DX0/+vGRPHz0QB48euh+JTiYxDFpskydPFWmTJ7ietFBUPGj+W7vP7xvvuPgZj1MNt/u5Ml8tyHmO+abdjCR4ZNsIJr7ffekpatZ7na3uF8NDiCasJDpEhcRL7Hhce5XHQQT9x70yp2WSrnX1+t+JTgImRoqEaGRkhSdLCFTQt2vOpio8Ek2fWbWa2xvkB9unpQLlWfdrwYHLqsmROZnFMrC2UskPTZDQqdOc//VQaBxu+mmXKm+aI5L0nWv0/1qcMDkkZmULevzNzsTiQPfZNPT1yO3Gq7LZ6c/km/O73C/Glwsz14hm+dvk5Vz1khSVLJDOAHGAyOJ23va5MjVA7Lv4i5DNpcN2XS5/xocpMWmybKs5fIXG/9KJxEHExujxkHMTLvj7Bdysvw7qblb7X7VQaAA0ey9uFMOXPpWiabnfo/7Lw4cjAxGDdkwy1Y235YDl/fKievH1Ny//+Ce+68OhgPuJRbNd2VHpLz+mt5r/HIOHIwkhkw2RBdCp4ZKWEiYTA+dbvvg/dOMRPIVnWAQ/HDzlBwrOyxnb52Sxo4Gh3CGAaQTTv7zFWdUOl26UyLNnc3uvz4LvpOpU6bq9+Pru/M+poVM0wiiE2lyYAdD9tlANKkxqRJuHrrJgwhZ/2j+9d7vlZrWGrnnh0gipkXIrIRMeWPpz2Rp1grJTMx2/8XBYADRIJ2waCAapFN/Fg1EEzM9RqKmR5nvNdz9qn/0PezTCaHrXrf0Pehzv/oEjs/GgSeGTDYJkQmyfeFPJCNuhlordkFjhFyrW+9ISdUFuVpzRR9a725AOAUZhbI2b4OsmrvWiVINEkgnLBp8NEintp42iQuPk4iwSAmb6vq+uu93SUdPh7T3tsvDRw8lclqkFM1aKPnp82Vm/Cx9T3+423NXjl49KLcbb0pr1133q0/gkI0DTwyZbHgY/8f2/ynz0gvMAxzlfnVgTJ40WR6ZB5uH/9uSb2Rn8VdSd7dGeg0B+eiKE6UaJHxFne4/uC8x4TGSl5YvydEpEhUWre9t7WqRGnPvb9Rfl47eDrVqXip6RdblbZT5Mxfpe4AlkiZPmmJkE8p7klqota3V8n+P/oucu31GLVVvOGTjwBNTfmvg/v0xeGDvmgeRCNG1ujL3q08DMzsnOUf1epd5UHm/naOnr1vPjzYPdnxUolpIFU23jCneaWbXZ038tu67hoxqJTIswpj30U6+xgC4292q0ulI6QG5bL4/pFNydLLMn7FANhZsM5PDApmRMEsy4mdKZlKOkgByqxunsfmnZGTu82TzvVrfWau5ZpuxYu5jgZp/Dx8+MJNDj9S318u5W6ektq3WnO/6Xj0RZSah9LgMWWKksEVwDiYufFo2OGUJP3966r/kyzN/VPLxfluEMbkXzCiSmIhYCZkS4n51YIQaE56H/8Xc9ZIQkaAzKrPw99ePmcFxUR6YB/nZthxJZQfe0slyBi+YWWTu2xpZOGupyqWO3jYJnTLNEHiUWj2HS/eZ885KrbFyZsTNlFRjkZDRDXAAQxpzUvKUiKabSYbJpaK5Qq7Vlkpx1XlpaKs3kuwJ2aijefJUWZb9glql6/O3OJOEA99kY5ni35z/k+w4+7nUmZmLhzIQYK1MakyavLX8XSORVqkcU0l18RvZU/y1eeBr1XHso1uOpPIDX9LJM2FvjSH2LYXbjJUxy8idKqlsvmUsy1jz/xk6aZQYwjhx/TspqbzgPsMFviuk1SzzHa3N36iTBNbnzcYbcsGQE+08Mv/H2rEA0RDNgrBeLnrNHD/R85zlCg58yigeGKJNzGLhxqq40VCuZnZAYJ5L1uZUGumE/k+NTTdSKtGQR4rEqaS66TcPxJFUvuFLOnkSAJG9bCN5owxxVN+tkpsN1/X+RofHqLxpNTKKtVIQvQWIhkhjoZFfK+e8KGlmgmASuG2+N/KgqpordQLybAdg5SKd3lnxgazGCjW/OwsxHQDfZMNq3UmTNY8ifFq43Lvfq2Yyg90uML8xpb0fRsBs2HW/U53CaP94QzYQB6QzxZzD6/gRvM8latVj+tFpzHj6B+HgO+KciQqk08kbx5VorKiTdd/UyjDf4YKZC2XR7KU6eQB+JkenSnxEIl+2kg8k0tTRpH8nBB4bHitF5ryC9EJDGOlKNNfN9S9WFSvR8Dz4+m7z0ubJ+nmbDNGsU8uJSKVDNA6AT7KxgDlMOBTN3m3IoaG9Xgd8f7kaPFjMbonRSZISk6Jy6OGPD9VX4Aleh1Dq2+o0UhIXkaC+mPS4meozqm+vUyJ66NUW7de0Vqt04EGON9YQPycS4XDvHjzqU/KHaJBOWDQQjQW+B1bT4wheMWe1LDRkw5iHaCB1fDJMCHwHJZXnjWVTZUi8Uy0aiCYzKVPlarqxPCkzAhlBNFZ0y5tomFg4D7lFSsSshNky3bTvwIGFfskGMMvxYEZMi1ISqTaan9C4P/CeJEM02xa8Iq8v+Zkhpocqi3xaReZ5RVIRjQqZOlVnQgZCQlSStsms3WUGgK+6KxNZUkG0rMrff2WPHC096FM6YdFANO+u/FBW5KyWxMgkQ9T3pd3ctxZjwfTc65aqlgq5fKdYzleck2asGkNGSCcsGogGh3CPsWoHkk4AotlauF3W5W+Q3NR8CZ0S6lg0Dp7CgGTDA6P+GzNLEb2APHqMzPEnqYgcofOJGlEyIjY8Xi2hjt52lUDeFo4lqe713dNkP4gG4og3ls6UKVPUumnpRFI9jYkoqVwWzQO5cqdEDpfu10WrNxtuPCOd+L4KZxS5nekvSpz5Dlq7WzQB78zNU4acSuSGkU7X68rkVuNNJS7C3pZ0mpc+X9KMRQPRXK8vG1A6zU7MMu2slg3ztsic5LnqG3KIxoE3BiQbCziKsTaiw2L6lVQM+Pz0An3oMuJn64MYOjVESaO1q1UtGZ+SyhAK0okHHmmUppIqXQnIJal6n2lrIkkq7hH3jkS6Q6X7ZFfxV3Kr4aZ0etSkcUmnMA1fbzJE89KCVyXRkDcOZKTSl2c/lTO3ThuSuaYkw73jbxCIp3SCaPoePrAtnSCabYWvSOHMIiOJHae9A9+wTTbAjqSCAMjXME++xBhrA18MldpSYzLMwGjXvBpfVhGPMYRCWHbq5CmGaDKMpEp2Wzqx+vpEllQQKkTz6anfq0VD5IjXPIFFA9G8u/IXsjLnRSUaJOyhK3vlT4ZoqpqrzD2+9xRpWFGn4UgnLBqIBn+QY9E48IdBkY0dScUMDGlgkRAujwyL1GxhHnzCrMgmv5LKWC4Qip7/4J7m0qikMhYLBMTrzZ1NLmbywHiWVJ7SCYvGVe/n6UWsntIJiwai4Z5htRy6sk+OXzsi1+quKtF4WoeeUafhSKe5Kblq0ThE46A/DIpsLNiRVHcNATUY+YMFBDElR6fJrMTMASUVloslqRgwHK4o1Qw9DwuG8yAtT4xHSeUtnfaUfPM46dGCb+mUrPcfwvj8zMdKNJCIt0UzFOnkyiiONues0rYc6eTALoZENsCupCKkCjFED1JSYRlRTItrEw53hWsTNEyua6kMyTEYvTGeJNXQpFOyWnk4kL8w0qmyqVItwkBJJxfRrJb18zbL4sxljnRyYBtDJhs7kgpLBwLCIhmspCK/Bn8DA4W8G/XdRLijVGaw8Do5It7jYTxIquFJp7tKNN9dOyxltaXS61XDZjjSiUWz8zIKZFvhdikw7TIBOETjwC6GTDYWgiupHrkS/8y5tEGuCPVzWOLAeSQE9o4zSTV86XRBLRqIhpXYgZBOkDaZ5EQZX8xdJ2vzN6k15MDBYDBssgHBlVQuhzOSSiVDwmydUVniMB4lVWCk023z/6eT/IYjnSCagoz5smXBdtk8/yW1TiEgBw4Gg4CQTfAllSsLmRnfFaVKUeKA4Ezj40JSBVI6eZf/HK50wqKBaBbPXmbOzXCIxsGQEBCysRBsSdVsCKXBSKf4qAQzCJI0SsX6K0tSMTDHoqQKlnRiQS3Ro+FKpzV569WigWgcOBgqAko2IKiSygxKrkV5itCQaVo6AdLhfIp0Ix+67neNOUkVLOkE0fB5WfXNsgVHOjl4ngg42XhKKh5Yyn1ioiNlLAxLUpn/k6LPrE+ZymQkVUScIY94mTwZScVaqpZnBtBolFTBlE4QfVxknJFOi2VeRqEh8lQlGjvSCUtobmqubDPW05LM5Y50chAQBJxsLCCpYsxDy+wKcTQaSQVReD7cQ5ZUhoxI/ENSJUQlapSK5Q0pOqC63ZUFn86WBaNJUgVbOkE02Uk5WsAqw5AF94LCWaU1l3UBJv/nfVii1hFi7jtlKXJS5qgltK3wVU2mdOAgEAga2YCphkQgABzGFMwmfZ4B74mhSirLOkI+hISEyqx4olRJOitTg6eyuUKJx9fMPRokVbClExaNVSkPCsKBXm6sGixNl28NB/vTR5KxLDOTsmT9vC2yad42JWOu58BBIBBUssH0nmZmZg4ecNe6px4dIBYs0hiWpOrrNaR131hGqSqpGDjsDkBEjO1KvAnneUqqEZNO6fPdPi1SBFwr6fk9O3muFGQs8HnMN+3Nzygy5xZKevwMXdVNXxw4CASCSjYWsBywcCAEqsFh4QRKUvF/FmdyLg5QZv/02Bnm92RzHpKqbtRIqpGRTtmyas4aYxmmqSzCl5Vs7v1MY/nNiJ0tWQk5khmfY37OeebIjM82kmuWRIZGyY+PftS+WMfzBvfu/v370tfX9/hnf8fDhw9HVf8djBDZgBAkQfwsTS7r6GkLuKRiS18S/yhlCkm5olRxRlJFqNzAGeoLIympRkI6QTSJxoLpMuew3xPEBXmHTAqVmpoaqa2tlfr6emlqaur3aGtrk9DQUJk6daoWMXvegGDGcv8dmEnRzBhPa4wgw9/eRp7ITMySxbOXyubCl2ROSq46La9UX5SjVw/JCR2kNRqy9QRyiJl8wcxFsmYuKfUbdaCx2+b+y99qhbryhus6Q3oj2PtS0aYlnb4vP6bFyZFOnnKS2RerDum0OnedrM/bpNYWBEuJCKRTceV5JVVv6RQbEWvkzwKVTmyNA7ESdUJCYh0VpC+QkAfTZMeOHXL16lUdjAMhMTFR3nzzTcnLy9Pfnzfo81juv4MRtGwsBEtScf4TSVWvFgF+H61rHJUo7MRJ4h8kNZKSCqIZSenEda2EPbZngXw1Y7i9V373u9/Jrl275PDhw3LhwoV+D6yIoqIiSU9Pl9jYWG3zeaKhoWFM99+BMQjcP0cUOIDJ4cByIXFseuizVfjbe9pl78XdagFdqS5RKwAn5htL3pEVc1bpAPKFvgd9Um2k2McnfyfflR025NRrLKVs2VTwkry2+E1DdrFmmPoG2w3vOPuF22lb7X51eIDAkGlIJyyaxvbGZ6QTpIo1hXTCooGQkU5YNB+d/E+VTlg0nkCOIp2waNbmbVTphEXDBnIk7FGb2LWd8Ygarg4c+MVzIRuiHJSKYK3N1gWvqHRgDY4nGJAtRgawLew+QzqX7lxQq2a2sXC2zH9ZZ3J+x8fhCfXfGILBf3P8+lHZd2mXWk+EgDlnY8FWyU6e45NwWH/FeQcu79UBi+TDuTwU0A+ia9T+3V3ylZy7/YNKJ6woS8ph0VhRp+2LXtf7gVWFdbbv0m6VTrcbb6pF4y2d4iPj9f1IJ+5lp2kL6cROlVhO6qMyzThU42C04LmmhWJxrM/frGtv8M3gO/HOVEUSHLl6UK0UfDwIiKVZK2Rd/kbzc7l7G95nCYfdGpAgu4p3SHHlOZVPOaaNbQu263nUxyGRzRsQzg83T8kx097ZW6eksaNh0ISDnCOszk6ix8oOqXSqbK58xkeDdMLHgo/mZWPpYa1xHv3eqf0+/xTRWNIJHw3SaVnWC3o+0qnCkCSWGWudVG6NrCvOgYMB8dxz0IMpqe713ReKfH9spAiDHgIiz4S1Pq8aSwK5EgxJRV7Q1dor8h/H/tVYSd/alk5YZFhjw5FORPI8/V8OHIwWjLiD2BtYMpSWhGQCnfhnOY0773WodfLg4QPd8J7cE3w3vIMBTtTGG8idwSb+0RYb/J+9ddqQzB7X5m+dzU8Rjad0shL2SLYjw/rI1QNy7NoRuVpzRT+/t3SyEvaInM2In6mLUalayN+mTwuX3LR5GsXLSs7RtU3zDHkXzVqsJTl6u+7JkSNH5Pbt23L37rPpA97AqbphwwbJzMwcFQ5W+jyW++9gFJCNhWBGqSCZlq4maeioN22kae4OUSr8HkgOolS06zm4wWCiVLQJ4VFcHKI5eGWvfg7Pa3pHnZBOyECI5tKdYvnizKdKNN5RJ/Vxmb7mJM8xknODsc5ylPx0e2RDuinRqYZc8mR59ko9MpOzJT+tQPLSCyTDtIU87WjvcMjGwXPFqCEbENTEP/P+bmMtVLVW6IAnl4fwMvuYQ1ZcE0vGF+wk/mHRQDQfn/hPuVB5/hmiAd4JexANlhUWDURzu/GWdPc97W+BaKLDo41Fs0hezF2v1gvZwGRJx0cmSYL5/JCgltkwn4XPhrVHmY/Y6XFqMUKOJLkFY7DSV0g02HDIZuxjxJP67CCYiX9hoWGy0EiLNbkbdPBOMa+x5zWJf+dvn9GdIn3BX+KfZdEgnfALnbpxQmWZp3XFYMQa80zYQzoh776/flSd0ReM5EIqQooWICeIpDBjgUaeWLuEDIw0ZPLjgx914N25c0caGxs1Rb+9vV3u3bsnMTExmjkbEhKiv5PU1tPTI//2b/8mJ06c0PMGAoOUeWj9+vX6e39g8NMHDvrQ3d0tXV1dumSAz8Pv9CUsLEzfz8+oqCjtW2pqqqSkpEh4uJGo/WT60ue///u/1xwbO/2fNWuW/OY3v5GCggKZNm2akm1HR4feB+4V/WJSo19xcXGSlpYms2fPVmKy+umJzs5Oqaurk+LiYr3OQOBzcd84uB7ncy4Z0Pw+ELg/Cxcu1OtERka6X32C3l4j/1tb5fr165qDZF2T1/l8ERERkpycLBkZGXpER0fLgwcPbPfBu/+BwKgkG8Aq5b0Xd+pAJEEN5663pRBvZm+iS0iLwhmLdBYngrTfyJhT5SfckaSnCQdQZyczKVveX/lLtRiwVq7VlsreS7vlSOlBtWS8HboWlmevcO+hvUatCXxBWDS7LuxQ6YRT2pd0gpwIbyOdsIz4fEinj4wlhGOXKJgFK+qUGJ2k2xhvmLdZclPnaV2ZiGmR0t7WLpWVlfL9999rAlt5ebkOIh46BgIPF6n6DDKS2rKzs/XhO3r0qFy5ckWqqwd2ePOQ9Uc2tEdbPLQM/mvXrmk/6ENLS4sOBB56HnD+P336dB1AgAcfAqRv+fn5evBwQz4MLN4LEXhisGTDQHv//ff1mvSTJD8yjyFG+m6RDW3NnDlT+7B8+XKZM2fO40RACNsCA/TcuXNK2FxrICxdaibCzZv1gMw4n3O5hp3z6cOvf/1rWbJkiRKhBet+cg3uN98pP62saotQ4+PjJTc3VwoLC/XgmeD7+Pzzz6W0tHTALGzv/gcCo5ZsGOxIk/2GAHYXfyU3zID0dBoDlRiGKNbnb5KthnQKMorMqz9KRdNt2XHuM0M8P+jv3sDCgXDw97y26E3dQpbBfbXmsnx37YjsKdkp1MvxBSwcVlO/sfRnalHdM2SGdCqtuaLn+JJOhKeRTq4avuwM0WsIcbfsNASFdKK6oKdFY0mnJeb91JWZk5KnO0pQbvX+vfvypz/9Sf7whz/orMbgwZrhfB5ErAlmawaSWlTmd0iH/0MM1sw+EAYim5KSEn3QOW7evKlWDf2gD1Y/eLQ4+D/tW5YLvzOQIURmTQY2ywpWrVqlB4MDcvTEYMnGslhoh76wtsq7X9wfDqsftLls2TLZunWrvPHGG08tc4Dcjx07Jv/wD/8gFRUV7lf9Y+3atfKzn/1MfvrTn+p1OOcf//Ef9X5xrYGAlfW3f/u3eh2sNAuQ+ccffyyHDh3S74Dv1LrvwLIm+dx875ApR0JCgv6f74pzrPf7g3f/A4FR5bPxhBWlYr0TdXEovoVPBWevBQa2FaWi1ESYGdhEqfDhDBSl4joapcIxbIgNxzEWB+c/NP/nur58P55RKpYDXDdWDT4apJO3RdNv1MlYbBAUPhpPouEcllcs1DIRBUpsaXEZ5vPESGd7p3z99de6RgirBrOeB4eBBIFYDxoPEv/ndcxq3sOMZ5GSHfjzeXCd48ePy86dO2XPnj1y/vx5HTzNzc0qlyAz2rH6ZPXL6pNnv3g/8oaZmoPZn8HEoEdWecqHwfps+Jxcn/7yk/asPtEX6+D/1j3CGqM//I5lQPtYYYC/3bp1S/bt2/dYtvZ3zJgxQ60lZByfhz4fOHBArRA753POunXrHks7wGeH8P74xz/KmTNnpKqqSj8b99s6j8/E/eZ3Phefn77z/dAuv1sTTn+Hd/8DgeeeZzMQspJy1MexaNYSI0XS1ffBQPaEJv6VHpDDZhBfvnNRk9wWZy4fMPGPqE9xxTm1MJA0bP1LRu7W+S/LYtMeTlasDG9YiX/fluxS6YRF4+2jQTo9k7BnyI12aA8fDdexBv+TqFOCRp2WZr2gznIsLkh3svkHuTCrMbtjBvNgjSR4qJFgX3zxhT7wDH4Igod6OODh5rrfffedfPrpp/LNN9/ogks+30gb3vjAIFNIBWIYTUCqQvA//PCDPguDgUU8ENHzwqgnm6mTQ1RC/HzFh7rla1J0kk8CIAqFv+XLs58ZEvhGJZidxD8sGKQMvpMT5UfV6qFm7+bCl2Vb4Uvqz/EHpJ63jwZAiL4S9nAG0w7t0a4nIBWkE87gNbnr1R/F9amsh5VH6BpT3O7MHgzgJzh16pRKATtSZihg5v3oo4+UyPj9eQwOHNwMaDtyaSQBIV+6dEktk7GIUU82WAnTpoZJRvxMWTVnrbxc9JqRFrPUGewJLAvycFgdzQJG16LHhoHXUmFu3+9SJ+13ZUfUUiErl6UUa/I2GrLYoOf5ArOuP+lkrXVCOuEMxkeDdFJnsJePhnNwBuOjQTqRcIgVhExjEz5ygJiZMPF50OxaNGh1Vj6vWLFCf/L/4YDBd/r0aZ1V7VgzmP9z586V1atXq0mOg3ig2jJYOUgpyIz2sKaGAnwW+Brw/6xZs0Z/2vU90CaSCdkxmoAU4p4gB+3A8/Pj+MZn460KRhKjnmwANyhkSqjMn7FAthf9RCv++5NUhMkvGilFJIvwuS1JBeEYScMiRiTO5eoSvS7LAnAeI+EoxIX14Q+8XxP2DClS+9eSTlgml++U2JZOJBtiBd1uui03Gq7LnVbXdisQDA+ZJ0n1Bx4sohg4O6nrwk/+z+tDBRIDp6TdmRV/w6ZNm9TJiMMR/w/OWDtAJuLMtDuwvIHDF4KjfRydL7/8suTk5Lj/2j+417SPP2Q0gf7Ylc844SEYPjeff+XKlRqhw3H+vDAmyMaCXUnFZvpXaq5oJu9gJBVJf1geLkl17LGkYqX4xoItGvnyh5ApUzUHhr6xFzbSCaKjWBblLuxKp26sLM+1TkP0WRA6ZUZ777335Fe/+pX+5P+8PlRgWWHKY33YARbNX//1X8sHH3wg77zzjmzbtu2xw3UgIBWRbUMlG6wqSPbDDz/U9ukH/ZkIgGiwYokkWvef6BoOZ185OyOFMUU2WA92JJXL+dsl5fXXfUoqDgY3Bwl+XIN1T8giLI8b5jwkD5IKgqAkxbq8Teb968x7Z7tbeRr4dmabv+Wnz9cFkq3dLUp2rFZn9TckYkc6Xat7UiZCM5pNn4ZCN4Q6mcnJryCHhZ/8n9eHChyMg3FME9EhxweLilwWLB27lhVkMxhi84Ylo5jNSRokukLOzUQA1gufm8/MwefnXvD5n2eJ1DFFNiAQkmpL4cvy0oLt5udL8qIhkAWzFslMQzik+7sygjs1m5hEPVZ/k+5PxbvNhqQWmvf6klRhhgQjwiKNMKLdpsfSiXo8LF14aFM6eZaJGKpVA5jBeMAYdMAafMOZ2fBlDCaiYeX4qMQ0sgarhlnXDgg/P4+I23hAIL7rYGDMkY2F4UgqdmGYZ6QLSX2FMxfKxnlb5fXFP9V9rS24JNVNLU9xqvw7HTAW4fiSVA0dDYagCKN/Kb8//n9UirH0wXu9lS3pZIhpaPaMAwejF2OWbAYrqRjEFNFqaKtXqcSiTZYZNHc0urKCE7M0ryUu3GW1YOGQKFhed02Olh2Sw1f2qfWBpKKWDNEtnMEWKEfa3NEkP9w6JWeNVYR0wjlsWTQWSFLMMJYM5/qSTkTCHKJxMB4xZskGDEZSkbnL/tZNnY3S2tWsW/QWG2l1u+mGRnuQQLpSOiL2sYUE4bT1tKukonJeqZE4/I31VJvmbzU/FyphWJIKmXbLWEPVLXeekk6emDyJbVciVTuThYzj2Kmw52AiYEyTjQU7kgq/CxEjlhuQLIffobO3S5PyBhre1PfF2fzRyf+QkzeOy2RzLXJokFSE1PH12AWyqqSyRNdtnbl92lhNrtwbRzo5GO8YF2RjR1KxForteLtV2jzQNVCLM5epLCIyhORhfdPdrmdXfKukMpYKkoro0pHS/WoNsRCTGsqr5z4tqfoDso62Kpoq1JqhcJcjnRxMBIwLsgEDSSosGmoZV7dW6a4NUzXTd6FWsoM4qszgZwsYdpGEXLxhSapzRlLtRlLVXFaSWjR7iS60XGAkFTKMEhCRHO5CVt5RKwsQG7IOP5A/6cS5U+i/+/8OHIxljBuysdCfpOowZEEB8u/KDsn12lIz2G/LzcZyI2vOya7ir6S09rK+rz+wBqustkw+IUp14/vHkmrL/Jdkq5JOkRTNWmheW6x5N9Fh9pLYfIEFmC6f0LNRNgcOxhrGHdl4Syp2l0yLTVMrBOumprXGkEuxRpgOXt4nh68cUNKg7k1Hz9MV2NRamhoiUdOjHufWYOFYhIOkOnb1oJFdD2Vuar5sKNgqmwq2aTEvimttNOSzPGelZCVlmz7ZXyZAO7HhMZrstyxrpUbLxiIo7PXv//7velC0iVXd5M84mJgYd2QDPCXVS0Wv6U8WRAJkS2VzhZy5eVqOXz+mRHP5ziUlEO9FldNCpmmYOj9tnh4x02PUSoJwWPTJxnMkDFY23VL5NN/IskWaEVyo5EPhqxU5q5U0kFR2ANHgcM415y/LWqFWU3jo2CQbVk7/8z//sx5snUs9F5ICHUxMjEuysYCkYueB15e8rYswp4WEarkGOyBylRaTLu+s+EB+vfG/ywerfyXsaxVjLA4L7cYSooLg94a0qPLX0tkkdXfvKPlUt7gWUGIRkb/jvfjTH6LCIg3R5Ml7q34py7NXKWlCfGMRrN6mDCkHtViGs9bJwdjHuCYbBil+D6JGFDhH4rBMwJ/TFnAOxEBx8VcWvi5LM1/QDft5nbKkEIgFolZEkogoNRmiIZeHQuvX6kqltOaSWlHTjVXCoky7fhdqDVPilK1YcDiPVaIBrGtipTIHK8VZ7uDkEU1cjGuyAS7/R5wuS6BqHr4Qf9YNA1sr7CXMlBfnrpNtRa+qZUQ9GhLvIBKWFnjC5cNpk07Kj/b16EHUC5lFiP1x7V2bnEF50ry0+RJhpBQJgA4cjBeMe7KxABk0GAuERD7vPBoLWmEvLl3eW/lLjWQRSaptq5ZDV/bJn858ptbLo0dPz8wPHvbpEgh8Pmwnw8Zwmwu3y3ZjFUWHx+r+V7TrWTu5P5RUnZOvzn7mOsdPPx04GIsY92TDVivsQ3X6xgn1rVAA3duUx6LBGUyuzCsL35BFs5dqBKii+ZZ8W7JT94JCKiGhvJPviHA1tDfoUgZC6PeMdLK2B77b2SzldWW6yyVF2e2Aa7FSfHfJV8aauqiEM1alB8WyqKkylIPqghS/CtSeRQ6eP8Y12UA07B3FXlLUp6FIOYswPeHaxWG61qmh3MS2Ba9KYmSSGfT1SlB7L+6Wa7VXn4pUeQIZRSIgMovaOWWGWCqbbmvEC78Ne16x4BP/jR3gF6psrpQ9Jd+Y/p6Qpo7GMWvhUJmfollDOV599VXdxylQlf0dPH+Ma7KpuVstJ8u/kx1nv1Ay8AWcwTPjZ8r7q/5M1udv0ezfO61VmvyHdKI2jT+i8QSEQwj9jz98Iv926F/M8b/lS9NucdUF8zf8N/YLd0Muje2Ncvb2D7o0AmtsLGL+/Pk+icTO8corryjZsKWLg/GBcUk2lnSiPsyBy3uNpXDbp0WDM7ho1iJ5ddGbWmcYC+dW0w2te4NVY0knbxDhosLf+vyNxhpaq+FtpA5tUBGw1pBcTWu1WiWsqcJfMxgpxHuRZ5xPDeI+H30YC8AqoWIcB1X7IA4iVOxeMNDhRK/GH8Yd2QxGOlEmlAJW2xa8omHmurs1cqr8uOy7tEeu15X5tGi09o2RXOzC+driN3XRpxWmtpvDA6ZOmap+ov5C2/h/uno75KENy2q0g90Y6uvr5eTJk7pNy0AHW8aUlZUNe08qB6MH445s7EgnLBqq9H2w+s+0EBbLGyqbb2k1vy/Pfi6ubXR9z6hsYvfm0rdkw7wtsjRrhS4n+PDFX8mKnFWDShqkQh8r0+0m+411UCyd5Qv/9E//pNv6DnTwvi+//PK57ZHlIPAYN2RjVzpR2BwJxB7fC410Ys0SW6Z8e3GnnL55Urf5RcJ4A4tmWdYLss6QE8sIUmJS9dxQc7A0AdKykzTIOayVKjJ9oP4wBbiSo5Pdfx2/QD6xLortYNgTaqCD9zk1iMcXxgXZ2JVO4dPCJTMpSxdKsh8UyX6WJbT/0rdaIMuXReOSTpmymT27574o6XEzNWmPGsNsIsd6KcLlbEzHOqj+JBULO9Pi0g1B5cmCGQt1GUVWco6Gyyf3Q1IOHIx1jAuysSOdpoeGSWZilq5xwk+DfKkwltDBK9/KV+e+kNauVr/OSKTT60t+qqvIk6NSpa6tRj47/Xv5lwP/S/7j2L/K1dor+r681Hny7qr/1q+k0to5zRXS1N4gk8zfZ8bPlkXGyqEuTrhX/WQHDsYTxjTZ2JFOUyZPVquB1dM4dNkhYeqUEM192VOyU62gxo7GAaUTkgdLqLy+TItnnSx3rRa/bMiNLV8oWE54e05ybr+SishUS2eLlJn2ycGhXZYozM8o1NXpE0FSOZiYGLNkY0c6QTSUfpjDJnP5G3W/KLZgqW6t1E3+9192SSdfFo23dEqLzdD22OFyV/HXcqO+XKUUzmQ2sztWdkh9P5BLf5LKVRbUtRHeGdP3qpZK/TttLTbWTaAkFb4OVljb3a7XDtiPaDD7RVPnmX5wfzkG05fBtuULWtfZ3Tb9sLvfVSBgfV5++vp/MEE7fPejzd81ZsnGnnQKl+ykbHnfSKfVc9cZIpgqNxvKNWFv5/kdcrerxe+X/4x0ulsrn576vXt3zSdZvZAHRdNZ0vDxif9UiwkMJKnIFCYX5+jVQ1JWezXgkmq4O0r6Ajsqsn2v3f26yZdpbW3VQU4/yJ2xSzhsnzuYtrxBO7RHu7RPP+jPSIHB7vl5ec74/0iU2OAz890TARxNmPJb4oxjCFg0WANIp8Nm4JfXX/Nh0VCAykinTMp1vqz1iJkhIZr9l/bI2dundbsVX/krWDREq5BOLxiiSIhMUul0qHSfklvN3RrdssUTrJfiNfaZ6rnfpREnolXxEQn6O/1h5TjveTzTmX/ILtZMWeufsIKwxIiYQWKcS/2cJVkrZNKDyfoAHTp0SAfOQOAhJymOVefXrxsr6swZOX36tNaVIcozEBjsGzZs0PVN/A44l6OxsdHWoMEygfQ458SJE/L999/bzp0pKirSNVKsjyIZkOuQf0Okyk44nO+be8B7Kysr5ejRo3Ls2DE9fyBgVZGEuHHjxsf7g3OdiooKOXz4sK32AZ8T6+Ly5ctapZA+kGtk5975uv98ftofCDxLECyTA/eBOkLc/+PHj2uUz077tEsGOEegloyMKbKxpBNrhiAapJO3r4WBzZKDOSlzDdFs12LkDFpky/FrR2Xfpd3GorjjtZzSBUs6bV/4mhIN0ok1UhANa5XYRM6baCzwBbP+qarltvYhMSpJkqKSlXQSohKlvq1WyUgLnLtb5yf9Z/8oliRANtQchqSInFGagm19kWWhk6fpIN+/f7+0tLTo+f2BWby5uVkf7vPnzyvRXL16VQtaDfVhh+wYuLdu3dJZeiDQPoWzGGwk6V28eFFr21iE6w8QJIN869atukc51s1gyYbPSF8hCD43g/TGjRu2PjuLP9mjHLJbvHixvtbe3q7Xs0s2vJ9BXltbq/ceoqXvdu4b8HX/IUuOge4fgGy411VVVdpvkil5DmjfzvnBIJsxJaPsSKcIM0hzUuZo1GnV3LUqX64baYN02l3ytdztueuTaIBd6eQPgZZUuSn5kumuX8wDx+b8zFZ2pQUP1qVLlzSZDouCB384UgJZU1hYKNOn25N4tEWbtM3Aoz8DySiIhuvTVk5OjlpHQ4EloxjgfH7at/vZaZO2k5KS3K+49i2HhAbjQ7LuP4QbiCqFDHosLq2PZAO0CcmRHMk9sHP/g4kxQTb2ok5TVHJQWY+1TgXphVqvinKdey/u0kWNzZ3NPuvK+I06lXyldYaRTlggdmYECIdtWkprrtiOUnGORTiXqy8+jlLFmH4g47CGHv74QBISEnS2nTt3rvvM/sGDxexGMh0DjYd9OE5SrIxVq1bpimzkzUCgLdqkbSTdQA868iUlJUXeeusttWwgVrsDyxdoDynD56d9O5+dzfiZ1Tdt2vTUfY6KilICTEtLs71hv3X/OQKxzos1Zrm5ubbLbtAmfhtkM/fgeRINGPUyyq50igqL1tq9RJw2FmzVQlg36q+5pNPlPUoYvjAU6YRlgsyJMZInanqM9gfCsMBDFQhJReFz6uKwdxR5QeQK4b/gwamrq9OHxzrsAKuBBxXLgYHX38Pvy4ynbQgvLi5OCQSJxozPdYYa+cBS4BrR0dE6kBctWiS//vWvZdmyZfqaZUnYkVG814picQz0GS1YfYBEsGhefPFFeffddyUrK0uvB7AmeR8SkqLtfAd2rz8U+Lr/tAtxIactf9Bg2+cZsINgyKhRTzY4gyEapBPOYG+iAfg58tPnyfsrf6n+DfJortZckr2X9qh8autue4oMPIEzGKJBOmFFQDRIJ+QaRONLOkE0FD/fMG+zEtQdt6X1FOGYf5AAjuH6thpJi8tQXwykkxqXbiyZbiUj3mMRDrCcxpzHmq2k6BQXSYSESeT0aEk1Mz8WBrMss5ZltQwES57MmTNHZ+yBnLy+HnbA4GOGpf3Zs2crAdG+HaezL0AKyBUsGSya999/XxYsWPDYuTkYsrEcu/SLe4Qj3U40jj5wHv4Zylt88MEHMmvWrGdkE+/j3kFM+M3sXn8o8HX/6SP/Z/AjiSD7wRCe9QzwmQay8oJBNpNMR4NDzcMEFg0+GqQTeTT4aHxJJ/JmkEBIlBeyVxm58VCXERwwREPFu9tNt9zvfgLrvIKMQlk9d60sz16pPhqkE3k0+GiwhJA23kgwEogC6psLX5K8tAL1pxwu3W/6+Z320YosWaAtrBT8NfQRMgTIK3Jz8O8guzzr3WA5sSo9J2WuFM4oMv1cIDPjZxniSVZLp6ujW2qqa6S4uFjKy8vVCYrzFocssx8DABJjUDBoExMT1WpgEM6YMUMHDdus4MT0BwjgjTfeULnE+d5gwGNdMfjpAzM+BMYghAABsy9ExGyMDPEkLSwF2qBf9ImHGyK0CMxbPkFmO3bskNLSUr/E5nlNrBT6RvSFfkLMkIPVN/qClcZAgjhpnwOfFIRiWTKe4HuFoOkDzlaifDdv3lS/FPec+wkJcE0+A5/ZIk3O5TW7loW/+8/1ie7hbMcfxHfP5+J7tyYQ6z5ALBz0gb5w7t69e/V9A1miEJ1VW4hrBQKjkmws6YR1gY8G6eQN1iNFGcLIT8vXUp7UDGbA4vM4bsjp24u71TrwBgMZn8lcQxivLHpdt+BF5uAMxkeDdMIZ7G1BWQTA4F+TR1mKV9VS6Xt4X0t57in5Ws/lOp4hbsC5OIbx17yy6A3dE4q+ljdck09O/E79O66V5k9bX0i8dGMRkZA4NyXP/D5DCYdaxyGTQ9SCa2lu0WiD9eAx21mOQEiFgURkBa3PQLJmRSIz/PQHHlisAx5SrtMfLN8ApEP0wyIDBoBlAVjWkAXLykK20M5AoA0cngxofxaZZdlwWJ+TPhGN4lwI2eobbUJsvBdyoS/0yS4ZMFj5bAx6HMC0RaSP+4DM5LqQhPXZ+D54nQnADga6/9wP7ivtQ6a0zWelH9a9hWSQotx37g3f+d/93d/pxDAQtmzZIu+9954Snq/JZigYlWSDM5jMYKSTL2cwSIiMN9KpQN5d8QvJdVsYljP4yNVD0t7T9owE8hz02xf+RHKSczWnxZJOOIMpyeltnQAGPtJp64JXZH3+ZrUwIDze9+BRnzmvQvN3Pjv1B83h8UVWkBxZxewJlZM8V62esrpS2X3hK81CJpLlSTgWwUE4WG3kC0Gw+KOohZMclSKhU8Lkx4euhDEeQAYBDzZgRuXh5mG1fDUMJv7Oe633+QLv41wsDO8Z3hvcA8xyLBlmeEtacH36w9942D0HGte3+mVnANIGJMM1/fWbftIOfeawPif94lz6Zc3otMmA5v30gb7YJRpgfWbuO4fnZ6Vtruv9me3cSwsD3X997kx7tG19Lus7te6tdR+4zs6dO+X3v/+9hs4hxIHw9ttvy5//+Z9rQADSCgRGFdnYkU4M8JhwI52yV8i6vE1a7oGBTcIeuyD0J5085QwDl4FMzeDBSCfWWGUmZrv/8gTsH0WFvuBKqgWGrArVGT558iRzv+7r9bku1k5kWJSSIpnSPKBch10luu91GxJ7aAgyVpIMQUF6DiYGsC6RzJ999pl8/fXXagFZk0F/+MUvfiF/+Zd/KQsXLrQdfRsIo8ZBbCfqRHU7wtvkw5AZvM5YGAwqVl0zWA+ZgV7XVut+9xN4WhVvLv+5SicGMJLHTtQJCwrptHn+Sxqt8gWsDaJHabEzzHV6jbVUJ72GuPAhWYAYhhulIgI2bWqohvBvN90wJHtd12RR6oI2kY78rG2rkSpjpbHrw5WaS1p5EKlGVCs2PF7vpd1Z1sHoARYM8s068J35O5CM+Hc++eQTda4jn/xZhd544YUXZO3atSqh7FiedjBqLBs70inJDE6cuu+s+FD9HgzwS3eKNSv4WNkR3RyOjeE8AWE8lk6LXtcEOyI7VsLeUKSTP3D+SEgqrDm2nfnR/B1yJcRfUlWiJEX/IBH+EediXyssHPrG/VqTt05r+RRkFOnnczC2YDnK8UP5c5Rb4O/4qfBXIZ2Qk3bxm9/8Rv7mb/5GHenIwUDguVs2WDQDrXViFkbKEDXaYqQMlglWCPsqHbjyrZEh59UqYPB5ggHMoF6bt0Fli2XRIJ36W+sEaA+LZsuC7SqdsGgY8P2BQW5JGqQO/aaOMBaFZ3ib32kzEGupIE7ej4xr626V+vZ6txXUoT95nXMgInbzxNoi7B4bEWfuRbj21cHYAdYM/heWH5SUlGjEzd9BpAyywalu+aoGAv4rnMssFcFfg1UTKAv4uZKNHenEbEweDf4KZMwaQxoMPOTB0asH1Rlcb2SDNzyth2BJJ38YKUkF2Xiupeo1n6Wt+64hI/+5F5TFoH4PC1WRpNwjPrMjqcYGIJvdu3c/Jhpf8sk6SDsYKJ/GEzwDRMzInib0nZeXF9Dn4rmSjZ2EvUQz8JAMP1/xC92vG+uluOKsJusdLTusg857YDF4kE5YNBAN0skiGrsJe1g0EA3SaSCLxhc4hzbjDBHERca7pGFvZ1AS/yi+RT9pD+JirytfW9BY4HNDZuFGRmXEzXh8noPRD0hkMAtSBwMiWKy/I6lxyZIlSjyBxHMhGzvSCesgOTpFM3QZ9OS3IEmI8kA0xZUXNGTtTTQMGk/pREIc7yEsfrTsYMClkz88D0nlWZ6CvaZ8+b0Af0de8T1wXZccm6733MHoRqDJhkgT69GQTizT2L59u1o15OaQGhBIjDjZ2JVObPzGUgLCzRS+YnDhozlmZBMWDUTjDYjBUzpBNAxWyOzI1QNy8Mq+oEknf3hekgoy6W83T15nYSoSlHtGHzm4F46kGr0gA5pEPvww5NPgwB3sQeY0WcEWyVA7iL3VX3vtNSUbrBt8N4HGiEej7ESdUo0sYIuTt1/4QPNLwNlbpzWP5kT5cR1ckI8nGCTeUSfeQ1iYcg+UbiCHJRBRp8GC9kY6SnXxTrHeMyJt9/qeteIApIL1lBqbJtuLfiJsuEeGcsiUibGX1VgEZEO5CLKGraUXgwVZyVamNaSCBYOEIuuaYzDJh4PBiJENFs1ACXtYATzsL2SvVAlE0lu3eQ95NEgnSi9Ut95xv/sJGJDM7INJlrNgJ2EvUMDaCHbiX15qviSae0heTUnleSPBDMH6KKthgYcKYqXgOvV/WPaBVYccczD6QFQJ+WSt+h4KIBhr/RbEMlIYEbKxpFN/a50gGmb1JZnLZFvhK/JCzmp1kJ6vYHP9g3Ls2hGNtHjD0xqgQBV1YxiwFK6inowvawBYA9R7rVOwEey1VPGR8TIzYbbUttboglS74P5nxM+Qn6/4ULOr2WJ46uTAhT0dOBgRn42dqBOm/GIzi7+1/D1DHPN1UJ66cVzJCemEb8KbF61B6Rl14j20gXS6YGZ2Nvb35bcIVNRpsLBILlhRKpZbNHU0KjH7suT8gevgS6povqXEk26sGydK5SCQCCrZ2Ik6kT6fFpsuK+es1qJX89Lmy93uVjlnLBqWH7CKm8HjTTQMAiwa76gTcoM9uyEa5IYvoglk1GmwwFKg78ONUkEIvX1ElO4/lkmcA8HwmjfRYPXgcJ+bmquk1dZz9xnSx2kN8dEfJ0rlINAIGtnYiTpBNAmRiboF7UYjGZBOPOTnbp9Wwjhz67RGTBicFDFnxXOMsUAip0dJojmPgfPmMqJOhfoeyIzzkE6+LBoIJVhRp8GCATycKFVKTIoSNz4tPqsnUXmDz825rxlJxo4TWJF1bXVqIXl/J9wzzyhVtCFEav9Akvxz4GCoCBrZ2JFO+AhwBv90qZFAafN00B29esCQ0z5DOGfVocqAg2gWZy5V62d17jr9nRova/M2SXbyXCMnHo5q6eQPw5FUEE528hx1MON07r3f6/Mzg+nTpsus+Fny8sLXJd9Yjqkx6cbSCdclDTjtvUGblqQi8W92YpZODM/zXjkY+wg42diVThDNqjlrZMO8rZKblm+kU4uGaiGaqzWlGkWBaDDlibKQ3JeTkispZlaON68xYIhcTZk0RYorz8m+i7tGrXTyB09JFTM9VsmPod6uEudJlMqnpIpOlVhzH6aHsL4pTDfcwwryFXmy2uG+YxlShIulCtw7JoH+JJXphJazoDQF7TiE42CoCCjZ2JFODBSkwPLsFUo07IaAOU/+ycHL36pFA9FYmJ2YKewQWTRridZrITO270GfGTjTzLVCpbOnQ/NvdhV/Neqlkz8gqSgdQQie4A/+Gxzi3LvHhGN+ekoqkv1I4oN80wzxYvlwji9Jhf9Gw+5t1TLNEAZkg58sNiJWCaQ/SUU9HJzNvJ/7H2YsMSdC5WAoCCjZ2JFOhFTJIXl9yVsa0uUhP3TlW3PslwsV5x5LJwv4ZXBsJkQlSU1rlZQYK+Zafan5y49GgkTohnMlVeflet01nxbNaJNO/mBZH/iwUs3ARhox0Hs9EvJ8SSosFaw/pE7foz6/ksoljXrVAuL82YnZWukP4u9PUmFhQWJcl3s5OyHTWDrBSfpyML4RELKxI52waCAalU4FW3QWJ53esoKukeHb3foU0YCMuJkyOylL4sLjlZg6etp14DAoIY5WM3DYhM5Xdb7RKJ36AwOYcp9YEAxsokp8vv4kFdIIwrAjqSAgXleryRATEaqBJBXt8n+ID4sSecW9x0JyJJWDwWDYZGNLOlEvl8xgY9FANOTTYMFwDntvl1Rd0NIHvkCSGkWz2NKEAt8hZnARIYmPTFL5wbqhGw3lT2UWjwXp5A/0HanCXlaU8gy0pIKAeB1Lxa6kcrV3T4mP/qSZdhxJ5WCwGDbZ2JFOmcbEXzV3jby25Kea4QvRIJ0gJ4jGWzp5YgqFnw2pZCXP0RmYh5xZnFmZ887cPKmZtewNZWGsSCd/cCSVg/GIIZONHenETJmdnKN7M63L36RRJaygUze+lyNXD6p0wqLxRzSAAYVTmAFizdZ3u1rljmm7rKZULhqyIv3fqt8y1qSTPziSysF4w5DIxo504kEnF2RN7jotTL5g5iJNQINo9l3aZSya4mekEwPMisxQYoLVywwyZtqWzib18fATRzFrn0qrLxv5VC09fT1jWjr5gyOpHIwnDIls7EgnLBqI5uWin0hmUrZ09XbJ/ku7jUWzXy7eKTEPcc8zDz9Eg2+HbW1Zhd3R02YIqlO6zAOP2U9IvLatVqrN4Gg01gwkxKwMxrp08gdHUjkYLxgU2diTTtMlNy1PXjREsyZvgxJNvZkhWfF9pOyglNddM+Z5mz7knqCkwYyEmbpFC7ILHw2LMYlQ1bfVq8kOqdEHDn63UvvHi3Tyh7EgqR6ZfynRadqOAwe+YJts7EgnqvVT03Z9/kYlGjZU4+GHaPYa6cSiSojGE5Z0mhE/U9dIvbH0LclKytG/kUwGueGf8YXxKJ38YbRLqjYzKbB8gsWlEJ0DB96wTTZ2pFOBGfSb52+TTWbQU1Ol816HfFvytRy+elCu1FxWc937IYdosEzYouXNZW/rMgQI6VJ1iXx++hMpqy3VGdsXxqt08ofRLKkgOda2sbiU3CgHDrwxINnYkU5YNBDNmtz1sjp3rbFSZpmZsFYtGoiGPBg2kPMmmunuGXSLISikE4OBNVI/3DwpBy/v1e1aeMB9Ad8Oha8gmfEonfzheUoqzptuZDLWTmJkkk4SUw35uZZD9CjxcT5lM9h107FwHHiiX7KxI53U12Ik0Ob5W7WsJJv1QywQDVEnLBr+7wlLOvEQL5m91Fg07xh5kKWDg+UIB67sle/KjuhD/zQ9ufb6RhoUziyStfkbdH0V1tBEwohLqvgZWkyLMhWQPFKJKBS1osNCw3TlOZndOPD5SbtIsPDQCIdwHDxGv2RjRzqxedzWwu0a3s4wpAOx7CreobsZUL6yX+lkLBqIBqvkbnezXKg4I5//8ImeRwEnb6IBDBja46D+jbUjwETDSEoqLKespDlaTwgrFqsqKTpVJwtW4tMPVqpj8XYYkmLlfZeR0I6kcuAJn2SDWdze0yanysmJ2eNTOmHRQDRrcjdodjAPHosivy8/pjtV3jTSqaOnQx9aT2CKsxPAFiN/Vs1dp74dtmU5adqiMt9VQzTMuL6IhgFCTZsN87ZoYW+KO01EorEwUpIKy4XV96FTQvXaFPriWiA2PE7bJU2B5EqcyNqeIT6sIiYH6hEhrRxMbPgkGyyYRkMAB6/s1xrA3hYNDywm9EtFryrRZCbmKDlBNN+WfKPbpvjztUSGRWgOzlvL39edDDC7sZ7YEhdy48H1hiWdIBqKoSOhYsxD7mBokgqSxuog6RJ5hOUDQTDJWHWH1dIxp3MdKvTNMFKKtIb7D+/r5ENyJX/je3hoyKjLkBmLYdk4j+uQsAkR8r1h3UBqDiY2fJoFZO66dlt8VjYBdqpcOHuRrMh5UWbGz9YcDKQT261Q6oEH2x8emQefh5SHtqr5tnx//ajsOPeFbmviD5SlRDZtnv+yFBhrClPewRNAOFgRfB/sN5WbmmfIJNL9VxcgD3aZYCuY//r+/8mZW6cMIbSqBGNHhbcN+W8u2KYHO1Vwz9kEDViZ3Fg4yLIuQ2bt3W1KavyfySDUSOPJxtLyBJYSJOYt0RxMTPi2bMxDhTlOXsy1ujL3q0/AzMcsh2XS3Nko5yvOPpFOKoF8iSALFOV2kVlpzSUpqbwg5Q3XdSmDL3hKp7kpuTqTIh8cPI3BSCo2+bMWrpIuQMVDSnhYpUYJYdfdrVHpjJXCdXEqYxHFRMQpubmWlCRqlAoZfKPhmlQ0Vej1LUQawouPStAi9mwN7GBiwyfZMIOh47E2fJENlgvkEGYeQtYosfK6P+nkCR5el8l9Uxdi4oT2lmnAkU6DxzOSypAN3xOOYMu6eCypmivMfb+v3yF+FyJMkAn1kOvaanQnUZz9PAtTzHcRbq4LMSnhmPfHhidIhJHEXON6fZlcvlMiTR1N+n4LyO1YQ0aLMpfr9R1MbAyJbAAEcaelSjdCY50SD3D/Fs0T8D5Ix1pu4AtW1AmLBqJBOjkWzcDwjFKlx86Qlu4mlTvd97rd73gCK0MbZ2/N3SpjmdySm43lShz4X7BsIClklMsP5JJSD8x3332/U/02+G+KK86ZyaZMrSnPZwC/EMGAJVkrHLJx4HtHTFZR3zIz22enP5Jvzu9wvzpyQDotnr1EfTRIJ0qCOhgccNriS2MLXjb5O3frtCGUWkMIT2dj4+uZlTBLc2IgKcDqevKrrJC4Etgkl2MZyUXxMqwd2mg3kowCZlg13iAXZ1nWcvmLjX+ljmgHExujimyQTjgm2aYF6YQz2NH6wwfRPpz3pBc0djQ+QzjBgkM2DjwxqpJUnKhTcFCQUSRvLH1b/V/phgAcOHgeGDVkg3TComG1ONIJi2YiJ+wFEqxvYjkI68hceVGZwlY4DhyMJHzKKCsBbNeFr4z5vc/9anCAz3eSIZWVOas1x8ORTsGFlUB5ocK1c2gwkRLjWiz7/qo/k+ToVPerDiYqfJINjj/C2ISnq1oq3K8GBxBN2NQwXSk+0xxIJ8eiCR6IMDV1Nsj1ujLp6Xs2QhVI8F2yOjw3dZ4ub3EwseGTbHiJ7GEezG73GphgAbLBMYw14zyQIwNC1y3dLfozmCBixX5hhL2tSJeDiQqR/w/N6p6az/tMgwAAAABJRU5ErkJggg==;" vertex="1" parent="1">
                    <mxGeometry x="230.35" y="370" width="74.74" height="37.5" as="geometry"/>
                </mxCell>
                <mxCell id="38" value="" style="shape=image;verticalLabelPosition=bottom;labelBackgroundColor=#ffffff;verticalAlign=top;aspect=fixed;imageAspect=0;image=data:image/png,iVBORw0KGgoAAAANSUhEUgAAASwAAADOCAYAAACEhj9IAAAAAXNSR0IArs4c6QAAAARnQU1BAACxjwv8YQUAAAAJcEhZcwAADsMAAA7DAcdvqGQAAKTsSURBVHhe7b0FfFXbk+c7PS2vp7tn5tPzunt6pF9P9/Rfr1+4F0lO3AkJEHd3NyJECCGEkGDBNbiEQALBCe7u7n5xuNjVrle/tffO2efkxIiQwKnPpz7Htp299/ruqlq1av0HozQvAwanfeJgGx9qoQmYojHx3Wlm4n9LY+LzwtzU74a5xv+CmYnfdpO+3tOtrcPHWFtHejq4pH6ZMHHdX8irt0kSEtb9hZ1dyt+6ug791N45qa+tbaRGrc7Oab2dnTP/yc2t/C/lVYxiFKN87OI0aOjvrS3Dh5ubBpw26+9L5iZ+hFfTPp7U/1v3BjX51oNM+3qK38Ry/aXlGGy3LM1DK+0HJNnJm2xSXBhwNjaRmQzEdWb9fe7yNl9o+vvwPv0bKcORTPp6/aDp5/PAzNR/l6V50GQ7qxhXH5/y/1fenFGMYpSPRQAPa8uwuQyEN4CUaV8vHUC1Vk0YbAJivA0LTeBOe/sYa3kXQtzdR/5PhlQS/7aX9/UL9sWvYj2ooW0qatLHQyyj6estQRLrmvh+Z2EePN1hYEofeRdGMYpRPlRx9sj8JwbVVE0/358AAVhOhmDR75sh1LfXYNZBkvYeTP16D+Hv3QwuDwWIAC5L85ACR8fkXmx5TTIz8X0EiwnQMbROW1UBpIbVQhNcazcg/hv5rxnFKEb5kMTOOibezDTgIdw5Q6ACmL75YgB9+6Wz+GyuCSBLixAGULAABGABcGEZaJ+vXRoBDNvV9PMmU1YBRLaS1L9j+b693XjdQdT7i4HU6/MB9PVnUCeh+Nyb9ZsvnKXt8/76f2sYkmb9GFz9fH+2sggd6+6e/9fy3zSKUYzSk2XA4OxPLM2CN8PSMeSGffvVQAaEE1w68vAtpuiMZZRRvJ1yxx+mvAlHKXfCEcopP0AZJTspMa+OIpLnk5f/aLK1jRHba87qUvRbBtRXnzkzkJwFhGwsA2nIoGTy9smioOARFBJRQhEx4ygofAx5+xWS65BMaft9faj3lwMFxABU/e0CkCLuZRpw0s7OaG0ZxSg9WuxsYsPNTf2fm/X3adTYYcHAUrKzj2UILaC8iceoZO511hs0cuZlKppxkYqmX2A9L73y55EzL1Hx7Ks0et4tsUxQzHQBrKagBVB9+akT2Vr6U2L8CBpTtojmL91NtZsu0IZdd2jzvge0Zf9D2rD3Aa3d9R3Vbr1HKzbfoUVrb9KMZedozPT9lJZfTd4Bo8jCLJitMrbsvnJptB/hjvb3+97aMsJH/utGMYpReorY+pX9lZVlaKUhqwpuXe/PHcnKMpyiUhfTCAbS6EoA6BKNmHZOaOHUsyo9Q4VTztBw1hEMruI5VymzdDd5+peQxsTPIKz6fD2YvvjEkSxNvSkrczzVrjtM+44/oP2nntPuY09p28EHtHnvPQGttdtvMahu0spN12nFxmu0bN1VWlx3lRatuUILV1+j+atv0Kzqa1Q26yjFpM0jG5sogxYXejYRQ7OyCk2UT4NRjGKU7i5IVbAwDTyEXjV1g4Z+++UAAZiAiEkModNUypZS0cyLDKnzDbAyBCx8N2rONXYTj5Bv6Hgy7efF0HASgXj19vv0YlD90ZE0fT0oI2Msrd10go6cfc6geka7jj6k7QfvU/3+ewyru7Rx9x1av/O2DrCqNlyjpWuvCFjNr7lEc6sv0szl54W1NX3ZBZqx4hqVzzlJYfHTkfYgYl3q/SNmBmhZW4clyKfDKEYxSncVe/sYJ7aqHpixi6RuyAALrCoHx0RKL97GoLpNxbOuCHcPFlZTwFJABQsrNH4Ou2VBAlSw0tTb78vbB6j6MwxTkscIUJ28+JIOn3tBe449pF1HvqOdh79rElirt92kmi03tNBiK2vh6ss0b+UlmlV1nmYuO0/TlpylyYuh52nqsiuUX76N/08C9eLjUQfmAS3A2soqLFI+LUYxilG6m9jYREaZ9ff9RT+nCrEqxH38wyvY7bvI7t8NOTYlxaeaAhaAVjzrMsVlryI7uxgBqj5fu+psG9bal5840bf8fXxcMa1ef5xOX3lNxxlW+48/or0Mq91HH0jAOqQF1hYGFqC1ec9ddgtvU039TXYDr9DsFRdp8qKzNHYuW3+zTtKo6cepaOpxGjntGBWz4vPomcdpzOzjNGnRBSqffYI8fIaL2JbaNYUbrOnv+7O1daS9fHqMYhSjdBextgzLleJVumkECKqbmfpR4rDVNGb+HRrFACqaocDKMLAQy0LwPWPUdnIdkiN6EaHq7QIOX306QKQmhIfm0crVB+nctdcMqzd08NQTOnDyEQPrYSNg7WIrC5ZW/b67bFHdpEq2oMbPP8NQOiF6I7PGHqascughymTFq6QHKbNM0qzyA5Q99iC7p4cYZCeodM4Z8gksET2damgB3BoTv6cDB6b8X/k0GcUoRnnfYmkZNt7CNIAbqRpWbtT7MwfhMg0bd1DAauSMS6wMqSaAhc+wvvIrjpNvyFixHQBPDQHo158PFFaVv086LanaSWevvqLz13+gY2ef0uHTTxhYj3WAtefYA9p/gt8zuNbvvEOVqy6zhXRa9EoKODGksscdoRzWYeMVPcyf1XqIIaXoQaGA2NCy/eL3/EknyN13pDhetXsI11hj6ncoJGT238inq1lJSJj4F15hE/5hsH/Z30PdQib+nUfQmP/u4p77W311cEj8zN4+7itFHRwSvrS0DP+6X+/Bvfv19mxQTT+vftbWYZ7W1hE+Npbh3lArqwgvK6vIWEvLqDS2AlMkjUrma5lpYRZcaG4eOFxRM9PAwv59PIrZ3W5SNf18i8x4PQuL0Gwrq/Akdof9TPv69sfxOLik/cHNLfvv5L9oFKO8P7E0D6nUD64jSx3xqiGeBQJOo+fdZFBdlNUwsEbNuS7cv6i0JSJRFOtLSZva7fb6woW+/KMjuQ2Oo7nz1tPpyy/o4q0f6Pj5ZwJWR8880QHWwROP+PNj2sOgWsXWVMXC81RQcYIyx7IlNe4oQ+kYW1XI8+L30AZYtQ5YErQOSBYXLzNs/FFyGZwtQ0t73LKlddHM1P+ImYms/N6kr+cJhvFJbvANyhbqZU0/nwemfb2/E9rP575pP++H7F7+oKs+GOfIbqeeImmW3VGMu9Qq71+kXeirn4i1NdbGYyvF91i+KW1YT3qPpF3sFwm8/B9+5uO4z27ySXPTwL18/LMZgvkMswCNJvgrJ/ec/ynfTkYxSucJw2ohblJ14wSs4L4FRk6msgV3aQwr3DtYTqMrb1IpK14lvUWlDDPkVKWP3ErOLumisSPmpd7mN1+60ud/dKCBjuE0ZcoKOnH+EV258xOduvSCYfWUjp17ogMsKL4DqJatu06ls89QNsMkayzgxJBiy0oo3jcJLFhcrQcWNIfXyRyzVySc6ruwovHqKYYLATBqxfdwqxED06rh4UtNK5bXV0PLdbZq9ytievi/GJfZD+My/SWo8X826ef1lF+Pm5kELDTXBGZZWoZqXFwy/od8mxnFKO0XK0vASt+yQgLnEAqOmS7iUPkMgSxuwIhFpQzfSEl5aykuq1poZMoiikiaT1Gpi8hH5f6p3alvvxrEoHIkO8sAKhtTSUdO3aVr936mM1e+p5MXntKJC890gHXs7BP+/hkdYMtq2YYbVDLjNEPqGMPqGOWxm5k3UdLWAUsNq+aApQutYbzdxPx1AjyGMuN7nMId11PpOmu1/zfycobWb4UCyBLIUDlDGpzOn5+IEkOmAcW2ttEOgwen/b186xnFKK2X2Niqv7ayCpusb1lBcfPiiYm4lZVlKJmZ+PL3HsK1Q+NFD9+3X0k9ht986SwApag6nwq5VJ//0YksTL2psGAy7Tt0hW7c/5nOX3/NVtUzOnmRVQbWsfNPGFpP6PSl58LCqt50k0pmnWGX7xhD5zjlswuYJ7SzgKWFldCy/ZRbcZICGdpiTKSBhowUDPxHtSIj/9uvcH509Zsvca50VYyBVKk0JtJZHhOpq1996tRIv/zEsZHie2l5RaXPvT7HtnW1tzgOHJtrw75xHMr+1NvD9zhm/D8MZheA0zsfhlRAjO8lxb3U9Pf+zszEbw1b9dHWjnG/kW9HoxhFK65eBf/s6JhsaW0ZlmxlETKDzfW9pv18rhkaZqNVDCx2FYASFRbY4tJ9GstqYN0+vYbQF58MYOvEgzLTS2nbzpN04+4PdOnmWzpz+bmAkj6wTl1+Kr5bt/Mulc89x6A6TjkTToggOGD17sBqu0uoAAtWF9xDZ9eMhoHcarU0C5DVX1KNP9lYBZO9bRjZ27DKrw524TRwQKxKY2igcyx5uKeSl2c6eSrqkUb+/jkUElJAwcHQfApiDQ0dTrFxpToaw5qaNpHSh06iNEUzJlH2sBmUX1hJeYVzheYOn0MFRfOopGxZIx0/uZYqptUJLZtQTaPKlorvC0bMo2F5M3l7FRQXP0bs39s7g1z4mO2sQwAdAS5AD0D7ioEG+GEgeksgEy6lbIHxQ/EHjanfLguL0ETbgWn/R75djfIxSUHBkf/k7JzxlZVVeKyVReg8fpodY5P8NW4SC8QbJDO9UWG9jlBYHF/yUx3vE2ILaN36PXTl1ku6cucHOnf1BZ1lWGmB9VwA6zRDCr/tPPKApi67xMA5wZABqE7K+v6AlYmeQ95eUsEGMunrqdN58A1bHNEJFTRjyQmaseggzV5ymOYsPUyLVp2kpWvO0DLW5XVnWc9Q9fpztKb+Cq2uv0prtl6luq1XaM22q7Ru+w1av+M6bdh5Q+j6nddp4+5btGnPbaGb9+D9LfG69cAd2rr/Lm3dd49f+T1/3nHwPus92n7ovtAdUP5u+4F7tO3gXUkPSFq//7ak+27z+rLuu8Wfbwrdup/3wVrP3ym/b+N9bNnLx7DrOh/nFaqrv0Ar6k7Q/GV7adqcTVRSvoyGZk+l8IgRNHhQIlmbBwhoKRYaLDLcE8o501elIocMr5ca04BatvrdBw7MaFVPrFF6qLi7F/0fG5vIYAbUYnNT/8voZRLBUIYTYjCGbpYmFRYU32Qw+/v0chWBc1GFgS2M3l84ie/118FTFRUU8NSNDM2mpYtX08lTV+nqnR/p3PVXdO4Kw+rKcz1gPaPz16Rg+5K1N6hg8inKBqgqTlFBA6w6AlhqWLUdWNBc3q9XYKkcm5P+8zfsDjs6xlDlyvNUtfE6VW+8Rqs2X6faeug1htM1htN1qtvGuh2v/JkVr2u38yt/txbvBbiuyap+f43Wi8+KXpFULC+9X78Neln7ueE7fMb3rPidde22S5JuvcSf1XpRR9du1dW6erxiPX7l5dfzNjfuvEqbd19nmEmg27yH/8fWC7R89REG2UYazhZdZNRIYZFp+nkJV1MAjF3jpiwwuI64X9Hjadrf9xp7AUU2AxL/Tb7FjdLTxdU991OG1FBz04Ad/HR60wCoVlhOuGmkWBRiGAyizx1F9jluLMQyvu3Fy/T1IxOTYDK3iCJbh2RydMkiV48RpDENEoORv/1aAtdXnyEW4kpBfqm0cF4NnTp9g85ffkTnr35P5669pLNsPekDCxbVhesvaPO+++z+nafscQDRSQGtgkndD1jZvE5KUT27Qr5aK4vPIc5XbnEVVW++ScvqLlLV+ku0cuNlWrnpMq1irdl8hWq3wLJii0pYWNKrYmHVydYWoCWp+r3yWVIJVtCuB5akF5rQ80IBrA07LjPIrlL93hu0iYG2etM5mrd0D5WMWUrRMaPIySFSPPAAL9xn+uNHFcU9rFhd5qaBlVZWUcZyPz1R/PzG/aOdXWycuVngbr6YUplgdu+aqvYJRewJsShYBwJM/ApLqH8/f7KwjCYnlxxy9y+j0PjZlJK3ivLLtlLZjAM0fckZUeFg5eZ7VLfjIW3a/5S2HnlJS5Zto8L88WSp8RVxKm+PRJo5bQkdPXqeLt94ThdvvqELN14xsF4ymL5vBKxLN74X+VaVNdcYNieFFkw+LcGqU4DVPpdQ0n00jPfn4TeKvlVZWQCWp1cmLd+AyhCXaEWLwGKXkLW1wAKguj+woBK0JD1HdVvYBd7Mr/wbLDJYY5t2swW64TRNn7uZMrKmsAuZINxFAS92HQ1ZXsLqkvLAfjHXBKy0sgo3lZuCUbqzODikmFmbh84yM/FrsUywBCgXYTEJF663G5mbhzGYssk7eCLFDF1BeeW7qGLBWVq87i6t3/OM9px6S8cusft242e6evcXun7vZ7px70e6dR/6A92895a/e0s3+f35y9/R4UMnacXy9TRp4jzas+cInbt0ny7eeMmwYlBd+164esLCUgHrAn93mWG1Zd93VDqbrarxEqiGC1h1f2Ahez4ht04+x1LjQoNDo5pSuYeqUdLGCCxWCVirGVi6elYsu4HdSWF98TIz5tVTeuYkGugcI1xs9Gqip1W5lxXFA1n0MPbzJjOTgMWWdlGfy03DKN1FiOg/ODnFD7Y0D96KtAJcMDQO/YsJhZmtWFBoTNY20TTEu4TCU5ZRTtleqlh0hZZveUzbjr6hoxd/ogs3f6Zrd35iEAFGP/D7N3T19mu6cus1XWboQC+xlaTWiw36ko6fukVHjl6g02dv0LnLT9mies36kt08wKoxsK7cfEmnLj6j+auvM2hOMWRO0fApDCtopwNLDat3BxYUWfBOA9OojyqZ9KtPHSktcybVbr3TCmBJrx8rsJT3tZv4/ZaztH7HJdq46xrVbDxNE6euofDwEXyfe9NXn0jxLvU9LqlscfXzecsW1wR7++R/lJuLUd6nODkleFiaBe0XLh8/VRpfODzdASnJitIw0AYOHkbB8Qsoc/Remrj4BlXVP6cdx97Sics/0OVbP7DF9Fbotbtv6MrtNwyl1wwiSbUwagwqRRVYQS+z2ye+521cuC5ZVYBVA7AYVNAL11+KXsKdhx5SWeVFypnAoJosFfDrccAaw24h7ycobqZOigNiMYMHp1DV+qu0YsOVVgCrZQtLQAkqgwi6YcdV2rCddcc16T0sFaFXaBM3euhmdru28Ct0856rtGWP9B3iSpt2YTlWsfwV2tyg7LKpdNNOtV6hjVhevF7m/V7iY7jEQNTC7V2BVbvpjNCajWfEb3AdN+y4QvOX7xFWl71NiOhthLuovu+heHCLtmHie8fSPChcbjZG6WpxckqxgEWlxKb0LxQCveixgyVlyiAb5J5PkWkrqKDiJE1f+ZBW73pFB868ofPX37DVBEDhleHElhPgoqMyrN4FWBcZRIpKFlVjYF2R3cNlG25RPkMqr+K0KOCnVBztOmB1jEsIYCEvC8F3VK1Q6ngp3fZT2S1cvfUm1QJSMpzqtqIX8BpbEoDMNVq3A+kBSGPg73biVXq/cdd1SfGev8Py69FTyACr23pZ6Or6S2yVXOJGfolheJH1AlWtPc96jpasOUuLas/QoprTNG/FSaGzlh2nmUuP0fRFR2ny/MM0fs4BGjtrP42Zvo9Kpu7W6pRdOlo8eSeN5u/LZ+6lcbP54Vd5gKYsOEQzFh+muVVHadGqE1RVd5pWbThLa7ac5+O8SBthKe2UdMP2C7RuK4OrEbSaBhYsrJoNktYheM+ArFpzjPIL54pA/dfsKiJFQqctsKIHHG3FzNR/o5VDzGdyM+qxgnQOC4tQKzPTgBSNScASdoXXsse01qSvV52ZWeAoC4sIM3nR9yuYcw9z+6HCJfKl9C8M4lKwpgAre4cECo2fxw3vOE2uekSrdryi/afhkr2mG2w9XQegGEgXASN9SKm1g4AFK0oNLOi1Oy/p4KmnNGnxFbaqACYGlVxxtOuBpYZV+4AFzeZtDhycpWNlYZae9Jy5tHzjDZq/8hzNX3WO5lafoTkrztBc1pnLT9Es1mmLT9LURSdoysLjNGHeMYbBURo7+zCVzzpEpTMOUvGU/VQ8dT+NmLSPCiv2UsH4PZQ7dpfQrDE7KKt0O6WP2kapI+uFJo/YwrqZEgs3U8LwTRRfsJHi8jYIjc7dQFHD1lF0jqRROWv5M6t4Xyc0Epq9RqWrKSKLNVPRWgofWkthrOGZNeL3mJw1FJu7hhIL1lJG8UbKLdtCIyu2Mwz3MBwP0oKVR6l63SnRQ7huG8OHgQaLbC1bXgBcS8DC+5UbTollYHFVrztJecPniuRbBOhFh5GqbUCl+JbPSwuz4BS5SfUosdQE99OY+E9mV/emklSL/6RV/q4/swHvTfzXmJmF/y951a4XB9u4QAtT/3s4SP0LAVBJ1Q6G0GCPfEoq2ESj596m+Ru+py2HXtKpS68EoODmXYIV1QCg9wMskSTKunbnPVG9IbdCAZW2RHJPBtZQ1hy4hbG6biEeJANc0sV20kfvpvSS3ZQ6aielFEuaVLSdEqEjoNuEJkALoVsbNH54vdCEQugWhhCU3/NrIn9OFJ/xXoJU4nDoJv4OwJKghc/SdxslZYhB4ws2SJoPXS80Dpq3TqVrGUZqraOYYYquYfBBV1NUdi1FZtUy0GoYZqsoLH0lhbCGZqzk71dRXO5qSh+5ngrGbWFLbRfNXHKIlq05IWAFiwwgg+u4enPTwFq5/hStYq1hcCEWt6z2qOhdtGDrFuDST4lABr1I7TENqLOxifwnuXl1azE3DzNnAG0QybPIP2tFSpLwvvr5XLCxievaQeWD/Qv+3soyfClOsv6BInCulA929ymijJK9NHbJI1q6+Xvac/wlA0dy+fAq4MQAgr4PYAkXkPX63Vcie33uqusCVAVTpLLI7x9YHecSCreQ10ssWC/cEaXR4DqxW0JJDBFALY2BlVayi8Gl6E7+zMoQk3QHA421GLq9QVNGblPpVnY/t1KyULamoCPqKUnoFkkZYthnA8AK1cCSodWBwFIU0NJRBhggJoGshiIAMYZXSNoKCmYNTa+mmOxVlFa0lkZM3Mou6j5aXHNMAAvu49p6dhdhbRkAFl5hZa3awMsyuCqX7qGwsEIxPhPxQ3W7gUrWlu8dc/OQAXJT63YC2GhM/ObAmkLFC/3/oCg4AKNF/3s2cMikv898eXOdLy4uGRYWmqDLoKr+weBpjaf3ILdcGsqgGrfkCS3b8j0dOA0L5i1dvQ1QIdgtaUcCC72D6C2E1Qb3EnqNPzcHrEv8+ertV7TjMALrl2jYRFhVjWu6NwaWDK0eBizxnr+zd4gX6SPiuvGNhUTciNQlAmiSlfVxAisqu4aiGFpQWFtCM1exa1nNVtgKCkqtomDWyMyVDLA6Kp60lS2wA7Si7iSt3XKO1m49x1YVQ0sPWCvWQk8Ii2vNlgtUXlFDA5yihLWlP/wHDxO4TxZmQTlyk+s2Ym4e7C6Aym3fUP6kmBhYngQY5cLx33p/4SyPMJGWR6eDSV/Pt3Z2wf9b3mznibNLeqyFaeBP+kNm8LTu9ZmDmHoqKW89lS18RAs2vKB9J78XkLrCFtWF62+EAkbtBRbiXFdvA0pv2TqS0hqQmX7s3HPaffQJrdv9gJZtuEtzVt0U3yHlQR9Y1+/wMfA6SzfcZovqHOWzNjUJRWNg9UyXcOiYvcIt9PAfTd98qRqqw++9g8pF6kPzwNrRRcBiUL1HYMHSUgMLgIpQlOEVnrGCLbAqCkxZzgBbTnHDaqigfBNNXbCPltedoLotZ6mOLTAkm6qBhbGMVfy6mqG1dPVRik8sF3Et/d5EqSfRnxgQK5ydC/6T3PzemwxeTv/RwiJ4CuLU+m0f+o2Y5NeZrCxDyCdoJCXnLaZhZeuoYMIWSslfShbmQTK0pOVFbMssbLC8+c4Re/v4IsyKbKI6UOi3fLAYtxcYMZlGzrpOM1Z/T1sOIiv8jXD9LvCr0HYACz2FV2E53ZN6D/H7sXMvaNuhJ7Sy/j7NrblNExddp9FzrlDh9EtUMPUiA+gCg+gCHTnzXFhbgBUsKvQA3rj7mvYce0ITFl5hF1AGlFwiuXsBq2MtLAlYRyg8eYHORKywjJGjlVl2oMMsLAlWPdPCaglYisLyArxCGV5BycsoKGUZxQ5bSQVjN9HMRfuFhbUG4OLXBmDVHadla47TCgZZbf0FKpuwkmytpTQI/QoiiPmYmwbucXUd1vnWSBNi557yt2ZmgRsAUPWxQTEKBdaU04AESi1YRhMWn6LZa2/R7HW3xeusupu0YOsTCoubQL0+dWxYD8CysIqMlXfR8cKwmiLVS9c94F6fO5KVRRilj9xOE5a/oKqtz+jk5VcCVBcZUtB3BRYghYA8IIX3x85/T/UHHrNFdJ+mLLtJpXOvMmSu0PBplwSkiqZfFgX7Rs66LMocF8+8TMMZXEvW3+HtsbvIFtUVdv/OXH5Byzfe4fXOU/7kczolkj8GYGXx8kkMAdN+Pto4FruEFubBlMqggSXWEcDqyS5hW4Gl1Sq2vJZTQNJSCmZ4JRXUUunUbbRw5VGqZVexhsFVxdBazsBatvqY0JpN56hy2V7y9c2irw24iGjc5pqAK7YD0j6Rm2OXCcrmMDCPmvMxqI8JCovJ3j6KMkfVCEDN3Xifpq68RBVLz9DEJacZXif59RRNWXGRvAMKBdiUdQWwrGM85d10rNg7NoYVgmlwAQd75HFDv0zTar6n7Ydf0GV20xBMR5E7CU5tA9ZlVrh619nVw28HTj+n2m0PaUb1bRoz9xqNmAEL6goVzcTUW1epZPZVGjX7iqSzoDKsZGAVM8AKp12kcQuvCvdwVvUNKq+8LECF2Zv1a7r3XJdQD1oGgKW4hPg8tHQv2drFiCekdD2lOmExWSspk9dvGlhd5RL2XGCFQdOrKDR9OVtcS8k/aQkvu4LyyzfQ7CUH2No6yZbXSbayjrFbyFp7hK0vBhlrUuoEkSWvn/4g0gVMA+7a2MT1kptlp4u9a+Y/m2kCzwMu6mOBAla2tlEUl1lJcUPnUlDkGHLzGkZOzolkZxdFNtbhZG0ZzBrCbmKw6AVVr4/Ppn29t5qZBY+zsAh3sXLO/gd5t+0Ta6vwMfqwElnqnzsJF3DMoke0YP1zOnqeXa3bbwWoFG0LsGBBwW27eusNHTrzQkBqyvLbDKJrVDjjKltO1xhOrHMUlWDVGmAp0MqffJ5dxPP8/kKzs+b0TGCpYNUCsIRbOO4oDfLI14ljwS0MiplJWbyf9w8sBlUPB1YYAwsKcMHa8k9cTCGpS9kiWUvTFuyl6nXsIrIurT1KS2qO8usxqt5wloaPWiRiWPrJpkgf0PT3e2hnGfO13Dw7TdzdC/7WtL/vUUOwUhTJ3wBXr8+chCK4LlXyRVknKCqqSIqHof76Ymxlf+Rs+ZEJJjgx8Z9v1p4B4ra2MSnoglTvRMCKb3LUQh+/7AWt3Paczl0DhBhW/NpWYF1hQGFgMupO1R94SrNr7oqJIopmXBPxsJI512k0Jo+ANsCq7cASrmLDjDlNz5rzMbiEAljjj5I/P3B08rG+GEAe/iUSsEY3BSwJWkYLq23ACmU3MTRtmQBWAIMrMGkxZRStYXDtYevqOFWxi7h41RFatPKwgFb5pDWiGixKO6vbHwLeJn29njJMNrBLv7FTtL/POgbIhaaG1WnVcG2wd1FYXIAjLEmG8iIrq7C2WVy2tvEOCLKpuy4R58BTOJbN24lV39O6PS/YOpKG0py7yq/XdGHVHLAwng/Dbk5feklrdj5iv/c2u3k3BKRGz71BpZjdhl8bYNXtgCVDq6cCa9wRiuKGhGuqBHpFAunAdBraKPD+8QFLglZTwNJCq63AUjQ4hV3FxEUUlLyEskbV0azF+wjB+CU1R2hB9SF2D0/TpFmbyc4mVArGy20QCutLWFudpu9QOJNVhBV6DxFGDe4rqLC21Cq+l0qW668vqdQ7ytC8xO5i6wogDvEt+Rd2Ax+qE0JR+A2WVTSf7IrqV7Rp/wsRqzrLVhW0tcBCzyFSEU5ffkU12x7R+EUMKobUqNmAFKbfkmDV/YHVs11CxLxQOhnVXbWBd1eyto4QUMoo3dMEsIwxrPZYWIrC0oIGpywh/4SF/H4JFYzdQPOrDol0hwUr+HXNSZo8p54c7CJE7TJto36/CjABOlIqwwDJHeTjg+snYIqhOGaBZGkRTLZ2UWRnHy0pv7e0CBFJytiGsq4SR1UrrC228k5qNPn/j4wlwzL9MP2ZtVXYPlC2YQNi444UGj9HgtWB7wWIzl59TWcYVAJarQDWVZGL9ZrW7X5C4xffYWsKQLpJY+ZJ8wQagdV1wMocs58ySnaTtVU4ISUF1xkPJSQsIhN+KK/TXmBJsHpXYDGougRYte8VWJIuYUtrMfnGL+R9L6fy6duEewhLa/Hq4zS1cruYEKRZaMG6eUfVT6UwpLCIkL4EwCBLHwPonV2SyTtgBMWkz6SUgqWUXbqWSmbsodI5B6is8jCVzz8q0hwmoMdQ9Bqe5u+Oid9GTN5GqfnsHoeXko1NuICXBC6tR4fYubl5cJiMJsPi5JSYb6kJlP6IvCJ6A738R9P4Zc9p/T4JVmeuMKygrQDWpVtv6BpbVbuPv6BpK+7RyNk3qUSA6pasEqyU98r3CsAawPVRAqtzXELAC1YWXEC4guJa8zVHl3oUu/y6PYVqYEnQMlpYHQssWFrQgMSFwuLKKFpNM9lNRExr4apjNHHmZrK1CjE4nKe/yBxvuwunVcN16qBSQriUajFgYBKFJ0yiYWVrqWzuYZpSfZFmrL4ucq2gM/n99JorNG0V9DJNW3mZplZfYr0o6yX+jpV/m15ztWG9iUvPUEr+ErIwDyS4jMq+YTSZ9PVeJaOpsQSGTfjMwizorbICFIX1ML/f6Mo7VLvzFZ27/laA6rQMLIDKELAUaCEf6yx/v3zzI4bOLQbVLSqbf5v1Do1d9B2NX/qIJix7TOOWPKTyhffEb1qA8Xv+jO/x+7jF31EZv8f3o+cytN4rsGRo9SALSwdYpVLg3c2nSNVTiKnRXCiYLWnkarXXwjLGsFoPrBAZWMEpi4X6xS2g8PSlNGZqPbuHB2lRzQkqm7SWLDR+orppQxuVraQhAeUMu0XkGzOXfGMrW63+8fPJM2yKAJ5+XAmwYh5QeOIUKp6+h6YxZJAMCjABOlNWXKDJVefbrQBZ5ab7NLyiXoBRMZakITzeV2U8NRY7u5h6TAShHDD8VLzmjD1Ky7a8oVOXX9OpK28ErAwDi7UBVq8FrA6e/p6mrrgvrCpAajyDZ+Lyp1S24A4VcGNNzl9HYfGzyTuwlAa559JA1wxycEgge/s4MWW8y+As8vAdSQERkyg6bTGlFW2mAm70oyuvM/DuC5iVMLyMLmHLwFK7hAqwfMMm6vQU4gHlEzpeGqLzXoHFoPqILCx9YAWzi+jP1pZfwoKGoPzimuM0orRKXCd1Kea+vQeRhUUYBafxMeVuovCc9a3WSF4e4yNhzegDC+3fxjaSEnMWUPG0XcK9g/WkWEYzaq8JiwrJooCXAFgbIYakUgBw9trblJA9Xw7IK8BCrpbPaRlPuuLmVehiaRbcsDAUrmBY4jyas+4tHT77iiH1hk5e1gWWIZcQta0wfnDz/mcCUiVsncGKAqxyuXGFxM4gpwEpTE9P0VjE5BKfYx44Z/EZLgryOfBeKp2MPA8HNocRoHMhjGfC+v7c2FIYeACPgJbRJWwWWI0srHFHKCShknSG6PA5h9UlBkEbBJYELWMMq2OBpbiEamAFJS+iwCS2muLmU2xOFU2cvYMW1Z6g9JyZ3FZcGjpLoGgXtvbx5B48QVhbrdex5MZqbs5tv7cWgooCICIwzq/WVqHk6jaUQmMnCIjlj99Eo9jyGrvguOTysQs4nSE2q04akgOdueaGcBun114VbiAAJ9xB/h6/A1iFFVvJJ6hIJMuqoYnAu6mJ70wZUVpB/XUry5DD6q5MwMPBMYmtmAe07YgEphOXXjcJLKWXUGSs33pDq7Y9oZI5t2js4ocCVll8w6MmFg6o12eO3DCUaZK0gMRvOPGidDJDDMcgJaBJCogBXl9/YkdffWIrXqGubjkixjUK7mEPAlbeewfWIYoeWiU91eRrgIcFCvxllu9vN7CMMaz2A0tRv/gFFJqyiEZP3kLzVx6j8KiSRukOIpWA2wl6e9uq6u0YUhgyaIPffOEsACaC5Lw/uJJWlqE0wDlBwMw7sIgikiZTTPosis+aRykFyyintI6KJm+nkVN3MOB2U9EUvm+GL6eQmPHkxOuJig68PbWxBBW1syzDLWVMaYVdMFt1AT6sCKCkjthGK3f+wK7gGzp+8XWLwJJ6BF/T0k2PaNTcO+z6PaMibuQe/MQGiAAb9VNBKPbFjUQU+mNgsVtKcAFD42ZRXOYKSi3cKNxAaFJeHUWlsqkcXkGuQ7LYvw4UlpdPcDmVzrvFsOpZwHrfLiGC7vHcqE36aWtjwdqyd0wUy6CQn9El7B7ACmJLy5+h5c8uYuG4jTRj0V4aNChJZJfrtKcuVHAC9w3SGcALbZqDYwPUMMO4VGZGst7g5mE9HLfocYSlqOeKQtFDaNrPZ66MKF3hhr9eHbsCWFBvfVrNC1G++MQlBtYFhpUKWAJWKmCJXkEG1qL1D2nUvHtUUfWMkhkwcN8AFf2DwkHD3cMfdXCIp7CEOZTNjQTBdATXEYyHdSbiVLKOXci6+AHrdzRm/i0azkAYOmq7gBN6Do0xrDYCi39LYXCYawL4KSvdUHiKWttECkBlNCSPvhuw2uoSAlCR2esobOhaCsuE1vF7SUOHrpE0A7qagtNrxWeAqX3A6h4uoaEYlj6wgpIWkn/iAnYR59GwMetpzKR1ZGnmL4ChblvdS9UpFEME4CQW6FpTisLLQ+KoxsR/sSbQQA7WQLfcP2r6+/6slIzBhnHTDh29l9bu+5Eh9YaOMayaAhZiV+dE+sJbWr7pMY1mWE1Y/kQE0gEkWFb6ByViVOzuubLrkcpPVfQKwm1EryFA1Ko8LAYbehJFjAywMqY1tAgsfZcQnwEjK8swBpZ00+NJiKoNKUVbeBkleVQNLAlaHWlhQaOHbaDYvA00fs5BwrRe2/bfoG37ruvoVuhe6T1mqamYd1Cq755dR/E93MIyDCwVtGRgBbIGAFqxlZRdup7Sc2aJUAnarW47c8PgYqk8zTtoc2MIFRcOFhX2LQXKld49wyBqTjGaBhn22K+mn88VjSYwTMZTY7GziRyrrhwKyAx0zaIZNc+FdQVYKcAy5BICWJduvaWa7U+opPIeu4FPKDCigq0q+0buH/5U788dyNY2mlKGrxeW1ISlj6lswW0BHyXvqlXAMiaOdgiw8F6q2iA9WAAsM37CJbL7hWW6wiWMzNlAeeN20rnLj6itcuLcfUoavkFA60N3CRVgNUCLLa30ojry9s0Wrpe6rQEAFpZhSyyswodaWIRnt6yhDWppGZZlYREyEYOb1duEIm6FfKywuIk0yG0oe0fRZKbxFzFQWHrq7HfUvxKuoexJGUxQ7ePxK+/nDd9z283MgiKsrSP+i4ymxpJWtumvLMyCbiPfQdkAeuIShq2lur0/05Hzr4U2B6xLN99S/cEXVDrvLltJTykqeYFBF1AEzfmgA8IrBIxghUk5V9rEUSOwOhdY+i5hJr/id8cBKeJJieuEhwxu1Hh257F8ZwMrJncjZZdtp8fP3sgIarvsOHCd3cTaD9DCahpYgUkLKDBhAQXw99FDF5GVOdx6ddKlN5ma+NfJTf2dxMwsZGKjslLy/RGTMZum1VwTKQmlbBWPmLydhk/YTOkjqik2Yw5FJE2l8IQKCggbTR6++eTskiKFHVTQEuMWTXy3DBiQ/C/yLpsXV9csR3FA8kYAFbgH4xfdoV3H39Khs6/oyLmmgYWY1cEzL2n84ntUvugBlbKbZqEJ0Okml7YrfU4aVksVy5+JuJSSzW4EVkvA6jyXEK9IEHUelCncdFwjEWtgsz6WGy7W7VyXENbVejp86p6MHkl++OFHevToKT158qyRPn78lF6+fC0vKcnrNz9RRvFm4R5+WMAy7BI2AIutrICE+RTM23MPKBE9hOp2h1iQhXW4r9zc30nMNAFVFrwd9XYBLVhOLoPTRI/f3A33aO76uwJeM9doM99FkumaGyLVYTrDzTekWFhfynZEnlV/7+9cXQv+q7y75sXWOmqKupIgovu+oRNp2dYf6SC7gwfONA0sjCNEsH127UMazdbV+MUP2GK6RTbWkcKtVLYpntxswWWW7KCKFc9FwqjWsurJwJKh1Q5gve+0BmgWb8/VPVfEFHG9lOBoDDfUzgZWTN5GGjlpD/3y67/L6CE6fOgkuTpHka1lADnYBDdSO6tA8Xr82Dl5DUlGTdlN4ZmrOwxYErSaApYWWu/LJVSAJaCF97yMtU2UDrQQwDbr73s1ImLGO9eE1xQU/KmZacAKfWhB0dOH+8U/rERYWMjDknKvkAl/RRqGw9/h/Zx1t0XOlbV1uDCMlG1g7KqJiZ+5vLumZRvRn1qYB11UKjJgx3jKDuUbcuOBn+jAaczC3DSwkMJQt+sZlVTeZYvpHo1deI+tp6eUXrhJIvCn9kJhpqYUrJNgJYbkSNrzgdXzXUIoMtpRyE8BFqxtXLPI9KWq8YRqYHWcSxietY6WrjkrI4fop59+Jj+vZPr9/7Whb74aJCpvNtZB9Jt/saIpFQvktSTBLNAdCazuHsPSAVbifAridT1CJoi2BwtZAQKsLEvLsGi52b+TDF6+/D+aaQLnwxtTh4+girWFQPxA11SKSp5G2aVrqHT2ASpfcIzGspZXHqaRbIlhMgpra20HDxQdA99+PcRC3lXT4u6e+1um2w/KiqCepUWoKPey7fAb2neSgcXQOqwAS5WHhYJ9h86+pAmL74uxfQqwBLSqntKw8v3k5V8i8qmyRu9siFcZgdXdgLWHcnh/7r7FWqtYBlZE6qJ2A0uCVdPAisheT3uO3JaRQ3Tj+h1+cPK92KtxXo5aP/mdPU2fslhei+jN25+4kdQTZn9uO7C6c1pDyy6hAiwFWnaOiQ0hGCisLNN+3pcMpgi0Ucw1QekMmJ90KrnICqscAXeRW8UPFsS5UF4Gs+igsgOWgTso5WNpoYdtmVoGtVxB1d4m1h/0VVZEsN3NeyQt2PCadhx52SywULBvyYbHNLoSsLqvA6yxCxF8f0wYL4gewwnLHjW4gR0FLOkzv/8ogNWZLmFzwFrcBLAkaLXXwsJM0LH5G+nqzWcydogOHjhBvb4wnEio1s/+4Ejr1+2Q12LQ3XnOIFortO3AYv1QgMXLe4VPFudISjGQzpdIVTAP8pebfrtEownUaPr7HRZF9lQjY9SKfcPiwn2EnkOR9sCf9ZcTqRN9vfdpNAV/Km++abGyCJ2izrVA/CqKT2T1jh8FsPY2Aayz197yby8ZTHIipwFglUMXQO8IbQ+w8DuSRscteSD2Vc77RAUHQOv9AkuGVg+ysDoGWB3jEsYVbKKsMdvp+5c/ytghWrJojbCelHvSkGJMm2lfD7p+TWuZHTh+R/QSxnZgL2GPimEp0EqQrCz7AcnUV2VloTfOpJ/3ET5Vcutvn9gnTPwLc01Akqa/zxUpd4q3r+cqtqSInfP6jywtQz6XN9u88A53K4QEEZFfMax8H9XufkvbDzcPrEVsXZXOu0fjBKw6Hlj4jBwtZLUXz7wostmj2EXxCxlHQ7wKyMk5hTz9RgmLC/phW1gdB6y2uYSdC6zo3I1UPuuARBxZhudNpM9+76BzY+vr158PJC/3BPr551/ktYhWrj9HwWk1H1UeliELSwCL1/MMmySdL5WVJaqAmodYy82/Q8TdPfO/MEeizPr77TDp6/1WmlACddm9CbFxHUUHALt/yPmEG8hW2jpz89DWTVsWMX36n5mZ+n6nUBE3qJlpAJVVXqU1u1/RNgYWXMKDctD9KIDFeuaKFNvC0BhYVx0OLH4PSwrLDy3eKkrOWMtZ2BguBLcVr5//RkP+YRN4ubvGGFY3BpbhGNYWoeHZ62lR7RkZOUS//vrvFOibRl9+2vzYuE8ZaHk54+S1JJk076AYrqMLLKQ4tAZYPWtoTkvAgqLH0NYhQafHECAx7e9TLSOgw8XOLv53FpqQUNP+vrNN+3lvM+nnc9Okr9c91rsMs3um/XzO8/c1FqZBI8zNw/vIq7VOhvgW/X9MvB+VCSbQO+jolExTqx9T3e7vadshw8BCsH1F/VMGiwSrjgPWDV6HLbbFDym9aIuogyUNlnYUnQGKP47YBnoePf2KZZdRcgs/bGB1blqD6CX01PYS4lzjPEdnVot1OyuGhYD7joM3ZeQQPXzwhKwt/OmbFsbFwWVcvnStvBaxpfUr5Y3dxmBZY7SwZGDBynILKiepXIzUdmCcmPbxem1vH/XPMgY6VZwjCv5Tv4EZf2Punv/XeHXPr/pz+ae2i7Nzel91BqsUcC+iynWvqW7Xc9pqAFgYU3j0/CuaXPVAxJE6Dlg3afzShwI0XgGjBTzxtFcHDaEAGBqVf/hEEcMq5fWMMSw1sPSg1UpgGcrD6s/ACk+rpoSi3RSbv411K8UWbKX44dsoccQ2hs92ShaQejdgJRZupti8TXTx2hMZO0RHj5wRAfe+vXWvu1rxG5Y5evi0vBbRnfsvKHToagpMraGQ9BrhGmp1FX+vaLX4HJ4JELFV1QKwmophhWVUk3/iMvKNXyLUBxq3WKWLyBsaC10o1AsaA13QoJ7R81U6jzyiFK3kdeaJcjIol9w6YMnQkoGlAAy9/rCWlfMn4k2agEwZAz1HLM2CHeFvKn8ElkxQ1DRauOltk8CCO7hp/3MqXcCgWtxxwMJYwrzxh8jWJoqaquqA48NMGwnDanlf3wn30ZjWoA8sFayaAFYjl5BfM3ldZ9eh4kEhznfvIfRtL3cqnlhPtfXXafm6SzR/1VmaXXWaKuYfp+KpBymnfDcljdxO0bmIRW1mkNXrwUoClmGXsJ7iCzZRRsk2evbirYwdoqpl61oMuCMHy8YigB4/eiqvxZbZk9dUu/k8rd160YBeoDX1F2jpmlM0a+kRGjtrD2WXbhZWVmBKNQWwhg1d1WoLy49BBWiNmbaDlq85QWu2nON9n6XaTWea0NNCa6Ab9fVUg9byZ0xdP3fZAaqYs5NGjN9IiXkrGUqLyD1yrlC/uAWttrD8E+bx/1tCAz0KdIPvfb2R93Q8N5f+REZBzxBHx4QU3R5CB4phs3VJ/Y8GgYWg++nLKB3zmErnA1jfdQCwbgpYIWfLzMRXG0NRKZ4OAJZ30BgG0mWavPKlCMSXM7TKeB+j5xhdwrYAS9/CwlhCzI7j4JTcMJwKVR8tNH505+5DGQm68tNPv9KLlz/S1VvPad+xu7Rs7XkqmXaQkorYLRu2ieIKtjQAy7CFJQXcS6btp1//XZvhXlQ4WcSn9O8BtX71mTMF+KbRv6vWa6u8/eFnuvvd97Tv6E2aW3WUMoo3UGByFVtf1U0CK4KhBlhNmLOHbt7RpmF0pmC40fVbT2jb3ks0ae4uismuIveIOWyBzWU4tQysAIaaT9R03VrtcAsZWlZWEV/JKOgZYm8bO6YBWLBg2CVMzl8vhuSsMQCs4xff0GF+P2m5BIuOABYC9yMZEFZsthqCFZ70KNDnE1RGkSkLyS90HA32yCNP/xIKjZ9N6SPrBbCwHyOw3hVY+8T8gzZs3SrDJeByDR4YxWD6SW46Lcsvv/xKN+68oLqtV2jEpH0UlQtwbW7SJYzIWU9zV5yU1yYBoGD/jBYD7l9/NpB8PZPktTpGXr76kXbsv0b5Y+vJP6mKwoeubAQsuIBzlh2W13g/8vzFG9q65yLll68n96g57FbObRZYwspiCw1lk9XBd/TSmfb3L5RR0DPE3CxwkgIsWDCID2Gs3/Jtbw0CCxVH6w+8YKtGtq7aCyz+jG24eQ4X1p1yMhVV3EB0xaJMs9PADBrgkk12Dkn8lPCkL35vKUojOw1I5ifkVpFtb3QJWwaWvkuIuQnTireL+ldKrANpA94eifTw4ROhjx8/o7dvfqCff/5ZbjrNy48//UJ7jtyhosl7KTKHXZtCGVYqYIVnraeNu67Ja5AY6Iyxg9+yy6d/L6gV9wXcwlkzltPduw/EsT3iYzSk4th5u2/f/tAqi+ynn3+hddsuCEAFp64QlhbeY4KG3LLN9DNDWS0vXryky5dv0LWrtzpEr165Sbdu3aPvebvoMW1Odh+6Skn51TQkbJYEKQVa+sBKXkyDfYv52qrG7klu4bEe5Rb2+2ZwhRpY6E3IHXuAqgCsnXrAOi8Bq3rLU6072E5gIRM+bcRmUbMd+1dOJlL2MVga7okHn+i04r00jiG5YOMbqtr+Ey3Y8IomLLpNKcPryc4xjT7/rYVYNj57FVt+DC2jhdUssPQtLCyHSVMxAFXJRMb1MDfxJgdbaaCxvXUQDXQMJ0+3BIoKz6XcnLE0bcpi2lq/TwylaUrgeq3eclm4iLH5m9jakoFVKLmEpy5oXc5jR1sOuCuKZb5iS8za3E8cG46xOXVxiqQgv3RKTxlF48vnUN3qerp4UQtLfTl76QEl5q9hUK1osK52Hbwu/ypJ/ea9Yt/oeTPrjwHG7VdNPy+y1PiSo10I+fukUk5WOS2cX0Pnz12R96or3798S1Pn76Yh4bNEXSxDwApIWEA+0TOQztBwfZEZYNLH62cbm7Dfyzjo/mJq4r0CyV34A/gjKL5VOOk4rdj2hlYLYLGPrwIWXMI5tRhi0xHAkqb6GuKZL3KqtDejh3ANLTSBopb8jNVvad/Zf6eHz3SfbJBnPxJtPvwzhfLF+fKP9nwTD6as0t2i99AIrNYDC9uIyaxmSCnVIqVrIVky0kBjaO8vXYXl9cUnA0Sc6dPfOdDnf3TiRuZJAb6pNHXyIrp86YZ8dXTl9MVHNHT0dorJY2gxsBKGI8ZVTw8ea0vEVFdt4O02H3BXK44PsTbl+JrT3gxCxL4wnAdBfSSmYv1AvzSaM6tKWGL6cvXGExGIh3UVn7eanj3X1uq6ffs+mfL/xv9H1n2frztIeVvf8ivONY4X5xnHi9/gLlctX0evXzWuGVa78RS5R86WoKUHLP94uIULycYuTtctNGG30DQgXsZB9xdzjf/Whix3ASwPKpp6kqq3NwYWAu77T72iimUYGiPDqh3AwjpF3PjR66fuckW3upVFCDfss7Sk/le6/xgxFAlWt2/d5afNKhpTMp3GjplBa2s30quXr+j+C6KIpPn06b+Zi/kLSytvUQm7hh8WsNSwah+w9F1CTPMVmqg7zVdbFI0Mcac//sZOQCAjdTSdO3tZXDO13Lz7gjIZWkhliM3fTIUVe0TwXpFRI6cyBFsPrPYqBld/+ekA+sNvbEWvY3XVevlItLJt31XyiFlMIybUs0spf8kyd/YK+v2/2RrcbmcoxuThQfHH39qRm2ssbd2yVz4SrazefIrdw5kCUI2AxW6hi15vITLO2epaKeOg+4u5mf9GBViwTkzYrx0z5zID61UjYGECCnweu1AFq3YAa8LSR6KCgwjyyk91aQS3G+WMPUILNv9MT19oYbVxw05heqNR4KLhqfPbf7EiC3ZbTp84RTfYs7CxS6JenzvS0OLthFmhjcBqJbDGHxWTpjaUlmmHAl7CImAYzJi2tFHc6OLVJxRfsJnCszbQtMXH5G8lCQvOFABRb6+rtBdbjn/ge2vC2Lny0UiC488s2UAVlbqAyEgdJaw1Q9vqbMU5wr7LS2fJR6OV6Qt20+DQmY2AhVpZXmEVYn3FisZ8oKx33GPz/1pGQvcWc1P/HaZ80Dh4BVhlcy/TSgPAQnWG1TuesbulcgfbA6xlj8Xkp1IjkU4gBl6Hxc+hqbU/07W7P/Dpl2D13XeP+Pjc6JPf2jcMroTZbGcdRBFhOeTsGErfPXhMoyesp9//i4aCoqaK/Ta4hUaXUAdY+i4hLCwkjSKWiHPbEQpXDfWssoeW6Yz3g6ypv0w+iatp9ZZL8jdETx4/E/EguG+GttcVCsj+/t9sqLZms3xUkiDPqmrtKfkTsup/Jo/BccI91t9GV2lfHCuf3xEFFToPBZTYSc6vJs/IObrAEq9zxUSpkmEgZ7338yYzs4jeMhK6t1hoAi4qw3IUYJVXXqZVO14btLCWbHzSccBa+liMExSVSJn4cAvNTQMYHtdow34JVr/+8gv9+uuv9JLdvimTFhLg+vkfpacanjJ1a7aKi7R+7XYaXTyNNmw9x1Czo8HuebpxrE4FlgytdgCrdRVH1bDqOGBJn/eSnV2sZO3KDaIjFE/y3/6rNY0snCyukyJvfviZ0ou30d6j2koLx4+dFXGb1gTcO1O/+mwgDXAIE71/ily9+YROnr8vfyK6ceOOCI7DmtRfvysV5/d3DK2pqppgkL2Hr5EbXMOEygZg+cdXirGFdk6o4KAfx/JvV2G/LpNGwOrjRePmXdIBFqo1AFjIcp+z+jGDRwWrdgAL6w7nRmvKFx77Rg4YJlqtWPGart6RgPULAwuqPEFu37pHQ9NKxJMNvUlnz2if0Ph+zty1fNO70EDXocIl/LAsrI4DltolzCo7SEnDN4rUEWWKcjx5cX4V91sJrre2B0+tiL3ARdy0YZd8pSSp23qZLlx9LH8iWrkCAffmE0bVimPBMX3xCXSAQUVc7V0sNhzHls1aFxCpDrBcFNm185DYvuJavU+Fp4G8NABfEaRDZI9aTe6RsxoBa6DncB1gSYOhfStlJHRvMdcEXG4AFls4GhN/mrjwGq2CS7hDCyxMQgFoTV3xkEHUMcDCZ6zj7JohegWRhxWRtJDmbfyJvn/1M9G/S7CCwtKC3L//iDJSS8TNCh9+0sT54nsIenuSEkby/0AqxEjexx0jsFoBrBzedgTfyJJ1JTVAPBBCgzJp4YIamje3msaVzaGUxJE0xCWG3UZXATA0lP59GjcgQwpr2J1dqLdvtTWvnr54y9dZ+7m0ZIYAm6H11aoEnwcPjKbEuEKKjsil8JAs1uxGijQGpDR8zvcKrDclnNCS4jjG68Wy1IJexdYca1cpABsblS8fnSQbt5+jwaEzdIHF7cs9eByDVjvsDSVeTPp57ZeR0L1FY+L3VDlw1MGyMA+lyUtvSTEsFbBQC2v38Zc0cekDhlPHAAuKkskJw2pEcig0LquGlm39iX786We2qmRYsUuImMGSxavJwtSnIdCJGxdPuPIxs6h4xBQRMxmEBsWWGqaxx34FrD4YYHVODGsY79PTfzSDSBvshlW1wkCP2Zs3b8Xg5OKiKWK5LxkcrYEAyh3jum3ful/eUmOJCM0W2zO0vqK43oDpjGlL6JWBrn1DgnSFlSs2ioTUXp+78PEa3rZaAYCsjDHyFhoLfmupXldXKqxenBf1hBwPH7+k4OQF5BM7twFYCMT7RM1gr0aVj9VHBN4fOvuk/L8yFrqvMLCeKX9aAlYITVnWGFjIwdp6+HsG0gMar4ZVO4ElfuNl4MJ9/hszis1cSUvqfxbJhmpg4TUhtoD+7z9bNDQQ3HiAFm4uNAZ8b8tPU8TBMHV96dzrXQQsGVrtAFbHxrD0oNUMsKTP+8nOPq4hpQE3P+B/7qzW3TYkZ89cJs8h8fQFu2WtgRYskhHDK+S1deX5sxfkYBsirDdD6yoK9y8lsUheq21y6uQFcZytiTvB1UyKHyGvqSu4F1E48F0C7gBuc2pondYqHjJjx8yWj1KS/LK15BbBbqEMLFhbfvxqaRFG/eRUIimBlKFlEvIHGQvdV9oCrPV7XzBcvutQYEFRqG84N2ZcMEyuOn3NT/TdE7gK2hgW5OGDx8INQM6M/sVFA7OxDCLTPkMoNG427xfZ7jKsutDCwueRvD9o4dRzDCwGVCuA9b5cwmzeRkJunRgMq7gJcLeHuETTS7ZgWhrK8uC7x+RkHyrWUV8PQ4qs9EB20fAA0pfTpy6KWBMeQIbWVRQ5WmtWSx0t7yLoUWuNZSQsrKFl8lq6cvfOA5GJLlxiA+s2pfhvSuwVlp6O8ndwc+G6viu4cH4DfFJ1rtnsJfskt1ABFqwsjCt0wAQV6jiWD1mZh7nLWOi+YghYU5c3BtZRBlYtfy5b0PHAQrWGiqrnFJ5QKbLbxyx4SFsOodzIrw1WlgItZBdHhuWwReXQkIuFXkNriwCyNvOhQe65NLryhpigoquBhe/xOThmOnkHjqGs0XvEch0HrI53CYfxPv3CJurkX2E6cU+fAho37zSVzT5K4+ceowmVx2juirO09+hdvha6EKtdtVly09ntU7ZhSBFDcnYMpxfPtb1viqys3tgiSNCQ0SgxQYUiT5+/oXXbLtH67Zdpg0rXb78kysrcvvdCXlKSVbwfwAguqqF9KIoY3ehR0+W1dGXf3mMimN8WsOC/D3SKoP37jtGhgyfFf1Dr4UOnaOP6nTQ0bbSAWkvgNqQYf4nkV3XG/rr6MzRID1gIvDu5Zun1FPoTsyBJxkL3FX1gWTKwplfdFsACoOoPaoFVVf+MYdIZwLolLKJihgdM9rD42TR19a908Cx6CgEqfiIzuJTAO57QGL82vnw2TRw3l+bNrREB1gEumQJAKOjXnrGEYjae+bd4ucsMqrOtBtYoXi84ZiZ9/YktffkHKxrkNkyAD+5hdwSW8p2UzqC1kOAahvDDI630ACUW7aCEwu1CYwu2UcSwLTRj6Sn6UZWd/vTpcxHYbqk3DlYwYpD37zUuV1NWOrPFIDYsGlg291Tr7z92mzzjVlBQGobP1DQoCvV5xlXRiIk7RCVSRWpXbRFwbRlY9rR44Wp5LV1BJ8QnrbDS1Ip9pqWMkrfQvFTOWSFcX6UDpLUKyEHPnNa68nsOXWkErAAGlovnCFIPhBaVG/p6l8hY6L6iMfF9rhx0c8BC0H3xhiedZGHJBfyWPaaE7JWi+gKG2Yxb+oLWHfh3uvmA6IcmKpycPHWFhmaMI5/g8TRq9lVRCx71st4VWFgvKX8tBUVPpWxuzCVzrrcKWMW8z4zibSIWgKmMkKLhMiiL1+tIYKlh1RywWo5hwSVEdntUxnLRO6xYCzh2c7ZyMUAZy6SP3i2XRpY0tWQnRebW05EzfFFkgfXr65UsutaVe8mQInZkyg8kWMn6EhU+TLhE+uuoFflRmFxV7VJWrz9LIajhnr+e4vLWqXQtRWStpuzSLSIeqsjsmctF8rGh7SsqLLnPnIUlZUhyMsuElWZo3aYUMMY4y9ZKkH+6sOIMbaspxXHjHB7Yr7VA9x2+2hhY7BIO8R8jrruyLnoKzUz9a2QsdF+x0PhfU9IaMG+YpUUIzVjBwNomA6shreE1zV/7uFOBBUWJ5Jj0pSLNwcYmksKSFothOhMXXqV5Nddp2dprNK/qBBWXVlFA4HBycsmm2Jw6YaGVzr0hweody8vAQgJ0kBP21R+sxbkYyg0UEISb2BSwYIkBQnZ2MaJaJ3pfsI0kbkQjpl2QYdWVwFLBqglgQZHOMHBwlo47iJ7CIV7DRX33DMBKD1hpfD6i87bShp3aqgUAlr9PSovAgoWFygoPHmhzryBI0BxgHyrcJkPrKQpI5GaPldeSZOLcgxQ2dI1BYGG6r/FzdHslU5OL6fM/qAfaN1bFkjNkCf77r//eKjirVQHJju0H5a20LBjS1Na0CewHnQX79x2Xt8LAOnLNALAWipmhhQsvP6jE7Db9fXbIWOi+YmEWeKE5YCGGhUx3AGvumscMhs4F1hh2xcYvfUR53GAwfZe5WYCojGjSz49MTILJ3CKKrO2SaYhPKSXmb6DRlTfFPjqiRHIJAy8pr06kV+DiAz7o/o0ZulzADBYcXDwFWLCeRrEFlssNf4BzqoAszmPvzxzJL3wijeRj6K5pDbCuYrJXSQPe5ZsWr0gcjR66grJ4O00BKyZ/K+08qM1Qf/XqNbk4RbQIHCWG9fz59/KakiD5FzBrKSEVDXjBvFXyWmx1//gL5ZRtpaictQaBFcRu4fK12tl43rz5QXTatNRBAOvKzyuFQdy4c+C7+4/I2sxPHK+hdQ0pqiygbMytm/fkrbQsK6s3SXFBA9trSnH9YJUhRqbI9n0XGwHLP3GBmGRVqkCqAMuH37vvk7HQfUWd6Y5eAxSrn1l9m6q3vdQZmtNlwJonTfOFbaH0DOq15084Qpmjd1H2mD0iXQFBdVSLwNReYracjqrpjvf8m1dAqQwtacZagGuQ+zBKLlhPwxlUxbOusgt4hYazqxcztIqsLMO0sOL1Bg7KFFCD9dUtgcWvsK6cXTJ0rKtvv3ImxwEp/PsBUX3UILBG7aSkou107bY2mH3xwjVx47c0rbxSJfSnn7QuGmR1LeJKrQi4M0gOqKyHO/e/p3gGVWwuA0oPWJhINTi9hvYdvSUvTaIwHrYFt1d/+2qFJTcsq1xeS1cO7D8ujkNp6K1RBNE9hsS3uvAhZNnStW3O88L5x8Syly9prd+6LadpUJg+sOaTd9R0ZLeLexzrigIIfT0vYoYbGQ3dU1oE1kEJWIe7GFgNE6myxSW2sfC+AJSYJQfTerHFg+C4pB03CQXcO1hSmJHn2y8HciOWxjnCVQK8bG2jGV55Qm2sIwXMRPcwL4NMfUzsCgCJYHs3zXTP5f2FJc2X8q6UhsevCLxjDkLFHTQELMCqYOI+nbhQ3Zpt3LhatgaQr4WsdH0ZWza7xbgSAvrW5v46PWCHT94VcxACWvrAisldy5bXGjF1vSJbNu8RweyWYANLbt6canktXUEhPfQgGlqvKQWMM9JGy1tonZSNbrkTQl9hwTrZhYpKpYosqD7YKK0BuVi+sbNFWSdlKBZAZ9LP+56zT0H3Th7VBxbqqs9ZdUdKa1ABCxbW7NquB5aimKoe1lSDdhKwJGhdpBLeZxy7TFaWocLFw7nB0wiNGvBCVQPpO8l1hIU12CNfwGgEb6Ng8slOAFb7LSxYVqlF9WSuCaA+ql4iWFpO7NZi5hxUb2gKWJjia2611s2CIOv9k1Y0Yrg4meml8lpaiYnMazngzq4Ohl6pc4xWbTwvAu6GgAVYDS3ZTK9ea4f+TJu6uBUBd2kY0Z7dR+S1dGV43oR3CrjPmVUlb6FlgSuK0tToZDC0vaYU5zAyNEfeiiRjZ2xtqI+lC6w54h5Qjx016ev9vY1z4j/JaOie0hywpJruCrBe0cyaRx8FsKQ8LCmmBeAERU8jK6twCVZfOImAOqqi4pwhBmRrG0PR6UuESyn1CjKsOiXTvX3AAqyyxx0kR7YC1a6giGPxf4rJWklZvN2M0ZI7aAhYMfn1dOiUtpcPZWO83BPZ3Wu5Rwuw0O8pQxUOZ4dwtg6ajyvBqsH09WqZsuAwhQ01DCx8Xz5Tt35VatJIkbNnaPuKIuCO1Iu7d76T19IKYIkZqeESGlrXkOKBJgGw9RNX7N51WKzTFrcTivM7YVylvBUJfOlFq8gjanYjYPnFzSULixD5XpaAZdrX+4Wda+r/ltHQPcUIrKaAJSWOYlmAC/GqpLy1FBI3i6ytIqTYFjf6IV7DBdwQ0ypEzKpTxxKqYdU2YOXwdhFsR3xNDSsoylN7+I0SQFNiV4aAhVysoskHdNxBDHeBK6KMS2tK0fgQyzmimvgUgjrlSHdoTYb7kkXavKiffvqF8sfuoKjsOoPAwuSpi2u19at++OFHcnON4WNoHow4Rgy7URKV1YLeTbilLU2QoVYFgHcMANCQ4AGAUtMtWZz6ivMLK3Tf3qPyloi+e/iCgpIWkA/D6YMFlg1bEnNr7ogYlhFYUCkHC9YTegpL598RtbbgAkJ9Q8eLnkKRPNqOsYSdBSx8zqs4SckjNovxgkrngHKTfv2ZE1lbR7EbuEdYYU0BK2nEDoor2EYnLzySm4MkJcXTWhVrAQgAjB8ZHGpZi/hXC71hCuyQDa4I5hNMyN8gAu5NAWvHAW3w+fr12yJO01LHAI4F2eaG5NDBU8JNa4vlg44Gb7ZADQHQkJSVzmrRbTWkqJbq6hwpZgZSBEmjQ8JREwuw+mAtrGC2sG41AtaB069o+spHDKSOHfzcU4Al6Xnxm7NLekPcKiByCltXV7sIWG1zCYfxdjH0JjShkjQmvjqWFW5QuB3OdoE0YyGDasxBCVYCWBK00kswq7OUd5UxehcdOK6b8Hnv3gNhPbSmix91tSZXaEsBKTKufE6rAu62loFiKi9Fjp25J/KvACt9YMWKgHsdXb2pnRUaIyNgtbQEG8AXyaWGZPnStW2OX4keR73cMUOCZFiUs8FYwncpYIjzi3OplsmVO2kwegg/VGCJLGe+sWetuKbjEmLiiX2s06qNwEL+lYNjoug9RDwrOHZmhwCro6o14Dv0Auby9hPYhVWmnscoBuXmxs2JxovqradOnKUtBx5QaFY9xcOKKoQltV1oUtFOGl5xgJavu0jfPdLObKNI3rDxreoxE9URGBSGpgKLjyngY2k+kRO5RcEBGfIaktTVX6SQdMPAAqzSR22m719prY3pU5fQH1sTcOfzghiSIREzUrex5w4ARGmb5gRjCTG0DNt+pzGE7HYCxEjbUOQV//eYrGXkHSOXSTYYdA/s4UF3vrEsNP40q/q6EViGgMXfAUDW1hHCGoWFFZmyiF3CrrKwDAML77FuPu8T68Tl1NIgj3zpZoZVpbIqcGPC7cGcd4g/Qbbuv00VC07SrKoztLD2PNVsvkK7D9+lS9ef0Zu32niVWmBtIE2hr6oQXFOKRpuT1bjywevXb8h1QGSLiZxYf+QI3RLL0xYdodAmLCwE3Eun7SZ1oQkUfWzJ9UTDNzPxFpOYGhJAsy3DZQARxPcwiHrVyk20omqD0OoVG6hq2TpRxw1DcLAMzqWhbbSkKLGEIgCFBbple3bsuyT1DgJWBoGll9bQxxOVf+/bu2X/nYyG7imtAha7hEZgnRO/5TI00B2MoDugFZe1ird/pUuBhfewogCofN4fstaTCzeJ3kxHpyQRAAdMlaRAtSIWhEqi9+5qxwK2VSrnVovtoIHrb19fpQz2IXTlsvbpr8ili9f5WN1atCrgVqGBK4LBzAUTEHBfaxBYwem1tHCVNtv7xx9/EtVOccyGtq8owOk+KLZRYisEM0fDLW1ruWU8INCriP9gSAHAd3EBFQXszPp76QT10ZuZO7qOPFAHyxCwElHEr3HiqElfz8u2fmV/JaOhe0prLaw9J17SFJRH/oiBhfUyRm3HhRXAwsVOYVAU8fedCSy8x/rInM/n/eC7tJHbKCpjKXkHlZG9Y4IYZgFIwf1rLk6DpzGso7YKhrVgLBxyppAkKtw8A9vXV8zbN3niAnkrurJh3Q45zaDp4wXQ0CjVlTQfPH5FSXzeY3IlWDUCVloNbdurndH5ZisnjIAFBkvMkBw72j0myFArrvMf+PwuXVwnH6UkB45dJ7dwTF0vw6oRsDA0Z4q4Z5R7pWcOzeFGaGUeQHNW3mgELJRHnlz1cQMLGfAJw9awZYWJGAaLSRuyxuzjZS90SgwLFtTwqefEdykjtlBYYiW5+44ke4d4sW8pL2yAyFhvKa1AUVgZPh5JBismIPALN+0uW18oqLdr52FatLCWCnLH0xDXGBGkx+BaQ9vVV8n1dCA/7xSdniu1IGeo5YC7KznYBNOzp9qhQCfOf0fhWXUMqQ2NgIWAe2TWGrpwVdub2doJI+B6zpi6RF5LV6QZqdsWcO9sRSHLoam6PZpI98goqiGPyNmN5iVUgBWAuu4h46nR4Od+PjtlLHRfMQKrDcDifQEaAhJIAbGJEvAp5N860sIS22BrKmXEZvINnSAAhbI1iEdpAQVroe1Pe4AEFS5tLANECWDEPlAuBZM5oFolBidbmfkJNw1xFcV1gbvUUoNXVHGD0IN47ap2LJ++iIB7CwAEJMOCs+Q1JFm77RKFZCB+1RhYCLinFm2k599rITmnlRNGAMY7th2Q19IVZPN3F2Dh/AL0ft7J9P33r+QjlGTF2mM0SJ5EtWlgLaIhASgvo7U4YWFpTP1rZSx0X2kWWPLgZyOwtMDyChgtoIGhOUjCLJoBd1Au4tdOYOFzIe8zlUHl6jZMXBP0RLZkQbUWJGpFLAYNFA0Zg2zxHpCB26PEnd5luwqskO+E3i+1qCuVvmUXc5BzVKsC7qNGTpPXkmTGkqNywL0xsMIzV9OoybvZWtTuC0BuKeAOdxEPhatNADYs6P3NSK2vSGGAlaweVwk5c/E++cRWkm8cQ6k5YCUvIhcv3QJ+0lRfPmUyFrqvNAUsTFWvBtbOY99TxbIHDKiPE1jSdxfIaUCynIPlRD4hY+WUhvYDC78Nn3qWgmNniGuB7TcFKYAEDR2NEF3hCH4DFIaW7WqFFYJaUigFrJabd1/QucvaOlgIwmP5lhI5sb1qVVoAQFQ0aRdF5iDg3hhYIem1NLdKu29RXNAzWSR8Gtq+ojifgwZGi4x4fUE5HHt2S+GeGlq3qxQPEcQEMZ3/o0faHDPIg4ffizQGj+g5FJAowaopYAUmLyanQT20RLIOsPjJiokc5qy6SdXbdIG14+j30hRfHymwsE7O2AO4qMKUhnsWnb5UBhbDqh3AwmeUo0EAXYxV5AeHciNJKs2KDatOVI3gG9eVrRMEiFHGF0F0QOx9BoRhsSGmggHKVy7fkJuRJA+fvGbI7BXQUmTzxt3CqmvOisP/hLWHeJoij5++puQiJeDeGFgIuNfv0QbcUU4ZLm5LPZqAf2pSsbyWriD9Q7E6Da3bFYoYHHLERo2cSj/oxQSfPntN6SNqyC1iNgUmLWgRWHAJ7RwTGVha6xYWlpV5qJeMhe4rLQELFUcBrO0fObCwn/icVSJhFAF39LCgRtcIXr+9wEJV0pC42dT7C6kGl3ITAVSw5qAoXT3II4/8ImdQzuiN9PyFNpFzy6Y9wq1rqU55ZyhAhZ5HJKFiYDNSCNQCWOWN20WZpTv4N+3wFPQcthRwh3uKfDH1lPEXrz6mqGHrBKD0gYVhOgi4n72krRQKtxQdDS25t3A9myphXLNq83uJX+GYkfaA8+TllkA7tjeOr9178ILSCleRezjDKlGGVXPA4vd+mOzFMozvY+nBCOscPd/m5v6fyFjovsLAapj52QisZoDF+/dhCwi12gEtBMKlyqNywP0dgYXgOsowm/bz1okpIKgOUA0YmEZRbMlhAHMB7yNz3Emav1o7Rg7S2hmTO0LRiDD4F+kI2Cesl5JR0+naNW0FUkUuXXtKw8buppCh62ns7EM6iZyxUSgp03zAHYN5MRBZLbsO3pTiVwWAlS6wYoatFdC6pZopZ9GC2lbBBssA/IakZOS0Nme4v6vCSoZ7iv3BqkIljGVL6ho9CCDHz9yh6Kzl5B4pwao1wMJ33tEzEK9qeDgCWHz/PbYdnPb3Mha6rzCwTrUELIwjxCSqmD9w/EcILHyHITnoFUQqAaob+IaM5f1cY1BpJ6J4F2AhLuYdyCD8XBsURuwKLmBQ7AyxPcS2kCiK/Kvk4v20cbcuHMKDs1odEBbA4esM6wXWkaKIJUElN2yw+A7LwDoBWGDBwZJCQN3K3I8SYoZT1fL19N13uoOhIQDT5t3XKbFwK8Xmb2HdTOWzDoqERkVCAjLot/9qxQ8AaU4+fcV+/vWfzBvlcM1ceozCMpsHFiqRKlIxfh79n/+laXI/UIAXPZr6teYVwbRygIf6PDanOH+G9qOvOLdKqgiGOOE4ECdDuemC3AkiHcNQEuubtz/R4lWHySd2HnnFVFJQsgSr1gBLmqp+vAwryepESgN7DAdlJHRvMdcEbBLlUfnAG4C1Uh9Yr8XrWAGrjw9Y6B1Myl/H50cqo4LXpPw63i4y3GVYvQOw8F3O2ENkaRFM6rF+iFVhUDXcTaQ5SFnuRyhn/GFKG32ATl/SBlyfPn3RqoAwnqIAEOIgsIrQKDA1FxRz2SlBe7iVaLz4HnWqYOFgRhsUrsP0Uxhnp987pZYrN59Rxbyj7LZtEsBKGbmNEgq3sFu4W6cszY5tB0Vul4tTpKizrlYM10HG+SSGlToI/vT5W0op2izFrwwAC7BCuZlL17XHh2x6JV1Dfz9QnAf3wbFicLQhQdoAqnji3OmfU7Xi/KGnEbEwdDoY2pda0UOKWbMxNAcpJaVspSIWeeL4OXr1svG4Tcgvv/5Kuw9dZRewhoawC+ifwJBiACFu1WpgoYfQc7hOwN0MKQ0mvgtkJHRvMdP4b24MLFRrkCqObjv8kg7KwJLcwY8PWHAHPfyKpRQDkX8VyXA6JX5rD7CQvxWfXSO2qSTwKfldABWWUWAFzR6LYTkMjCeYZFYSZICjMbUUo8EyAxzCaN3a7WIiBcSFHjF4AB9YFrdu3qWbN+7SjRt3xLAd/Pb82fcGXRFDcuve97Ro9TlKKtpKMXlbBKgUTebvYGWdv/pYXloS1H4CEF5yA1UrvjNkWSxZfUa4gwmAlQFgKUF3TKqqFlh2hvaj7Ku50i+Y4w+TSLQUcAes4M5VzqkWibeYmAPgMbRPobxfQz2ShuT5izdUv/siDStdSx5Rc8k7Zh4FCVAp2jZg2Q9I1gm4o4fQzDQoQUZC9xZ9YNlaNQaWYmF9jMDCusPGHiRNf1++IQcLd9A/vIIhdl01L+G7uYQjeJ+BUdMECJWbBzlefmETqJD3rz+WcOiYQ1Q25xT9pJoYVJQ8aSG+AqsJbh1qmnekvHr9Ex0784BmLTvFYNpO0bmbGU7bKLV4uw6wUkYCYpto/NzDOvlRbZE9h29RZDZqX8mwagJYCLpnl9bTS1Vp5LaK+hjXrK5vMQaGhwXcuoULauS12i+Pn76i/Uev07SFeyguZwW5R85l949BxcAJSoI2BSwZWoaAJV4rpbIyKovetJ8XfxfxrYyE7i0GgbXqFq2QXULFwtq47wXD6OMDFqYRC2T3DKAST1k2/dE7iG1ogfWuFtZ5cvcZKVIVpJtHmggiOmO5COjrAyuV3cF5NdpZfSEjhk9qsUHh6a/p70W3m6hC0Fp5/eYnYUntPnyH5q08S/kT9lJcQb0om5xctF2ASlF9YKWwlQU3cfri43T/YeOp6puSFy9/oFWbLlD0MAy7Wc/W1cZmgQVFtYbRU3fTtdu6uUotCVIm1m27SD/8qLXuxo6Z3eIDATFBzLf45Im2Xldr5MeffuH/95bufveczl36jrbuuUQLqg9T0YRNFJVZJQDlEYVUhAUSqBRtFlhNW1iBiQvJM6yC72E+btkiR5UGk76e9x184/+zjITuLa0F1oaPEFiIUWHOQTNTqToDeghREhljCkUPYbuBdY5cBmc3FNZTem0QL0OPoD6wkkcdoM17tDWl4OqgnC4C1FivKUWAd7CLblLk8XOPaPn6y1Sz5SrVbNbqqs1XqG7rNdq0+yat23GdqjdeFnCaOO84FVYcoJTiHWJewljWpBHbKW3UDkqF8vctAQuuYdSwjbzONpq84CgtW3uOqjdcoBXrzxvQczRzyTHKKt1GoZnSuEHAqjXAkqBVy4BbS2Uz9tKc5cdYj9LsZYoekXSp9Lpk9Um2ZA5SVHYtTZmnO/FqXHTLw4dw/jFMRj0jde2mM1Q8qZ7KZ+yg8umy8vvRU7dRfvlG1g2UWbyWkgpqKCx9GfnFL2JAzReA8o5l0CQuouCUxZImL+4YYPF2XD0LdeJXGJJj2t+nTsZB95cWgXXo4wUWrCuf4HLRgweYwCVMHbFFgEx/qvq2AgufsSxmqkH6As4/Avq4FpjVBuvrAyu99KBOwF3UGLfwFz16yg1oSJGCgHGDapm88BSF5Wyl+MKdFD8cuoPiZI0t2M5Q2sZQYhXF/BA4387A2SEAhclUMT+hpG0DVjL/NwThoxlcEdkbKDx7vaRZUAZNg2KqeVhVDKrhm1glWEnaMrCg0Tl1YvZnxLWC01aJiVUlXdmggSnVFJC8gt9Xk0/Cctq0U2vBIgbl7BDWYsAdgXYM/1HkV36QDCvdSG6R88k3YTH5xiu6iHxY8R6A8k9cTAFJgNESBtMSCkldysqv/B6fdYGlgta7AovXs7WP18tw9+sZGe6KGAbWTV1gnfn4gIVpvtK4cQEiULiEbt4jRLE+5F51DLBOkYNTktbC4v2Y8KshYCHgnjfxKD1+ps1ybu2knugunzB2rryW5IoUT2UXc9RuGjpmr5jWCzXd9UskQ/VnzUkHrBqAJQGsrcASOqKeLTToFkkZYkmFmymxQTdRIoMKqg+s1lhYmPkZFpZW6yhmmKJrGjQ6Z7XQqOzVFJK+kk5f0NaVOncWE2RIqR7651Stn/zWTmcar+cv3lJiPoMydRmFZVSxBQVdLjQUmgZd1qASqBRtClgyrFoEluEYFr73jZkpSmU3VBllRf6flVXEVxINeoAYAlblqttiLKEIujOwDjGw1u5+TuWLMAHFhw8sLA8Ly94+TsAE7iAubBY3bvwmJYy2D1hKDAsB/K8/sRVW1tef2DHAEhlMx0QGvBpYQ8sO0bjK0/SzagAxJvVsTcIocqjWrtkqr4Xs6NcMqn1ssTGoDALL8Kw57QGWBKt3BRaDqpOBFZFZy9upo4ePtdUP1q/b0aqAO3Kptm/VupJXbzxm0EhwehdgSbB6V2AZtrDgDg72K9ENtnO7N+nnfcbdPf/PZRx0f9EHlo1lIM2Wa7qrgVX3kQBr5IxLYip8T/+ShmROvIbGzxbpDRKsOgZY+A7pC5h5BzPaYOhNOjd+rKcu4AdNG32QFq7W7a7HdOotzbgM6wBB9zOntePxTpx7RIkjdkmwapeFJUHrQ7CwQjNWUd7YesJcfoog6bSlB0JfefD2dVWm/+5D19ntWyLBqsMsrPa5hACWNH5Q5Q72hzvoXy6joGeIDrCYvph3bfrSCwys1x8dsPC+lI8HcEJ6Ac4JUg4Gug4V66DXsCOBhUz3/IqTvK1z4rcC3ma+gJVUZVQNrJRRB2jrfm0vH/KjML4M2dLKDWhIkVDqaKs7Hm/DzpsUX9gRwPpwXELEsqYs0B2rlxA7XKQrGDqviqJDY9DAKFH4UJGqtSfJO3YRhXcTYAXw7z5RM6XhOCr3FgF3M6twUxkFPUMMAWvGsouNgIVifh8ysPBd6bzbFJ40X7hnuLCoQ4WZRYaNO8jbQKBdgVXHAUspL4P3YrYbtriUiqMKsHLGSQH3s1e03eZ4okvz7DVfhQDuSniIbgG8yurzLVhYHe8SdndgIfBeu1lbhhkAQhZ8SwF3DNmJjsyV15Jkwuzd5Jew5J2B1dEuYSBvwxX1r9S9g3AH+3odi4iY/mcyCnqGGAYWW1g7VMA6+5pqtj+jMjGJ6ocHLCw/mvcdGj+HYSVV85QurhulDN8gXEFktXcmsNQVR/WBlS3PknP7O2185fSpC60KuKPkC6plKvIzuzylM44xZPZ0KbAMx7BkWLUILAZVJwMrOLWajp2+K58loosXronz11K9LtRUx6w4ivzy67/TsDEb2apZ2i2AJeq682crq0id+JUoiWzis/U/EMkk6CHSErC2yhbWhwqsUt4nLCzvwDEigVNYVr1cCUNkYrOqRWoDYNUdgHXngRZY9+8/EiVdMNcewGVIlQJ/6mJ6D5+8oayyfQwiGVYGgaWF1scQw4oCsNJW0vkr2rI06CGEdQpVD1hWKzozMIIAE1QogqB9dNZKCmEodQeXEO6gd+Q0MdZR/XDDZ7awXlk5pfxPGQU9Qz5KYPFnBNbHsAuYNmKzKBUjAux8QYU7yJYVYKVYVi0DS4ZWO4DV3ESqgFVm+SG6eltbhQCyrm47+fukiuRRFM5TK76D6k/iuefIPUoQ7uC+DgDWh+ESKsA6c1E79RlihCMKKmiAfagolojBymqFu4iBy1s27ZbXkGTngavkE7eYYbWig4Elw6pFYMnQUoDFn/3i55KZJlDHwhKD3ft4vjGxiezeE6fqS2uBtWpbzwBWydxrwmoqE/u8S2N4fwikIz6F7wEpwCpz9E4xLEapHor/D3fQ0jyYUrmxwEVUBj+3DKzOtbCgKSUHaNdhbY6QWpDxbkj1Be7gmFnHKKV4N2U2C6yOdwl7Qgxr4w7dYU8QgMugNjFwecSEenbB4A6+L2ABUlpgST2Ei8gtoEyClGxlCQurj9drjV1M956aXl9aC6yqLU+58XdPYI2uvM7bvsf7us/W1CXKKd9HCTm1FJYwR9StcvMuJNchw2iQ2zAa7J5Hzq4ZYkwghtoow2Hw9LGzjaGs0t28nXsicRQWFqwzpDu8b2AhD2ts5Wn68Sdtt3tbZcWGK5RYtEuGVdcCq7vHsJDWMKxss04JnLbKxh0XRRa7BKt3B5bhGNa7uYSil5A/+/N7c34YNySNGoHV9cCCxYQaXXD9UgrWkU/QGLK1jRYXA1YTstPFDDd6it/U3btQ+PdmJn5kZxdDLoOzyD9sIsVmVotkUZH5zvtHwb6iGRcZVoBX1wILilpYc6ov0KOn2vIyrZH7j17T/JoLDCtktu8TwOoYC0uC1odgYUExPKds+i66ebdtg5h/YMjV1Z+j4NQqOXbVPmB1eFoDf/aLm0vmZkFGYL0PYOEzSt0gWB6RNE9ACrEnxKFQ7UCCUfO9Z4YU0EKwXUz2wNbXt185iwx3B8dE8gkeS3HZ/BQed5itriuiqB+C9qgG2hHAai6GpVWpgF9BxVGaVXWBFq2+LJJJJb3UoAtqoReFTlt6VkyekTiS3cCy/awKrIwuoT6woMEp1fxaSyVTdtK0hQdo2oIDNFXofh2dPH8fTV90QGh2yXryS2DYMJi0sOpoYMmwghqBpQBrsACWOnFUAdbyzd0BWNfE+nDZ4rOqycoqjHp/5ihiT4pv3rHqJuAnYCgANpDMTQPEnIERSfPZfdzDFtclMXMOeh6LZ17hV+hlEdhHDKwAkOogCwvAUgLwqSUHKGXUPkouVnRvgyaNhO4RmjIKMGJICVi9P2B1d5ewQbNrKSKzRlhb/snLyT9pOfkJXSZpInQp+Soav4SCUpZTxNBqCod2ALAMu4TtBFbsBwIsc43/1uaAhTwsDH5evPHJew66XxfbRy+fu0+RbAEZnoQTE2Ki7CumLoKam/qLqoqKIgdF1wLzEDEsbA8VGZqGnzLdluRawvrCZKqRqYuE9eXpV0JeAaVislUcY3TaUhH76jhgST2GWj1E2WMVPdigWeUHdLUBVlpgNe8SaqH1MbmECrBQZkbSGorKqqFIoaskzYSuZKjJypBStKOAZXQJmxGNie8qqQF3Y2ABVrzfAm7Qdvax1OszTGmlCxVMpKEASmPid8fMxH+NtXVEmZmJr4+dY7yr86B0W+jAwUNt7O3jpmBYgrIuLqK1VTi7fgmk6e8j3EoR/5IHPjeVnIn1EA8TMbFvhjTEyKBf/t5S9EKOnHFZBSzWJoDVWpewewHrw3MJDQFLgpYRWN1CuDFWoJHjTzTlEr5XYDGsEK8q4EaNufngminAUFSAysTvhZVF2Gx7m2i7kJDZfyP/PYPi4JAYYW4S0LA+Yl8Iso+uvCXKISfmrqGg6GnkOiRHpDkgkRQAU4bsKOupVR9qgBasLQym7jgLq6uA1fEuodHCes8u4QcDrG/dpjQGlu5YQgBr4fr3AyysP2rWJbKzixXQgPumQAGuLI6dQTVjkNewf5X/UovCFlYiXENlOwCWX+h4GsPHiYC6CO7z/otnXaV8hklywToKiJxMTgNSxISTwooSPY3SxTekCrCKZlzsgcDSQqujXMKeFMN638AyWljNSIvAEpNQvKL5ax93ObDwGdt09y4UbqACA8SSRIzKxPeug0Oso/xXWi1NAQvJpUoBP6mmu1TBAT2CSDbFb5ncgMOT5onYFWJYIpYmu4Ta4+ssC8sYwzICywisbgus8UsfUVxmlQAKhssoMEDMjU/++UGDsn4j/402SeuBpZvpDkVv4Kg518UrcrTCEueRs0s6xmUxtLTH2FZgdXUMy5jW0HpgdY8YlgwraLPAkqH1cQPrNQOra13CsgX3aCRDQ8SQVHOoYcCvuSbgvsOg9Fa7gPryrsDSzXQ/K6yv4tnXhAUGcCHGpWyzu7uERmB1XwvLGMNqRgwDS9VLePh72n/qFVXWPe7Seljjlz6m4Ojpeq6gu8hGd3ROcpAP/52kY4ClzXTHLDpxWSsNAgtQ647AMrqE3RdYRpewGdEHlhUDaxoDq1oPWHNWdx2wsE4RwwInGD10ODYoSrpaWoRMlQ/9naWjgYVAfczQqiaA1RN7CVsLLKNLGDFUCy0jsLpADAJr2cX3CqwJbF1Fpy0RIFEAgBOs6e/7dLB/wd/Lh/7O0pXAQiZ8dwSW0SXsaRaWDCuoEVhaYFlqfGnywjMMrDe0ekfXA6ts/i2xPALZSB1QAADrytoytEw+7HZJ1wLLGMMCsCRY6QNLhlWLwGJQGWNYRmBB9IFlYepNFXOP0codbxuAte/kK5pZ86hLgDVu8X3K44aJE6okaSKLna2rt0OG5P6bfNjtEqNL2FEuoQQto4XVFRaW0SUU0sjCYmBNnn+cVu14Q7UA1iEJWNNXAliAVecCa8KyxxSTvpQhos1o1/T1JjON/3b5kNst3RFYHZvWoActA8Bq3sJqLbCMMazuF8OSofXRAWun5BJulYE1Y1XXAGv80gfk6VesAyxMp21tHZ4iH3K7xegSdr1L2D5gMaiMLmErgfURWVgoF2xh4kWT5h1jYLFLuLNrgYXfSiuvi2E46twrdgd/dXRJ7iUfcrvFCKyWXMLWAkuCljGGZXQJu0z0gWXe34sqKrXAgku458RLmlb9kGHUucAau+g7Gs6NWJrwUTqxpn08UUHhdkTE6v8kH3K7xRjDaglYWmgZY1hGYHUraRFYh7+n3cdf0tQVDCwBq84D1rglDymjeKuo+qkMczHt600WmqCt8uF2iBhjWD3NJTQCqwFWUGMMyzCw1ijAOtY1wJLGDq6Q0xkkYCGdgY9vnHy4HSI91yXsuMHPxhhW9wWWMYbVjOgDy6yfJ02ce5RqGFh1u1TA6gKXcOLyJxQWP5sBoh2OA7DY2sfmyofbIdJzXUJjtYaP18IyuoRCdIDVewhp+npIwNolAWv74Ze08+hLmlzV+RYWMtz9wyYIgCgNH8dmbx8bJB9uh8j7AxZrE8D60CqOpvGyGbyPdN52ajFD6z0CC5/jeb04Xv5dgCVBywisbiFNAUu4hDKwth95SZOWP2Q4dSawbovte/iOFI1davgeouaUpp+vRj7cDpGe6xJ2HLA60yXENmK58fuGTqTg+DkCWKkjt78XYAFSsfw5OLGSQrmxC2gJa6unWVgyrKBGYOkCa8J7ABZeMRsO5gRUD8lBdQYH58Te8uF2iBhjWJ3nEqaX7qYoPheojf8N6uLzeRjkkS9+l6ysrgMWvgOA7J2SSNTm5/t7kFehAFjPA5bRwhLS71t3HWCZfOtG42cfaQAW6mF1FbCgmAhC3fAZWD+6+xX/QT7cDhFjDKvzgDWUt+/iNqzBrVdmIYrmxp7Ky3clsBJ5u+7+o8WxoNcZjRU90EEJlRTH67cWWM27hFpoGYHVBWJlETaxOWABVkgenbj0QacCC8uUzLpMNtYR4qaSTqonu4Re9/3jJv03+XA7RLojsD6UiqPY7gDXDFE2GucBpaNN+rhTFDfc1FG7uhhY9eTK1p1yLGKaNr63fCOn8vobP1CXUIbWBwssy/AJLQGrnoE1oZOBNXbhfRox5TRZaAKE+Y7jQQ4WQ+ucfKgdJsYYVucCy3lQph6wPNhNXNEOYDGo3hFYgzyH6wKL7y2/qGndGlgSrN4VWB+6haUClphIgXXcrMO0alcXA4u3o1+lAbPiWJgHHZcPtcOk57qEHQesTnMJmwAWgvDppfsppXgbJWOoTpuA1RoLS/6MZbAebzOV/8dg7yI+FqUTp2cAy+gSNiP6wAIs3gewkOWeNXon31DqLHcvVBjt0Cx3iNElbMnCai2wWmNh4Vq6kU/oBIphCCQyeFJ4ufSS3bwd1tG7WHcL6wvbwG/JI2WoyakQSXhVPvNvSeJ31iJ+L36vpwSGHHKtohgiockLyZ+h5BlUTjY2UQ0W+7sCq3vEsGRYtQisj8glbADWTC2wdjCwNh/4XoLVks4D1vgljyglfx31QaOXgYWpvEz7+8ySD7XDxOgSdp1LKKkECjQSC/NgsndIoIGDs8nNt5i8Q8ZRAAMkKG42hXLDA2wi0pdRJJ/PSG7ckdzgw/lzCP8Wwg0vKHY2w2gqeYdNJHf/UuHyDXAdSvaOCWRlFY5Zv8U+EavCMYigf8Nclj3ZwmotsD4yCwsXuHzGIarZ9UMDsDbt73xgIWk0NmM5fdNgvktZ7mamfsXyoXaYGF3CrgaWpOL+YmCgEgfOlVBeDq+SZc0PTH5YicbU15NfWcWrh/geql1fWk9RfIff0CAVq05//z0FWMYYVjNiCFhl7wFYE5c/pfCEOdSL4aHcYICKnUNcnnyoHSZGYHVdDKv1KgFJUoBLX6XfFOv73bQnW1jGGJaQRsDqxcCafrBrgTUflUafUEB4BfX+TD0sx48cHJKi5UPtMHl/wGJtAlgfSsXRpoCFqrEoFYSGov6+Q1SBXO/GFlxHuIQ9K4b1sQHr68FUOnW/DrDW7XnBIOpMYN2mcbxtT/9RoqFLN5eHmOFZo/G3lA+1w8QYw2oJWB3uEv6q6e+zmx9AFxhaL8TM3Xz+cd+pVdPPR72OUNyTCnwMaZ+vXKRGyA1Qw9uwsgxriJEh6O4wIKUhr8/oEn5wwHKjb74cSEXjt1Ht7h+7DFhQrOs6JEfnRsdxWVlFfCUfaodJ88A634kW1sfoEnqgt/dXB7fMLxMmXvoLK6vEf7C3Tza1tg7zNO3nE2xpHjra0jyk0twsYIVJX6+tyvmDAlZmpgHkNDCNHAem0gCXDHLhe2SQZwG5+Y4ir+Bx5Bc5hYLi5lBo6mLRQxg7rE6kPoi0hpLdNMSY1vChA8uZCsfWM7B+6jpgLcDrHXJ0TNRp9GYmfr94ehZ8Ih9qh4kxhtXlwCI7p4R+8ulvUvr08fpnqSFJLhzOp/OgLErj40lG/laRlM6AtAaR2oDPSGsYIaU1AELIxYrLQxJpz00cNQKrGekOwMIyJXOu6g3LESb+Y7+Icf8oH2qHSWuANXLWZT6m6zRy5qV2AcvoEkrAsnWM7y+f/ialb1/3T/WBNcA1U0BKSRxNLNwirCd8/lAz3Y0xrGZEDSwEL3t/4UwFZVsagLXr2Esxe46Yk7CTgIX1ihgCFnxCcUPhWBCk5ddzubm5fyIfaodJc8AayYAZPfc65Yw9QIm5a8TrqDnX2mFh9cRqDa0FlgStrgAWMt/xiox55GmJbHaGV3z+ug8OWIZjWEYLS4ghYA0v30Kr93QhsHgb+ROOYKAzn1DtsBwzTUCHD8uBNAWsMfNh6V2jkLiZfBxu9PlvLfiielJsZhWVMMTeDVgd6RL2gGoNnQCsFN4+stk9+HxiW99+OVAkiqIChAStj8HCMgJLiEELa0zXAgvDcrJLd4ubSeTa8LHgxrS0CN0pH2aHimFgTeDjeEwBkZMFqOztIikuYzaZa/z49wGUOmITjZp9tc3AKmolsD7UoTntBRZiWAieo6bWV3+0IWurcHJ1y6benzmQtTVfI4YT3MPOBJYELSOwuoUYAla+HrBqt3cusDD5RCrfdN9+5SKOAceCLm5z04CF8mF2qBgCVnDMDIbSZvry99Y0wDmBJi45TfO3PKThE7cI+NjYRgtQjZh+oY3AMsaw2gMslIfxjZhMX/3BmpycU/j/7aPC6afJO6iUvvyDFQ32HsGu4lajhfUxAyuvVBdY1VufUdnCTgTWsseq2XKkBo/ZcjR9vEfKh9mhog8s3NBeAaPFBK7oSi+dvZ9mrrlBk6vO0ey1tyk0djx99htzCk+aLwLxRpdQAZYErc4CVr/eg8iWr4lJP2+yMAvkY95JeZNwbg7xuTggrK0+vVylmBa7hkZgfaTAyh29uUuBhSz38MRK3rd6enp/jLTv8GE5EH1g4UZG0mGvTx3ZDZwlIDW56rzQaTVXqLwSZW/cycY6SrKypp1/R2CxNgGsnjkJRecCCyoSR3lbESkL+Fyf5P+8X2jBlBMUnjxPuInIy0qCldVJwGreJdRCq3sAS4bWxwSsYV0MLEzvFRgxiXp9pp7ey48cnBLi5cPsUGkMLAbMlwMZSGFUsfQ0TV15qQFY0Fl1NykwHC6IDSXmrpZjWR3rEhpjWIaBhQC7g1Minxv+v2xVKcAaNv4g5bB7aGURIiYqic6pFRAyWlgfoYWVPWqzTlrDivrOBRaC7l7+JdT7c62FheEb1tYRTvJhdqgYAlavz5woJnU6W1e3dGAFnVF7jQonbqGvP7UnN58ikeZgjGF1BbDcxDmNSJlPBZNPCFCpFVaWX9gE+pqtLN/wyZRYVP8BA0uGFfSjBpaqpnsDsIo3U408NAfAWrbpaecBC9/zeoPchunEsAAsU9Ogr+XD7FDRBxYGyGJ/iF1NZxdQH1hTVlygKdUXyckplkz5XMEaQnJpa4BljGG9O7AQn0KcKrtsD58Ptqj0gJVXcYRSCteLZGNH51SR4tAVwIqS3xstrPcgNlZR5frAygKwdnUNsJTvnJyS+MZykW8saViOq3vup/JhdqjoAwv/2dM3j6azJTWZ4aQPLOi8Td9RdOo0+vL3NhSfU0PFcAvbDCzWJoDVlEsofaeASw2r9gGrY1zCzgUWtoEHWf6kY/xfte5gg7KLOHzqSRowMIX68fIYS6h1Czs+hoXfY4atbYBTNK8PgBmB1YXi6JhQoAbWN9x4h47cRKu6Clj8OzLLUcoWI++lGwvA8n0eEDnhn+TD7FDRBxaC7WHxE2n2Om2wvUEZYOgxzBm9mmxtI+jrT+zIP2wilc67xcA63WkuYQFvO5+3ncMAUj53pIXVE1xCASz3PD5vR/m/6gGLYZU/+Tif96VkaR7M1vkACoydSUkjlOB7x1pYMblrGS5LyXlwNpn28xWWtitvW7G+Oh9YMqygHzew4ofrAIsvbkbRJlq5k4G1+zntZGAt2fhuwBKwagFYWKdo2jlx0/XhmwnHgRucb/SL7vlVfy4fZoeKIWAhdWGWgfjVzLqblD58Gd/0qLHkIoBuYx0phuwUz7rMwDrdocDC+8Kp5ygxr05UJjDj48T+wpPmUcFkfWi9O7CadwlbCywJWp0LrFyDwCqYcpyCoqeKhxwC89984UQD+XwlYhC0yMnqOGDFMAADYmeL9Iqv/mhHjk4xZGsTSl/9wVYALDpnDQNrpRFYXSGGgJU+QgWsoy9p0frOs7Cwfv7EoyKGhGnGcByY3kvTz+eYfIgdLq0F1ozV12nE5K0i+x5xEqiVJYOVwYS6S3kMj6LpFzsshoXvhk89S0ExM0QHBBJaBzjH8/nw5IZiS8FsQRTw750PLC20uiOwCtiyis5YIq4HzjlmB0esqxc6RfxGieoNHQWs2Nx1FBQ/V9ybuO7JwxbQ9JqrNGnZWXIdnCoSjd38Stg9rDO6hF0hBoFVuIlWbJdcws4G1vilDyl7zB6+kfhE8v5xHLjBrSxDd8uH2OFiCFghMeN0gIUgO4Ltzi6JYmjOt1+5irSH8QuPUxLftJ//1pKGeA0XVR2aB1br0xoKp5+nQG5MX/zOiqwZjPnjNgp3tGTmfrZAA6nXZ468n2pusOwqMqzefwyrK1xCXWDlTjjMx79TWOT4HQCKSl8iUhysrSOEa4jJKmBptRdYMblsOTFsMLEFrmdW8Sqas+6OuDfQczxuwTG+TiH8mzP5x8ykKLa03j+wZGh9TMBKY2AtZ2DVtdPCao1LOGHZI0pji040dhlYsLYsLEKWy4fY4dIIWJ85UUTCJAbWzQZgIfcqOXeh+A3HBXcwZ3QtzVl/h2ay5eXmmcVWjz0lF2ygUv4f7XUJC6dfYKthGX31iR2DMZTK5x0RAAU0cVwjJm0TUIf1mc5wwPofRwxLF1hIZfAOGkNIMkZhPnefEeK7giknKX7YKj7vTmJgtDQ3YduAFcNWEob4xOaxwq3ka4veR1hR8Vlz9WKc58Q9MnzCZrF9wACQQs9h5wBLhhXUaGHpAiuVgbVs6w8NwFqw7kknAusJxWfzjdZwU0nDcrhhlsiH2OGiDyxYUHHpM8UNKKyrFZJ15egUx8clxa0AKDxVEYSHq1g4sV64IIPccpsFliGXsIDfF6I44IwL4nUkW2iZpbvJhBs2GtWoGXsahgYpDQTZ9yl5i4X15eySIYCFXsN3BVZPdAmRPJpRsg0zKYlzrenvw/DewucCcb39IggvDYx2pOCESkrh42stsDARK6wq75AJ5Dw4hwYOGSbiU7C+3TyzxbWHZaUFlnJdblFk4mRxXQZ5j9CzsjoSWEaXUIhBYPHTaUm9BCwU8Kuse9Jpg58xW05k8gKdpFHAxNIydJh8iB0udnZxSfoWVmTS5AaXEBbUsNI1fKMPFPEruIO5ZWtliDDQqi6IOMagIeniN4ADqQ6tARYC6sOnnGVrYDX5ho4Ty0SkLKSB3Mi//IM1pRUs1RkapCgAiuPy8htOn//OksISK0XP4ccELFhSgdFTxLmFevoXi++U2BbSH+JzVorYH2CTgioPrQBWHL9HnMrCIlTECnEdEczHPhA/HD1zn/Sw0rsm0KkrL1PF0jPCKu73jTuFMFAiMlcZgdVZog8sXNwUBtbiLT/Q2q4AVtVTCoqawtBQD8vxR7nkRPkQO1wcHBJ8G/4zK4AVFFkmegRxEwIMfsEj+XvErlxowIB4yepSPWFhjaUWLBHwiGTgJOWvNQgstUtYNPMSDeXGDQsJvU34zzjfWO/rT+zJwydXepIznJT9qHV67VUaM+egmHABN19W+X6Rq/UxuIQYijNs4iEM1xIP1X4Mn6T8NWIwtAIsDIjGcra20bDQBZQGe41oFljxwzfy56niOn/LlnRU8hT5QeQi7ouIhAqDox/Uigdd0rD5wnUc5FWksrI6ElgyrKBGYOkDazMt2Pi23RZWyy7hHVFaxjtwjI6FZcamPltBQ+RD7HAxM/Ppi0aExoT9NSSOstU0jZ+YExadIGurEBEz6sXHFZs2o8FdVHTaqitUVnmI13cTk2fAwlLnkekDC7BCBVMUBPzqDzYUGFFKAWEl3DBc5amo3GnUtF1NPskVReOJYBcEQf+Q+Nki1eFjAFZexVFKKqhr+N7RwPhCKCwu37Bx1OsTO+EWYrKKpoAFxTLfoiw33/v5Y9fzOb5AVhbB4p6wNAugcfOP8rW+3Og6qBVW1ni+Z8zZVTXXBKlyst4NWBKsjMAyKDrAYoU5ncBPnnkbtC7hnNWdY2HhM9Yf4pEvGrh0DNINrtF4dvhsOYq4uGT/QWPi+6vyn5Fj5TQgTk4SvUl5fOPiJhbFBFlHTtkhrBudG5WXxXeD3YeKJMLQhDl8M0hpGVA1sFDEL6VwEyHPDF3jQ4tWCPAMcktna2EgP8kdKThyTCMoGtLpAOXcw2IfKL2CvKzscYhltQ1YPc0l1HcHAyIqdNxBRbFsQm4NL+MkamW5+/FDwQCwMGkFegQBmN68vZzS1bRw2xORc4eYZkOqS13z1pWiuG9Cosvp608dePvTKSZvPUVm1xgtrI4WfWDBTYnLXElz10vA2n74Jc2qedxJwJJ+G+CcouNOMUzI0XVopwzLgUREzPgvpv28b2FiT+wPlpSZqa9wt+ZuuCfcArgDgJajUyzfkOcMBlwBmNj0meIGd+PGAetJ+Q8KsDBQGr155ppA8R1iYwvqH1H+uA2SdcX7xs1TMmOPsPD092FIEUvzDhghQJeYt5Yb6Sk9YOlBywCwmrewWgusrrKwjlH+5GNsyWaLc4gHSWLeamF16QNr2AQ+B+V7ycI8iGxsY9hFKxQPCelYtMBKGrmdXD0K6At26XG90QOIUIB3QAFDx1Ecw6jpu1t5Tc6JdIe04UvFNbGyiqABg7LIK3QCRWTVsKVV3YXAkqH1MQErPmsVWwA/0OpdDCy2sN4VWC25hPittPIG2WJYztc64whf+ftX/B/5EDtFzE0DdsgTXUiuMLtzOQwTAMvNCw3DWYAIbpsSbNdXuG/DJ7DlxGCzsYkUDVP5D2hYcHVHz71Jgz3zhQuXlDOfb+zbNIufxtguoIh9+AQMFz2PhvZhSHE8ueXrxTAhD/8SbqRS0mmO6DX8gFxCBs3AQRkCWICQtVWYOK9IEs0q3yPiVfrAgqK3cJBHLvXnBwjmNASkpGORgBUQN4vdthXimjs4RItzCjDBrUNi8Fef2It7QFjVTcQT1YrlyuYeIhurUHEv4JoixIG2hB5HkQUvLK2uANZHaGEhzWDGmrdUs1MC1uxOsrCwfPGMC42G5bBeD8mY/TfyIXaKWFqGjkbNLe3/RoB1orhx7ewi+cYbJG685NwFTQILdbOQSIqYBywlZVtQNCz/8ApKYgsIwVgRUF99jbd/hcbxOpYWQXKmtovUA9kGYM1mNyUNw4XYQsNxYviOT/BYASy4iK0BVnd0Ca0c0v5g2l87+zPOj519rLCkUgo3iEYGV8/VLUdAzBCsoHAVg2KmifUt+N5CEUBpmxKwguLnkKtngegRzBq1SljKeGDgOijB9tT8Ja1y0WF5I545xCNTuIPffDFQuJLF03aS6yAph8uFLblIdj/bBywVtIzA0gVWAgNrWu1bWrn9GW1jYM1Y+ZjhwqDqYGBh3eEVx0U+jRJ4RtIon8ij8uF1mtjbx9mp/zduVOeBiTR61j4GAB8PAwhawBYUQGPoZsXTFwFZxLEAN2VbYntfDmQLq5RdymRuMINF6RpYZIDf0JHVIqiLZVCyBtsy5HI21nOiYRVN3s7nyFPEWWAR2NlFCNdmkEceA0vqNWwJWB3jEnYssNzDxv6tST/ve4prjXsCw26yyvZQTOZyASA8CPzCJ4jhOYZgBUUcKy5npbh+WlhBkZjsRl4M9/59vETv79TqS6IHGHCKZNcQibsInsNiainYDsV68ZlzxLWAO4jOFHwHFxPpDo6OMeJ7n4gpwj00Aqud0hSwpta8oap6CVjTqx+9E7BacgnHL3lIOdyAcFMpNxZubkuLkH3y4XWa+PpO/M/sEn6nNA50k+N9ROKkBmCJG7ey+RsXNyeG9eCprJxDsT3+P1aWofz9AAqP13aNAzg+gSNkl4GtOt5fawO7sOgmLT/HjSCOPv+dNFlG+bzD4nsvP3Y7f2NOvmETKG/SyS4CVse6hBBNf99deGgp5xGhAgTRw5IqBazgJkamLhRunyFYQXMnHhIJpuz2i+uobAuwQnKuvWOigEhK3iJx/cSDhy3fIR5D6Yvf24gkYVjaTaWXKIplxsw5IO4XWFdODEDlIYbrhIfTyCnbxX+wtAwTqQ4IwBtdwnZIU8CavOqNqNIAl3D6yuaAJcHqXYA1YeljyijaIm5CxJGwf8SVrKzCauXD61Qx7ee70Fz139HLZ6HxF/MjiviGfbQY5Nqc9YObEu4DYl7KdhTtwy6bmYmv9LTmBqF2IbF9WBCoZNpSKoOiaFyA3+e/tRJpF2PnHRH7R8NBA7GzjWBQuFBSwQYaNvFoO4D1fmJYEHNNYBlGOijnEDlXPsFlFBA5SUC+fx/3JgPuiop8rAkHycExQcBC2ZZyPBjIjOs8FikLKy8LxbhAuOlf/tFOdKQIkBm4BmrFufcPHUVff+IgrL/c8nUiPqk7QuEWBUeVifLansHjJCurBWBJsDICy6A0B6z56560AlisTQCrJZcQw3ISc2rETansH8ei6edbLh9ep4qpqY+r+r9DldQEpBu4Dkljl0EapqO+UdUKi6lg/EZxwypzKioKCyowfHTDzT9z9Q0R2P+GYQWw2NtHtQhERQG1kVN3iOODOzlsTF2D1QbFPrBtxGUwh19uxYlmgdUdY1gQK6soG0wIopxDWEgY1OwyJIu3KQ3HSRu5WcrBMgArRRHjcvMu1Lm3FMV18QksbIgbis6TiZtJpJ3wdcT1bDIMIKu4Hmw9wZJGr6K79zBpHb17BQF5hBkACmubKAofulJ2C9tqYRldQiHNAWtW7WPaeuh7brQMLICqg4GFySei2LxHIFXZv4WJP5mZBmbLh9epotEE/j+8z2satqiU/SsKCwgxjqZSGhQVwdrytWJ5xUqEAl7aGJjUMACVsNgJosH0Qg8kP53xlNbfpr4CmGggHj7D6NN/syC/kJG8Ld31sAwsLddBSBFxpeTCTSILvrsAy84poZ982psVN7fyvzTt733dtI/2muBcYqIJUcqa71WMH2wJWAi8Y+5CuJHKdiSVquqmFy5vOIe4LnAPMZgdVTFgbelPRKKrUlFHXAfACtdePXRLX2euuU7e/gXiuvvFzJSg1WnAkqH1sQFrSs0bbgSPaNM+Bha/vguwWnIJJ1Y9o+DoaWzqOzbs38LUnxwc4pPlw+t0Me3jkaB2QRRF7xu6qScsPikCs4ZuRChcAAxKbhR0l4EHkAjg8SsagQsDBT1JWD41f3HDcKDmFMBDqRnhdvKNVjJzLz+5G1sAaHhoiF/83or8wiZqY1kGgNW5LuFQXWAxbGwcEszkU96imJkFFqp7cKGAFqxLbAt13PMqmgcWhuwM9shrZGFJ0PMRnSDo3cN5A2gQh/zidzbi+rRkVSN5F+vjQYfriNhVw3U2sDy2n11SK9JQXNzzKSKz9h2AJcMKarSwGgNrau1bERSv3fFccgmbBNa7x7AmskvoE1TG+9QCy4zh4eiY6CMfXqeLvX3CX5j29TytDvRCFdewiM3+5mJMgATcPjxp1esr7qDy1EUgFgFyCzN/YQEhyF80eZtB8OgoNwTs390rhz77jaXI38I+DS2rHSLiK5ImUeQvC3lZBoDVmRYWKqVqgSXy6tj9jR8sn/IWxc419X8zmF6jUanPKSxYpCXEZlU1m9agjCm0d4jjc61NSIbC1R/omqwDJWG9skv32W8Z9CHF/BBq3urF+Y9JmyHuW1xn1Ppv6ppA8aDCcC9ce3PzkEaBd31gGY5hGV1CIU0BC2kN4xY/pDmrH7+zhdWcS4j343hbbp4FDWY7TiJGx7OV9a18eF0itraxGgTHYQ0o50E6F04Umz5L1MBSB1K1N6I0Uh9F3BCPMuFjV6+LoRoKsBDfwJAfWG6IkyAdYfzCE81ab1A0JoAN7iXWK6yobxag2B/iM70/d6bEgvUizaGrgTXEq1AHWBjMbmMT4S+f7laJuSaoXF1RQ1GR3xYx0eCwHEVRbia1aJO4HurRB1Bcl+Cocjk4Dldasn6dnRNFD2Fk0pSG3wypVHroolge5xiWX2sePIiXievCVrJ/7Gwx1rBtFta7A8ufP/vHzyNLy3ABfJyHDxJYE5Y+ZDixsqUlYNWBLqH03V1ydsHIeNWwHDbXHRwS/iAfXpeJpWVomX4DAVysGEaY+dnQE3TO+rv8dJ0u4IMxaCKXjG9grCs1jLIGYGH9xOxK6s3fo8YWnvJwIZpzPaB42odEj6XPf2stuSv8tG5uHYxpwxAR9EqhpDIy4NvuErYWWIZdwkEeBQYsrFgP+VS3SuzcC/5W09/3NuJfynag6PWzs4slMV29gam/oMOnnRJF/pCQ7BVYKkCvrI98KWERySV8cD7H8YMDWfTIcEfRRuWaGVLECUdO3Sm2BRddGrrVch4drn9q3mLRKeLmXypK0HQOsBrHsBRgoXyOGlj9+3i+MbGJ7JSJXjpNDAELPXcKsCYIWDUHrHdzCfH9mHk3yY5dF51hOab+r31DSv5FPrwuk4SJ6/7C3DRwr/pcwOLq/cVAPsZIGjV9j0gGRBc4blpYXQi0Amrozh41fZdw9RRgIbaBJyp6iQAYNIIQfrLje+U3JRjflML6mrj0NNnahPPT35bihs5u1vWAIn0C4xJxTl3d8yi34niXxrAyeFsDXDMYWOqHkC9cwjZPimtlGzXIkJWFsYEBUZOpcNrpRtCC5ZU6YqOwrGIzq9h9lIbgKOvqn3u46mX8QDLX+AuYoQxyc8DC+ccQK2wHD6UgJIo2s7yiuGeKGXSo6OE4MP0dgCXDCtpml3AB+cbMFqWelXxHYWH1835i5Zz9D/Lp7hlibx8Xq26kvRlYMelLReJoe4HVrEsIYM2/pTOOEDeZxsT3XlzW/P8mH16XiodHwT9ZmAbcahhjKCuepLD8ECQfv+ikGCSNOkl4cidkzaXKjffFUAy4IMpEGmiwIlYiLKKLwmXw9M0VLgFu9DBRCaB5+Eg9kOt4/1LjR/kZ3PiGllUUT3olJ8vSIoxQMwuBd31gdYZLKN4ztGxso6ivbNWIJ/m3Hj/Z2ET9m3ya2yQaU/9Gli/ii7AU/MLGi95CQArZ7cOnnqIUhhXGGsJtHDH9rIAXrDQldiOsZosgkQ83ja+NAix+UPJ1cRSD05sDFn7zDy0W1xDXEtZsazpOEDPDw8fGOoTMzYJVw3Q63yUM5HU8QiZKD1P5gYp7nNvbUU3Btj+VT3XPEEuzAEcEupWbAT12gRGTGVivWwks1ncAFpYrmX2F3akw0fCxbwDLtL/P7YjMqv8iH16Xy4BBaV8ztJ7qQws3OnKncLMDTMhuRo135ELhpsf4QEwcgeWwPBoUushFcuKqK8Iyk3oInflGH0BxGbOabRhQAA2Z8EpWuxI/MbSsWgE6ZL73+XowN+DNbHkc7iRg6VpYWDZu2GqRTa50Woi4ZH/f++7uo9/pmuYS/YmZJnBVo15D3j56AJ2ckyk6Yykl5NWSd/AYMbogFHXCGGKi6J8IvscLy0ZZVwENzq8+sDD/ZFPXRfQE8vnHdYSFhW2N5AdVSw8RRaXOk2zq02swBTFUwjJWdA2weJvObnn8EFF5Mv18YXEtkU9zz5EBA4Z+o36C4SYYyCZ9RdUzmrjsUae5hMhyF7Pl8JNPSbjU8I3OwDqZm5v7J/LhvRdxckr7lqF1U9NPOxBXKB8ngASLB712SAjEzQpo4Sk72C1DAElZFq7IsDFrRMMQQ2qcYgk3K3qq4FY0Byw0DjQmjFNEZjsC+C1ZZIpiuZjU6SJrG7XmMTmrPrA6I4Y1lLfvL6p3qtzBft5oGJvlU/tO4pZc/pcWmsD1+tCC4hzDQkfMDAmmGaO2UtGs8+wqYlYhyUX0CxvH10Wb64fzj3GjsHpw/TD8CnXiW7KwJCvpjHDRASy8irQXttQMLa+vcB3xAOr1qQP5RE5pyMfqTGDhPWJYGBrUT45fQXEuNRr/UPkU9xwJDBz/X037+X4vme7Id+EnIze2wkknaMqql50DLNaKFc/JN2QsX3hVpVGmvoVZ8GL50N6rODgk/Cs3kkNIZFWOT60iNYHPFSCF8rhwMaKSpzQ8eaGoVhoQPlrEvvSBlTFiebPAQiOA+wmrDUM/UPSvJYtMUSw3tKhaBHgDo6ez23S8jcB6hxgWK9Z1HKBb2wwNw9w8KFc+re8sEdMP/xlbWvORp6fcq1pFjtZgdrUCyd2nkCG9jN3gPWKAdOH0MwJiSuKpsg6uE+YYnLuR71O2gi0tWj7PsJIxHMrCLECksWBeQjxU9LPbm1I8SGDZoTy2e2BZQxxLH1gSrPSBJcMK2gZgBfF2BvuPbgi2Q8X56+P5xsYmsWcF3BWxMA/S1oYSF9OJPHyL2C18RRXLn7QALNY2AesuTap+QelFW2TrSnIdoLD0bG1j3OXDeu+SVrbpr2wswyahlwvWn3Kcigq3BDEpvvnNTHzFE1f9O4Z6oDBg+byjDKDLDCx0MLCF1gpgoQwNCsgp3fKiwJ+c6NiSwmpAVztSADz8RomeQn1gdYxLKEFLwIq3F5m+TIBDsZihDIpf7eziP5dPabvF3DwkU9Pf58dG1i+rcj2ktJEwcvMeTmGJc0RmPJJI1SAV14bdegxenlF7na9NnEhrCIub0KQlC2CVzz0k8qkArEFDMsR1ai2wREyyrE5cl0FeI5oEVkcF3QMTFwqX0MIc5b61wELMmq9LtXxKe57Y2cUE6wQ2+YbDSQ1PmENTV72iydUvxYSnbQWWfgwLMbEKhlXGyHp2FXyEKa/sE4FRBsNVP7+yv5IPq9uIo228A1tbJ2FtIU+s4TypVORJqW4KRRGcDY0ZJ1IgnF2SBKwQQ0nKabrOFhTxDgzrQfBeytk6LqBnaFl9FXEZblh4GCCJE7NKt83Cai2wJAsLn9E76DQwVbd3kK8xqi/Ip7HDxMYmvI+5ScB+3LP6aQ9C+f5FA8U9DFcRg9ktzILE9+rlYGUNYNcQgPcJKhLAQnwKwXhDqSP6Fhas69YW+YOKayoqzQ6kgSLjvTOBtYCCeXvokVTHrqDoQLIyCzeVT2fPE4zfMjP1v6y++LjZMVmlu3ehcA8nM2gQiJ9U9VzEtgAvJH4aBpbsJvJvmCi1gtepWP6URkw9I4raSUmQOIla095CE8DWVVygfEjdTpKTl/+ljU1MIs4TGop+ZnxTiqc+ziUGyiKLGo0EFll4/MRmY1KAGeIpyA2yt4ukiUtOtZhkqqiwBLhhmfb35gaZLpJHM8uUnsKOdwkzxx6igKhpkgWjggLOk5VVZKdYzBER0//MyiI81qy/3xURjzEELlnFNWA19BseKN4Bw9mdxxCxAcKiLZlhuDSy0tMHSxru40BX5MVJiaf6yxrSBguLPRjXZiys9ruEgNUycvUslHprVddEsq58auTT2HPFySnZycI0gP+UOj6AgaJSjGmIVwEl5NRQYcVxKqu8wSB6LALzk1Y85wv2QgANrl7FimdirsEJSx/RmHk3qKDiGCUOW02e7JqA7OiF1L95cMNZWASvlA+lW0tIyOy/sbGJ9rc0C9rMF/4nBV6N4ypaRe8ixhX6BI0QsS/kdiGYjt7DppJAAayckloR70AWfduBdVRYFgNcDAOrY1xChlX5AYrOrBYNXe12yMH2owWd3G3u4Fvwny0sQmP4OhxFYxQNUnajW6u4JhitgGsIgEWnTNWphKEorhWugevgNLawHMjaKlQardDaoHsrY1jtCboHJi8UlpULw0q456q2hvPCruBLO7vY/yufvp4tVlYROez6kIneEBX8aYBLgZeNdQQ5u6aTh89I8g0up6DIKRQcNZWCoqeSf9gEhlMxm9aZYn443MgwzREXUwc9FRWwMgva5Rs/8T/Lh9FjxMUl7Q9WVmGpfPwbzUx8v8P0ZCLIjJmr9RoNGrNiwcLClIoDHpaCtgZubjyNMZQH7qNSQQAgMrSsvgKEiM307eVKg9zzxFT4neESZpYfpIS8tcLdUqcN4KEHcLBF2uoBz+2V5cvpP1raRtiamQbMNO3vcx3uqLC8+BXnXf+e1ldcE7xi4hHUGkPvnzI4Wq14kARFjhHAQrsYUbG12aFSagWw0NuLBFVftkiV4TmtA5YMq2aABVAF8Gcn16Hi2qvjw7gmeLiam4cEy6fswxBbq6gMc1O2GvTykBTFSUBQE+kPCohgNakVXcj4HW5fU6Y4GjQsOiuL0MWxsVV/Le++x0pIyMS/s7WN6m9tG5XM56+MrYuz+udQHYzGODTM8tyUWwiXZOTU7cKcx3rIpDfkphhSjFvLH7tRdJ97B5UzsBoH3dvjEqaP3kVZYw8Ly8rCLFBknqv/p2gYmqDx8qnpcvFLW/BX1taRfdlqH2puGrCSrYrzJn293gBeZjLI8FBpyirG8Cm47JiQRATV1eeWgZVZvJLvcSkBWLj2BqwxfVWsYzvbcDJhmANM0iDo9ruEwYAcr+sZMkGkL4hwi+peg6JNM8zHyKfowxIHhwRbK/Pg4wBKU+B6V8XTDl3TyHNi0zRc3uUHJ96hpf/DXBN4o6lYFywnBG1hSRkah4YAu6iCydYV4iVpBa2bFAEKdyY6ZboYTxiRuthgHlbzLmHTwMI2hrJ7iXQJWM/qjhOocMtMA/ZgqJN8Kt675ObSnzgOyvqNRhPcz9oiLJAbdQE/UCYwxJ4Zuj54yMLiCo0dJzovUDcLDwHEsKR0kxOiaiweOkrlUhF8N3AtFJ299rZ4QCHVxHlIDkVkSe7guwIL34XwurCqvCOmkL2YOwDHrR03CYVlKSxNU9/Z8un4MCW5fN9fAiiW7K5p+vv8gj+NpxMsI6WrvXlFjXQPsTxuCnHS+GbmRnzcziY61c2t+O/kXX2w4ugY9ynD+Z7BRsFPQORkYdYWjEuEW6GOZ4nEUYYWpk1H79UQz6xGyxhSNKrJKy6SvX00cm0ofdR2wryIbQOWFloKsLAuJmyNz6uTCvSxVaWOWUEFrEz8z9kOTvt7+RR0a7GxieylMfG/aKgeGho/LCikPqBQH8aNViw7Iyys+VseiqFZ+B2Bei//AvHgwThOQ9cEDxDUzzLr783bdafAhHmivntTwDLoEuIz/47hPCFpyymAt+EWWEa2DvHieA1ZVWh7ot1+qJZVU+LqOvRTe9uYFEuL4CUMnAum/bweYSiDyE9CcJUVN6voxmaLDO9hgrIp/oLfX7U0D66ztY7IdXZO7E1E7zWLvavFwSHmM3ZL7gL26psJqsT0/EOKacSkrSJmAisKbgjAhPdRyVOFhQU3HI0GT2pDpW4UBfwScxbS57+zIjcfbmjtqNaA37IYdqiplZC7ltz9isWwJFGJQd/lwPVnN9h6QHKXD1xvj9i7Zf+duVngUrixhlIkYGkBTMiox/RvgRGjRSlqzEcJ6wq/A1qAGpKDpaFaUv1+PGDwGdcWcbFen9iTe2A5RWSirrsEK11g4TNDSXy/nEIxl+FQBhu7jgCYX+wscgsYQw7OaQwh7HuQ6AVUhxoURTwVCeEWmuBI+a9+nLKc6D96hRX/w2DPwt4Iqvb/dohFv2/dLe1sYoLNzYNc8dnKLNRikHtWX6+gkn/u7F6iniDOzqm/s9AEHUWj0L+xMFgaDQKvsKaShi0QQ34QjK/ceJ/GzD4gIIGYiY11mEhXMOQawq3E7MP54+sFCNH4UkduoxzMU9hKYOE7wCln3BExVVha8XYKS15ALoOzxfhAxCyVQcRqRX4aP8i2Ozqm/3f5L/c4sbIK8+MH8DVcI0MeBKCA3kRcK1wL5GKh40SChZsY1QCrFhOSwI2E2zhi0jYKiioTLiYShtEzGJ27TkxEgR7CiMyVQsMwMzQsLgGmRcIC842eSR4h42iQ9whyZEBZWYWLXl+4fFJsuPF1gOK6C6vKxH+LpWVUhyXsGuUjE/fYyX9tZRE6BQPNDcUF4YKIQC7f+GyZiq7zyKTJoqcQyYxoLPgdVRhGVNQLaGFsGgoDYpqwqSuvUEreMt6Wh+jwiEpfRnmTTgkAZWPqelQeZQhJ09nzK7t3gBlmjc6R5zJEQD0+dw0FxcwUU8QjQxqNAxaVoc4TYU1z47CyCJmYkDCx28Ss3lWsXbP+m4VFaCF7BQ+asriEMqRgWelbNrDCEJvEqAfUUcPv4mHElpCVdQS5eg4XuVF4HThkmJjOHuowIJXsHBLI2iZa1KxiS1WUwgaU0PuKa4Bt6Pb66SquhQi7mPieNzcP/LB6Ao3y/sTOLtbeXBN0uLkGAQsJGfG42ZE9jyer8hu+R4NBEmr2qFoqGL+ZErLmk7NLqnBNAKwIfkrnTz4tgYk1k60ouHqIRaUVb6Xk4ZsoLqeWwvE0j55GHn4lvH6GKMuChgJAQaUYVWN3Q/TwwqoyDThpbR3R5jpX3V1sXDL+h4VZaDZbKedFXI61dXFbSXH9YFGpAYP3AI8AkAwhXXUV1pMAEz8cFMtNvV19xXXAsSG/0czU77CZWXCMuXt+j+9xN0o3k+nT6c9sbaNCzTUBJ8RTsZ9Pk3lCuHH1n+S4oQEnwKtvL+17fI8BwBiA7OCUSA6OkiIfzsY6Uoyv4302gBINBNaYAJQIouvn7ugqsskBWjNT/+s2VmGpbsnL/1L+Sx+k4P9ZW0e5mJv6LzLt53NPgResmbYArKMU+5TixejAQozK56aZxn+GhU2kFRHJR20Uo3SS5Fed+XMM9jbXBK7lm++tBK/ms+Z11BDM9J/k4mmOuIf09MbTX3qCM5j01jWkIiYiGgg6UgKOWFiEJbj6j3ovBRbfp7gGFvxXC4twO3PTwDK2ZnaZ9PV6JPK6ZIiJHnQ+V4CK0CYeQM0p1lHWx7awzQZICkB5P9aY+O80Mw0stbIKsxkYUvo38uEZxShdKy4uGb+1sYlKNDcL2sg35nMROMWNCutL3MRtbwBtVSUNBftVLD8zE79zFmbBY+3to3vuYNlOEDv3lL+1soqwYPc+iHUyX7MVGhPfMyb9vO+xW/4UnRSAPGJ8sIgEfAxpwzLsdvI6vO4zfv3O1MT3rGk/r5UMp6kaTVCopWW4pb199gefCmSUHiiD/XL+0cYmYqCVRUgpuyNruSHc5pv4rchWxg0ua4MrqVhaLVhMavdSST9RFIDiBvIag4nZglhhbR2e4uCQ0Ad1qOTDMkoLUrCN/nTgwIy/YevnH2wc43pZW8dY83tnjSbAxaS322BDamrq74plrOyibKwdYnqbmwf9d2zDeN6N0mMlP7/qzwcNKvhfsHIszYIHW1tHFViYBlTwU32hhXnISUvz4AfmmoC3pv19f9KHlKJsPf1qZur/o4VZ0HNe57KpiV8NWwCT2aobYWERNMTWNr7/4ME5/4i0FXm3RjFKN5P/8B/+fw63kJpGpoTUAAAAAElFTkSuQmCC;" vertex="1" parent="1">
                    <mxGeometry x="80" y="307.6" width="120" height="82.4" as="geometry"/>
                </mxCell>
            </root>
        </mxGraphModel>
    </diagram>
</mxfile>